<svg xmlns="http://www.w3.org/2000/svg" width="814.51" height="450.45" filter="invert(93%) hue-rotate(180deg)" xmlns:v="https://vecta.io/nano"><style><![CDATA[.B{font-family:Helvetica, Segoe UI Emoji}.C{fill:none}.D{stroke-linecap:round}.E{font-size:20px}.F{direction:ltr}.G{stroke:none}.H{stroke:#1e1e1e}.I{stroke:#6741d9}.J{fill:#e03131}.K{fill:#c2255c}]]></style><path d="M10.55 0h251.98M10.55 0h251.98m0 0c7.03 0 10.55 3.52 10.55 10.55M262.53 0c7.03 0 10.55 3.52 10.55 10.55m0 0v21.1m0-21.1v21.1m0 0c0 7.03-3.52 10.55-10.55 10.55m10.55-10.55c0 7.03-3.52 10.55-10.55 10.55m0 0H10.55m251.98 0H10.55m0 0C3.52 42.2 0 38.68 0 31.65M10.55 42.2C3.52 42.2 0 38.68 0 31.65m0 0v-21.1m0 21.1v-21.1m0 0C0 3.52 3.52 0 10.55 0M0 10.55C0 3.52 3.52 0 10.55 0" stroke="#099268" transform="translate(216.67 10)" class="C D"/><g transform="matrix(1 0 0 1 242.1843 15)"><svg width="222.05" height="32.2"><g font-size="28" class="B"><svg width="15.296ex" height="2.027ex" viewBox="-3.86 -3.86 291.57 38.64" x=".5" y="1.67"><defs><path id="A" d="M425 0L228 3Q63 3 51 0H39V62H147V618H39V680H644V676Q647 670 659 552T675 428V424H613Q613 433 605 477Q599 511 589 535T562 574T530 599T488 612T441 617T387 618H368H304V371H333Q389 373 411 390T437 468V488H499V192H437V212Q436 244 430 263T408 292T378 305T333 309H304V62H439V0H425Z"/><path id="B" d="M72 610q0 39 26 62 26 23 61 23 34-2 58-25 24-23 24-60 0-38-24-61-24-23-60-24-37 0-61 23-24 23-24 62zM46 442l90 4 90 4h6V62h62V0h-8q-15 3-115 3Q67 3 49 0h-9v62h69v147q0 149-1 153-5 18-53 18H43v62h3z"/><path id="C" d="M50 300q0 68 55 109 55 41 150 41 73 0 121-24l12-6q47 35 101 35 28 0 44-14 16-14 21-27 5-13 4-25 0-22-14-36-14-14-36-14-24 0-37 15-13 15-13 33 0 10 4 13 2 1-1 0-2 0-7-1-25-7-27-9 27-37 32-62 2-13 2-28 0-60-42-98-55-53-171-53-63 0-112 23-7-14-7-24 0-43 41-55 6-2 93-2 10 0 35 0 25 0 36 0 11 0 32-2 21-2 34-4 13-2 32-8 19-6 34-13 78-42 78-133 0-45-38-76-68-56-219-56-138 0-197 40-59 40-60 91 0 12 3 23 3 11 9 20 6 9 12 14 6 5 15 12 9 7 13 7 4 0 12 6 8 6 7 3-35 42-35 91 0 45 24 81l7 10-8 7q-39 39-39 96zm435 103h7q-1 1-4 1l-3-1h0zM255 200q24 0 40 6 16 6 24 13 8 7 12 23 4 16 4 26 0 10 1 32 0 37-3 52-3 15-16 28-19 19-62 19-27 0-44-7-17-7-24-21-7-14-9-26-2-12-2-33v-12-11q0-54 18-70 21-19 61-19zm32-350q70 0 113 22 43 22 43 57 0 6-1 10-1 4-6 11-5 7-16 13-11 6-31 10-20 4-50 6l-31 1q-32 0-55 0-63 0-73 0-10 0-24-6-26-12-26-43 0-36 43-58 43-22 114-23z"/><path id="D" d="M40 442l94 4q94 4 95 4h6V273 165q0-75 3-91 3-16 16-22 14-6 50-6h15q33 0 61 21 28 21 39 54l1 2q4 12 5 76 0 2 0 8 0 26 0 42v67q0 38-2 47-2 9-13 13-14 4-41 4h-13v62l198 8V267q0-183 2-188 5-17 54-17h13V31q0-31-1-31-19 0-95-3-76-3-95-3-1 0-1 31v31l-11-11Q373 6 332-1q-19-5-51-5-73 0-116 20-43 20-56 73l-2 11-1 132q0 128-2 136-8 14-54 14H37v62h3z"/><path id="E" d="M405 293q0 0-31 0-31 0-50 19-19 19-19 49 0 17 7 33 3 3 3 5-10 0-21-5-11-5-28-19-17-14-28-46-11-32-16-80-1-8-1-100V62h87V0h-10q-18 3-137 3Q47 3 38 0h-9v62h69v148 93q0 50-2 60-2 10-13 13-14 4-41 4H29v62h3l86 4q86 4 87 4h5v-36l1-36q36 71 104 71h6q63 0 92-27 29-27 29-62 0-28-18-47z"/><path id="F" d="M64 349q0 50 43 77 43 27 148 27 91 0 147-30 56-30 71-82 5-14 5-31 0-17 1-114V77q14-14 50-15 20 0 24-5 4-5 5-26 0-22-6-26-6-4-38-5h-17-16Q375 0 367 56l-11-10Q300-6 210-6 130-6 81 30q-49 36-49 91 0 67 79 105 79 38 221 46h18v20q0 21-2 35-2 14-11 34-9 20-31 30-22 10-58 11-36 1-54-3h-5q15-23 15-45 0-27-17-48-17-21-53-22-37 0-53 21-16 21-17 44zm100-228q0-32 22-54 22-22 52-22 36 0 69 18 33 18 39 45l4 9v109h-3q-99-8-141-37-42-29-42-68z"/><path id="G" d="M272 49q48 0 48 87v9 32h62v-34q0-37-2-44-6-37-31-63-25-26-64-38l-13-3h-25q-74 0-113 32-25 19-32 47-7 28-8 86 0 11 0 39 0 28 1 46v137H21v51h4q33 0 65 23 31 23 50 67 19 44 22 98v14h62V444h139v-62H224V239v-32-58q0-51 4-68 4-17 21-26 12-6 23-6z"/><path id="H" d="M32 225q0 107 70 167 70 60 170 60h11q99 0 153-51 58-58 58-158 0-17-8-21-8-4-46-5-9 0-46 0-37 0-67 1H175v-9q0-32 4-55 4-23 17-47 13-24 40-38 27-14 70-19 6-1 17-1 53 0 87 36 11 14 17 26 6 12 7 16 1 4 8 6 7 2 21 2h5q26 0 26-18 0-7-5-20-5-13-21-31-16-18-37-34-21-16-58-27-37-11-81-11-111 0-185 61-74 61-75 170zm351 51q-6 70-35 98-29 28-68 28-27 0-50-12-23-12-35-33-16-26-19-78v-13h207v10z"/><path id="I" d="M314 0q-18 3-133 3Q66 3 48 0h-9v62h108v562H39v62h132 94q23 0 32 0 9 0 12-2 3-2 6-5 2-3 185-224 183-221 184-222v391H576v62h9q18-3 133-3 115 0 133 3h9v-62H752V319q0-304-2-308-3-7-8-9-5-2-24-2h-6q-4 0-6 0-2 0-6 0-4 0-4 1 0 1-3 1-3 0-3 2 0 2-3 3-3 1-3 4 0 3-5 5-5 2-5 7-3 4-237 288L215 579V62h108V0h-9z"/><path id="J" d="M40 442q177 8 178 8h6v-85q2 2 11 13 9 11 19 19 10 8 24 19 14 11 36 19 22 8 48 13 14 2 38 2h6q97 0 128-57 11-17 11-23 0-2 10 9 56 71 161 71 58 0 93-16 41-20 52-55 11-35 12-103v-63-15V62h69V0h-9q-18 3-124 3-107 0-125-3h-9v62h69v132 81q0 73-9 98-9 25-45 26-45 0-83-29-38-29-50-80-2-9-3-119V62h69V0h-9q-18 3-125 3-115 0-124-3h-9v62h69v132 81q0 73-9 98-9 25-45 26-45 0-83-29-38-29-50-80-2-9-3-119V62h69V0h-9q-18 3-124 3Q64 3 46 0h-9v62h69v148 93q0 50-2 60-2 10-13 13-14 4-41 4H37v62h3z"/><path id="K" d="M34.86 189.98l8.55 23.49m-8.55-23.49l8.55 23.49"/><path id="L" d="M51.96 189.98l-8.55 23.49m8.55-23.49l-8.55 23.49"/></defs><g transform="matrix(.0431 0 0 -.0431 -3.864 26.108)" class="G"><use href="#A"/><use href="#B" x="724"/><use href="#C" x="1043"/><use href="#D" x="1618"/><use href="#E" x="2257"/><use href="#F" x="2731"/><use href="#G" x="3290"/><use href="#H" x="3737"/><use href="#I" x="4264"/><use href="#D" x="5164"/><use href="#J" x="5803"/></g></svg></g></svg></g><path d="M12.99 0h154.73M12.99 0h154.73m0 0c8.65 0 12.98 4.33 12.98 12.99M167.72 0c8.65 0 12.98 4.33 12.98 12.99m0 0v25.98m0-25.98v25.98m0 0c0 8.66-4.33 12.99-12.98 12.99m12.98-12.99c0 8.66-4.33 12.99-12.98 12.99m0 0H12.99m154.73 0H12.99m0 0C4.33 51.96 0 47.63 0 38.97m12.99 12.99C4.33 51.96 0 47.63 0 38.97m0 0V12.99m0 25.98V12.99m0 0C0 4.33 4.33 0 12.99 0M0 12.99C0 4.33 4.33 0 12.99 0" stroke="#1971c2" transform="translate(416.55 275.67)" class="C D"/><g transform="matrix(1 0 0 1 438.4229 290.1455)"><svg width="136.97" height="23"><g class="B E"><svg width="13.213ex" height="1.588ex" viewBox="-2.76 -2.76 229.61 27.6" x=".5" y="1.2"><defs><path id="M" d="M39 624v62h231 40 98q92 0 137-6 45-6 93-31 130-65 167-211 12-50 12-100 0-167-115-263-74-58-187-73-11-1-245-2H39v62h108v562H39zm616-287q0 33 0 53 0 20-5 52-5 32-11 52-6 20-23 46-17 26-36 40-19 14-54 27-35 13-75 16-8 1-83 1h-70V62h79 10 20q38 0 65 3 27 3 68 18 41 15 66 46 23 27 34 66 11 39 13 67 2 28 2 75z"/><path id="N" d="M72 610q0 39 26 62 26 23 61 23 34-2 58-25 24-23 24-60 0-38-24-61-24-23-60-24-37 0-61 23-24 23-24 62zM46 442l90 4 90 4h6V62h62V0h-8q-15 3-115 3Q67 3 49 0h-9v62h69v147q0 149-1 153-5 18-53 18H43v62h3z"/><path id="O" d="M38 315q0 24 7 45 7 21 25 44 18 23 57 36 39 13 96 13 50 0 97-17l18 9 19 8h9q14 0 17-6 3-6 3-44v-16-32q0-24-3-29-3-5-18-5h-10-6q-16 0-20 3-4 3-5 17-7 65-100 65h-8q-93 0-93-53 0-19 20-32 20-13 45-17 25-4 56-10 31-6 41-8 20-5 40-13 20-8 48-36 28-28 39-65 2-10 2-30Q414-6 230-6q-76 0-113 28L68-6H58Q44-6 41 0q-3 6-3 42v31q0 12 0 28 0 16-1 21 0 22 5 26 5 4 26 5h7q12 0 16-2 4-2 6-4 2-2 6-15 28-86 117-86h10q27 0 35 1 65 11 65 61 0 19-14 34-16 14-32 20-13 6-72 16-59 10-90 24-84 41-84 113z"/><path id="P" d="M447 131h11q20 0 20-14 0-5-7-22-7-17-32-44-25-27-62-42-47-15-91-15-90 0-151 41-96 61-96 187 0 102 62 162 68 69 185 69 73 0 125-22 52-22 53-78 0-34-19-51-19-17-50-18-35 0-52 21-17 21-18 48 0 27 13 43h-5q-16 2-38 2h-3q-12 0-21-1-9-1-26-7-17-6-27-17-10-11-21-35-11-24-14-55-1-8-1-52 0-32 2-51 2-19 9-48 7-29 27-47 20-18 50-28 19-7 47-7h9q59 0 88 65 5 12 9 14 4 2 24 2z"/><path id="Q" d="M405 293q0 0-31 0-31 0-50 19-19 19-19 49 0 17 7 33 3 3 3 5-10 0-21-5-11-5-28-19-17-14-28-46-11-32-16-80-1-8-1-100V62h87V0h-10q-18 3-137 3Q47 3 38 0h-9v62h69v148 93q0 50-2 60-2 10-13 13-14 4-41 4H29v62h3l86 4q86 4 87 4h5v-36l1-36q36 71 104 71h6q63 0 92-27 29-27 29-62 0-28-18-47z"/><path id="R" d="M32 225q0 107 70 167 70 60 170 60h11q99 0 153-51 58-58 58-158 0-17-8-21-8-4-46-5-9 0-46 0-37 0-67 1H175v-9q0-32 4-55 4-23 17-47 13-24 40-38 27-14 70-19 6-1 17-1 53 0 87 36 11 14 17 26 6 12 7 16 1 4 8 6 7 2 21 2h5q26 0 26-18 0-7-5-20-5-13-21-31-16-18-37-34-21-16-58-27-37-11-81-11-111 0-185 61-74 61-75 170zm351 51q-6 70-35 98-29 28-68 28-27 0-50-12-23-12-35-33-16-26-19-78v-13h207v10z"/><path id="S" d="M272 49q48 0 48 87v9 32h62v-34q0-37-2-44-6-37-31-63-25-26-64-38l-13-3h-25q-74 0-113 32-25 19-32 47-7 28-8 86 0 11 0 39 0 28 1 46v137H21v51h4q33 0 65 23 31 23 50 67 19 44 22 98v14h62V444h139v-62H224V239v-32-58q0-51 4-68 4-17 21-26 12-6 23-6z"/><path id="T" d="M592 686h12q11-1 27-1 16 0 35-1 19-1 34 0 15 1 24-1 105 0 111 3h8v-62h-99L611 315q-27-61-65-150-54-125-64-146-10-21-21-25l-1-1h-51q-11 3-18 16-6 11-134 306L124 624H25v62h11q21-3 154-3 150 0 174 3h13v-62h-88l95-221 96-218 12 27q12 28 37 86 25 58 46 107l95 219h-88v62h10z"/><path id="U" d="M48 262q0 2 6 87 6 85 6 87v8h192q37 0 84 0 47 0 58 1 47 0 56-4 9-4 9-23 0-12-1-14-2-5-131-175Q198 59 194 55h43q23 1 31 1 8 0 29 2 21 2 28 7 7 5 23 12 16 7 22 21 6 14 14 30 8 16 11 42 5 27 5 46 0 1 31 1h31v-6q-1-3-9-103-8-100-9-102V0H245Q46 0 43 2 32 7 32 28v5q0 8 8 19 8 11 44 60 45 58 80 105l134 176h-42q-67-1-91-13-41-20-50-77-5-23-5-47 0-2-31-2H48v8z"/></defs><g transform="matrix(.0393 0 0 -.0393 -2.76 24.565)" class="G"><use href="#M"/><use href="#N" x="882"/><use href="#O" x="1201"/><use href="#P" x="1655"/><use href="#Q" x="2166"/><use href="#R" x="2640"/><use href="#S" x="3167"/><use href="#R" x="3614"/><use href="#T" x="4141"/><use href="#N" x="5010"/><use href="#U" x="5329"/></g></svg></g></svg></g><path d="M13.09 0h172.73M13.09 0h172.73m0 0c8.73 0 13.09 4.36 13.09 13.09M185.82 0c8.73 0 13.09 4.36 13.09 13.09m0 0v26.18m0-26.18v26.18m0 0c0 8.72-4.36 13.08-13.09 13.08m13.09-13.08c0 8.72-4.36 13.08-13.09 13.08m0 0H13.09m172.73 0H13.09m0 0C4.36 52.35 0 47.99 0 39.27m13.09 13.08C4.36 52.35 0 47.99 0 39.27m0 0V13.09m0 26.18V13.09m0 0C0 4.36 4.36 0 13.09 0M0 13.09C0 4.36 4.36 0 13.09 0" stroke="#1971c2" transform="translate(605.6 275.32)" class="C D"/><g transform="matrix(1 0 0 1 632.8799 289.9971)"><svg width="144.35" height="23"><g class="B E"><svg width="13.925ex" height="2.016ex" viewBox="-2.76 -2.76 190.66 27.6" x=".5" y="1.15"><defs><path id="V" d="M64 343q0 159 110 256 110 97 294 98 34 0 65-6 31-6 53-17 22-11 37-19 15-8 24-16 9-8 10-7l37 31q9 7 17 14 8 7 12 10 4 3 7 5 3 2 5 3 2 1 5 1 3 0 6 1 13 0 16-5 3-5 4-24v-41-138-40q0-21-4-25-4-4-20-5h-10-12q-21 0-23 17-7 62-40 109-46 73-125 87-10 2-36 2-140 0-210-81-54-65-54-210 0-145 54-210 69-81 211-81 100 0 153 60 53 60 54 125 0 11 5 14 5 3 20 3h6q15 0 20-1 5-1 8-5 3-4 3-14 0-98-86-171-86-73-211-74-184 0-294 97Q65 183 64 343z"/><path id="W" d="M287 -5Q228 -5 182 10T109 48T63 102T39 161T32 219Q32 272 50 314T94 382T154 423T214 446T265 452H279Q319 452 326 451Q428 439 485 376T542 221Q542 156 514 108T442 33Q384 -5 287 -5ZM399 230V250Q399 280 398 298T391 338T372 372T338 392T282 401Q241 401 212 380Q190 363 183 334T175 230Q175 202 175 189T177 153T183 118T195 91T215 68T245 56T287 50Q348 50 374 84Q388 101 393 132T399 230Z"/><path id="X" d="M40 442q177 8 178 8h6v-85q2 2 11 13 9 11 19 19 10 8 24 19 14 11 36 19 22 8 48 13 14 2 38 2h6q97 0 128-57 11-17 11-23 0-2 10 9 56 71 161 71 58 0 93-16 41-20 52-55 11-35 12-103v-63-15V62h69V0h-9q-18 3-124 3-107 0-125-3h-9v62h69v132 81q0 73-9 98-9 25-45 26-45 0-83-29-38-29-50-80-2-9-3-119V62h69V0h-9q-18 3-125 3-115 0-124-3h-9v62h69v132 81q0 73-9 98-9 25-45 26-45 0-83-29-38-29-50-80-2-9-3-119V62h69V0h-9q-18 3-124 3Q64 3 46 0h-9v62h69v148 93q0 50-2 60-2 10-13 13-14 4-41 4H37v62h3z"/><path id="Y" d="M32 442l91 4q91 4 92 4h6v-41q1 0 8 4 7 4 22 10 15 6 33 13 18 7 44 10 26 3 54 4 98 0 158-62 60-62 60-165 0-95-61-162Q478-6 361-6h-7q-62 0-118 34l-9 6v-166h69v-62h-9q-18 3-124 3-107 0-125-3h-9v62h69v245 171q0 46-1 64-1 18-4 22-3 4-10 6-14 4-41 4H29v62h3zm425-218q0 79-30 125-30 46-77 46-68 0-115-43l-8-7V104l6-7q41-52 104-52 46 0 83 41 37 41 37 138z"/><path id="Z" d="M43 686l91 4q91 4 92 4h6V62h69V0h-9q-18 3-122 3Q67 3 49 0h-9v62h69v270q0 55 0 121 0 66 1 81 0 59-2 71-2 12-14 15-14 4-41 4H40v62h3z"/><path id="a" d="M32 225q0 107 70 167 70 60 170 60h11q99 0 153-51 58-58 58-158 0-17-8-21-8-4-46-5-9 0-46 0-37 0-67 1H175v-9q0-32 4-55 4-23 17-47 13-24 40-38 27-14 70-19 6-1 17-1 53 0 87 36 11 14 17 26 6 12 7 16 1 4 8 6 7 2 21 2h5q26 0 26-18 0-7-5-20-5-13-21-31-16-18-37-34-21-16-58-27-37-11-81-11-111 0-185 61-74 61-75 170zm351 51q-6 70-35 98-29 28-68 28-27 0-50-12-23-12-35-33-16-26-19-78v-13h207v10z"/><path id="b" d="M227 0q-15 3-106 3-81 0-93-3h-7v62h96l128 151-136 169H26v62h8q15-3 109-3 104 0 122 3h9v-62h-28l35-43q34-42 35-42 4 0 38 44l35 41h-37v62h8q15-3 106-3 81 0 93 3h7v-62h-95L355 246 504 63l41-1h41V0h-8q-15 3-109 3-104 0-122-3h-9v62h28q0 1-40 50-40 49-41 51L198 63l19-1h18V0h-8z"/><path id="c" d="M592 686h12q11-1 27-1 16 0 35-1 19-1 34 0 15 1 24-1 105 0 111 3h8v-62h-99L611 315q-27-61-65-150-54-125-64-146-10-21-21-25l-1-1h-51q-11 3-18 16-6 11-134 306L124 624H25v62h11q21-3 154-3 150 0 174 3h13v-62h-88l95-221 96-218 12 27q12 28 37 86 25 58 46 107l95 219h-88v62h10z"/><path id="d" d="M72 610q0 39 26 62 26 23 61 23 34-2 58-25 24-23 24-60 0-38-24-61-24-23-60-24-37 0-61 23-24 23-24 62zM46 442l90 4 90 4h6V62h62V0h-8q-15 3-115 3Q67 3 49 0h-9v62h69v147q0 149-1 153-5 18-53 18H43v62h3z"/><path id="e" d="M48 262q0 2 6 87 6 85 6 87v8h192q37 0 84 0 47 0 58 1 47 0 56-4 9-4 9-23 0-12-1-14-2-5-131-175Q198 59 194 55h43q23 1 31 1 8 0 29 2 21 2 28 7 7 5 23 12 16 7 22 21 6 14 14 30 8 16 11 42 5 27 5 46 0 1 31 1h31v-6q-1-3-9-103-8-100-9-102V0H245Q46 0 43 2 32 7 32 28v5q0 8 8 19 8 11 44 60 45 58 80 105l134 176h-42q-67-1-91-13-41-20-50-77-5-23-5-47 0-2-31-2H48v8z"/></defs><g transform="matrix(.031 0 0 -.031 -2.76 18.831)" class="G"><use href="#V"/><use href="#W" x="831"/><use href="#X" x="1406"/><use href="#Y" x="2364"/><use href="#Z" x="3003"/><use href="#a" x="3322"/><use href="#b" x="3849"/><use href="#c" x="4456"/><use href="#d" x="5325"/><use href="#e" x="5644"/></g></svg></g></svg></g><path d="M8.25 0h237.62M8.25 0h237.62m0 0c5.5 0 8.25 2.75 8.25 8.25M245.87 0c5.5 0 8.25 2.75 8.25 8.25m0 0v16.5m0-16.5v16.5m0 0c0 5.5-2.75 8.25-8.25 8.25m8.25-8.25c0 5.5-2.75 8.25-8.25 8.25m0 0H8.25m237.62 0H8.25m0 0C2.75 33 0 30.25 0 24.75M8.25 33C2.75 33 0 30.25 0 24.75m0 0V8.25m0 16.5V8.25m0 0C0 2.75 2.75 0 8.25 0M0 8.25C0 2.75 2.75 0 8.25 0" transform="translate(14.99 144.99)" class="C D I"/><g transform="matrix(1 0 0 1 44.6 149.994)"><svg width="194.9" height="23"><g class="B E"><svg width="18.801ex" height="2.036ex" viewBox="-2.76 -2.76 254.84 27.6" x=".5" y="1.23"><defs><path id="f" d="M130 622q-7 7-11 9-4 2-16 3-12 1-43 3H27v46h187q23 0 62 0 39 0 55 1 88 0 140-13 52-13 96-55 57-53 57-127 0-68-51-117-51-49-122-65-22-5-123-6h-94V181q0-119 3-123 8-11 67-12h33V0h-11q-21 3-144 3Q47 3 38 0H27v46h33q42 1 51 3 9 2 19 12v561zm377-134q0 26-1 40-1 14-6 36-5 22-17 33-12 11-33 23-21 12-53 15-12 2-90 2h-21q-49 0-52-9-3-4-3-145V342h71 37q51 0 84 7 33 7 58 33 26 29 26 106z"/><path id="g" d="M42 46h14q39 0 47 14v8q0 9 0 23 0 14 0 33 0 19 1 43 1 24 0 50-1 26 0 55 1 29 0 57 0 37 0 78 0 41 0 75 0 34 0 60 0 26-1 44-1 18 0 17-3 19-14 25-11 6-45 9H26v23q0 23 2 23l10 1q10 1 29 2 19 1 37 2 17 1 37 2 20 1 30 3 10 2 11 1h3V379q0-317 1-319 4-8 12-11 21-3 49-3h16V0h-8l-23 1q-23 1-49 1-26 0-38 1-12 1-38 0-26-1-50-2L34 0h-8v46h16z"/><path id="h" d="M137 305T115 305T78 320T63 359Q63 394 97 421T218 448Q291 448 336 416T396 340Q401 326 401 309T402 194V124Q402 76 407 58T428 40Q443 40 448 56T453 109V145H493V106Q492 66 490 59Q481 29 455 12T400 -6T353 12T329 54V58L327 55Q325 52 322 49T314 40T302 29T287 17T269 6T247 -2T221 -8T190 -11Q130 -11 82 20T34 107Q34 128 41 147T68 188T116 225T194 253T304 268H318V290Q318 324 312 340Q290 411 215 411Q197 411 181 410T156 406T148 403Q170 388 170 359Q170 334 154 320ZM126 106Q126 75 150 51T209 26Q247 26 276 49T315 109Q317 116 318 175Q318 233 317 233Q309 233 296 232T251 223T193 203T147 166T126 106Z"/><path id="i" d="M41 46h14q39 0 47 14v8q0 9 0 23 0 14 0 31 0 17 1 39 1 22 0 42 0 31 0 66 0 35-1 59v23q-3 19-14 25-11 6-45 9H25v23q0 23 2 23l10 1q10 1 28 2 18 1 37 2 17 1 36 2 19 1 29 3 10 2 11 1h3v-40q0-38 1-38 1 0 5 5 4 5 12 15 8 10 19 18 11 8 29 19 18 11 38 16 20 5 51 5 114-4 127-113 1-7 1-139v-86q0-38 2-45 2-7 11-10 21-3 49-3h16V0h-8l-24 1q-23 1-50 1-27 0-38 1-103 0-112-3h-8v46h16q61 0 61 16 1 2 1 138-1 135-2 143-6 28-20 42-14 14-24 17-10 3-26 2-45 0-79-34-27-27-34-55-7-28-8-83v-64-60q0-30 1-40 1-10 3-13 2-3 9-6 21-3 49-3h16V0h-8l-23 1q-24 1-51 1-27 0-38 1Q42 3 33 0h-8v46h16z"/><path id="j" d="M28 218q0 55 20 100 20 45 50 73 30 28 65 42 35 14 66 15 53 0 91-18 38-18 58-50 20-32 28-64 8-32 9-71 0-7-7-14H126v-15q0-148 100-180 20-6 44-6 42 0 72 32 17 17 27 42l10 24q3 3 16 3h3q17 0 17-10 0-4-3-13-19-55-63-87-44-32-99-32-95 0-158 69-63 69-64 160zm305 57q-11 128-95 136h-2q-8 0-16-1-8-1-25-8-17-7-29-21-12-14-23-41-11-27-16-66v-7h206v8z"/><path id="k" d="M128 619q-7 7-11 9-4 2-16 3-12 1-43 3H25v46h557v-4q2-6 14-116 12-110 14-116v-4h-40v4q-7 49-9 57-6 37-18 62-12 25-27 38-15 13-39 21-24 8-46 9-22 1-57 2h-40-48q-34 0-42-2-8-2-11-10-1-2-1-131V363h52q3 0 19 0 16 0 24 1 8 1 22 3 14 2 23 6 9 4 17 12 18 18 21 74v21h40V200h-40v21q-3 55-21 75-8 7-18 11-10 4-23 6-13 2-21 3-8 1-24 1-16 0-19 0h-52V189l1-128q7-7 12-9 5-2 25-4 20-2 63-2h27V0h-12q-24 3-166 3Q51 3 36 0H25v46h33q42 1 51 3 9 2 19 12v558z"/><path id="l" d="M69 609q0 28 18 44 18 16 44 16 23-2 40-17 17-15 17-43 0-30-17-45-17-15-42-15-25 0-42 15-17 15-18 45zM247 0q-15 3-104 3-11 0-37 0-26 0-50-2L34 0h-8v46h16q28 0 49 3 9 4 11 11 2 7 2 42v103 88q0 52-2 66-2 14-14 19-14 7-47 7H30v23q0 23 2 23l10 1q10 1 28 2 18 1 36 2 17 1 36 2 19 1 29 3 10 2 11 1h3V62q5-10 12-12 7-2 35-4h23V0h-8z"/><path id="m" d="M329 409q44 44 100 44 30 0 43-19 13-19 13-38 0-14-9-25-9-11-27-11-33 0-37 30-2 14 3 21 0 1 1 3v1q-28-3-53-22-8-5-8-7 0-1 4-5 4-4 9-12 5-8 11-18 6-10 9-26 3-16 4-33 0-62-49-105-49-43-121-44-50 0-99 28-11-18-11-38 0-35 26-52 9-6 17-6 8 0 72-2 84-1 108-6 61-9 96-41 39-39 39-98 0-67-78-103-60-31-142-31-83 0-143 31-78 35-78 100 0 36 21 60Q71 9 92 18l11 6q-36 31-36 84 0 47 29 85-44 44-44 99 0 63 50 106 50 43 121 44 51 0 95-26l11-7zm-30-66q-5 28-26 44-21 16-52 17-29 0-50-16-21-16-26-45-3-17-3-51 0-44 7-65 7-21 30-35 17-10 43-10 22 0 38 7 16 7 23 18 7 11 11 20 4 9 5 15 3 16 3 50 0 34-3 51zM403-75q0 25-14 41-14 16-41 23-27 7-49 9-22 2-54 2h-27q-67 0-80-6-20-9-31-28-11-19-12-40 0-10 6-23 6-13 21-30 15-17 48-28 33-11 80-12 69 0 111 28 42 28 42 64z"/><path id="n" d="M383 58q-56-68-127-68h-7q-125 0-144 99-1 7-2 137-1 109-1 122 0 13-6 21-10 16-60 16H25v23q0 23 2 23l11 1q10 1 29 2 19 1 38 2 17 1 37 2 20 1 30 3 10 2 12 1h3V261q1-184 3-197 3-15 14-24 20-14 60-14 26 0 47 9 21 9 32 23 11 14 20 32 9 18 12 30 3 12 4 24 0 1 0 17 0 16 1 40 1 24 0 47v67q0 46-10 57-10 11-50 13h-18v46q2 0 76 5 74 5 79 6h7V264q0-180 1-183 3-20 14-26 11-6 45-9h18V0q-2 0-75-5-73-5-77-6h-7v69z"/><path id="o" d="M36 46h14q39 0 47 14v8q0 9 0 23 0 14 1 31 1 17 0 39-1 22 0 42 0 31 0 66 0 35 0 59l-1 23q-3 19-14 25-11 6-45 9H20v23q0 23 2 23l10 1q10 1 28 2 18 1 36 2 16 1 35 2 19 1 29 3 10 2 11 1h3v-69q39 68 97 68h6q45 0 66-22 21-22 21-46 0-21-13-36-13-15-38-15-25 0-37 16-12 16-13 34 0 9 2 16 2 7 5 12 3 5 3 5-2 2-23-4-16-8-24-15-47-45-47-179v-53q0-13 0-27 0-14 0-26 0-12 1-20 1-8 0-15v-5q1-2 3-4 2-2 5-3 3-1 5-3 2-2 7-2 5 0 7-1 2-1 9-1 7 0 9 0 2 0 10-1 8-1 10 0h31V0h-9q-18 3-127 3Q37 3 28 0h-8v46h16z"/><path id="p" d="M27 422q53 4 82 56 29 52 32 122v15h40V431h135v-46H181V241q1-125 1-141 0-16 7-32 14-39 49-39 44 0 54 71 1 8 1 46v35h40v-35-12q0-77-42-117-27-27-70-27-34 0-59 12-25 12-38 31-13 19-19 35-6 16-7 32-1 7-1 148v137H18v37h9z"/><path id="q" d="M42 46q32 2 52 10 20 8 24 13 4 5 10 17v548h-4q-10 3-72 3H25v46h207l3-3q2-1 87-126 85-125 171-251l85-125v420q-6 10-10 15-4 5-24 14-20 9-52 10h-17v46h8q15-3 117-3 106 0 115 3h9v-46h-17q-73-4-85-39l-1-296V6l-7-6h-14q-15 0-18 3-3 3-101 147-98 144-199 293-101 149-111 162V345l1-259q11-36 85-40h17V0h-9q-15 3-115 3Q48 3 33 0h-8v46h17z"/><path id="r" d="M41 46h14q39 0 47 14v8q0 9 0 23 0 14 0 31 0 17 1 39 1 22 0 42 0 31 0 66 0 35-1 59v23q-3 19-14 25-11 6-45 9H25v23q0 23 2 23l10 1q10 1 28 2 18 1 37 2 17 1 36 2 19 1 29 3 10 2 11 1h3v-40q0-38 1-38 1 0 5 5 4 5 12 15 8 10 19 18 11 8 29 19 18 11 38 16 20 5 51 5 15 0 28-2 13-2 23-6 10-4 19-8 9-4 15-9 6-5 11-11 5-6 9-11 4-5 7-11 3-6 4-10 1-4 3-8l2-5 3 4q3 4 6 8 3 4 9 11 6 7 13 13 7 6 15 13 8 7 20 12 12 5 23 10 11 5 26 7 15 2 31 3 126 0 137-113 1-7 1-139v-86q0-38 2-45 2-7 11-10 21-3 49-3h16V0h-8l-23 1q-24 1-51 1-27 0-38 1-103 0-112-3h-8v46h16q61 0 61 16 1 2 1 138-1 135-2 143-6 28-20 42-14 14-24 17-10 3-26 2-45 0-79-34-27-27-34-55-7-28-8-83v-64-60q0-30 1-40 1-10 3-13 2-3 9-6 21-3 49-3h16V0h-8l-24 1q-23 1-50 1-27 0-38 1-103 0-112-3h-8v46h16q61 0 61 16 1 2 1 138-1 135-2 143-6 28-20 42-14 14-24 17-10 3-26 2-45 0-79-34-27-27-34-55-7-28-8-83v-64-60q0-30 1-40 1-10 3-13 2-3 9-6 21-3 49-3h16V0h-8l-23 1q-24 1-51 1-27 0-38 1Q42 3 33 0h-8v46h16z"/></defs><g transform="matrix(.0307 0 0 -.0307 -2.76 18.523)" class="G"><use href="#f"/><use href="#g" x="681"/><use href="#h" x="959"/><use href="#i" x="1459"/><use href="#j" x="2015"/><use href="#k" x="2459"/><use href="#l" x="3112"/><use href="#m" x="3390"/><use href="#n" x="3890"/><use href="#o" x="4446"/><use href="#h" x="4838"/><use href="#p" x="5338"/><use href="#j" x="5727"/><use href="#q" x="6171"/><use href="#n" x="6921"/><use href="#r" x="7477"/></g></svg></g></svg></g><path d="M8.25 0h263.51M8.25 0h263.51m0 0c5.5 0 8.25 2.75 8.25 8.25M271.76 0c5.5 0 8.25 2.75 8.25 8.25m0 0v16.5m0-16.5v16.5m0 0c0 5.5-2.75 8.25-8.25 8.25m8.25-8.25c0 5.5-2.75 8.25-8.25 8.25m0 0H8.25m263.51 0H8.25m0 0C2.75 33 0 30.25 0 24.75M8.25 33C2.75 33 0 30.25 0 24.75m0 0V8.25m0 16.5V8.25m0 0C0 2.75 2.75 0 8.25 0M0 8.25C0 2.75 2.75 0 8.25 0" transform="translate(30.68 215.4)" class="C D I"/><g transform="matrix(1 0 0 1 72.7559 220.397)"><svg width="195.87" height="23"><g class="B E"><svg width="18.894ex" height="2.061ex" viewBox="-2.76 -2.76 253.01 27.6" x=".5" y=".97"><defs><path id="s" d="M55 507q0 83 57 140 57 57 131 57h14q85 0 148-63l21 31q5 7 10 15 5 8 10 13l3 4q1 0 4 0 3 0 6 1h4q3 0 9-6V462l-6-6h-18q-11 0-13 3-2 3-5 20-17 126-101 167-37 16-75 16-53 0-86-36-33-36-33-84 0-34 17-62 17-28 48-45 10-4 86-23 76-19 84-23 57-22 93-75 36-53 37-123 0-81-52-146-52-65-147-66-56 0-100 17-44 17-61 31l-18 14q-4-5-15-20Q96 6 87-7q-9-13-9-14-2-1-10-1h-4q-3 0-9 6v117q0 119 1 121 2 5 20 5h13q6-6 6-13 0-32 10-63 10-31 34-61 24-30 66-48 42-18 100-18 47 0 81 38 34 38 34 93 0 43-22 78-22 35-58 48-56 14-74 19-5 1-27 6-22 5-33 8-11 3-32 11-21 8-33 18-12 10-29 24-17 14-27 35-30 49-30 105z"/><path id="t" d="M36-148h14q39 0 47 14v8q0 7 0 19 0 12 0 30 0 18 1 39 1 21 0 44-1 23 0 49 1 26 0 51 0 34 0 71 0 37 0 66 0 29 0 53 0 24-1 39-1 15 0 16-3 19-14 25-11 6-45 9H20v23q0 23 2 23l10 1q10 1 29 2 19 1 37 2 17 1 37 2 20 1 30 3 10 2 11 1h3v-26l1-26 8 7q59 44 138 44 81 0 138-64 57-64 58-161 0-101-65-164-65-63-147-63-68 0-120 44l-8 7v-85-56q0-27 2-33 2-6 11-11 21-3 49-3h16v-46h-8l-24 1q-23 1-50 1-27 0-38 1-103 0-112-3h-8v46h16zm388 366q0 74-34 129-34 55-85 55-71 0-123-65V98q40-72 112-72 51 0 90 54 39 54 40 138z"/><path id="u" d="M137 305T115 305T78 320T63 359Q63 394 97 421T218 448Q291 448 336 416T396 340Q401 326 401 309T402 194V124Q402 76 407 58T428 40Q443 40 448 56T453 109V145H493V106Q492 66 490 59Q481 29 455 12T400 -6T353 12T329 54V58L327 55Q325 52 322 49T314 40T302 29T287 17T269 6T247 -2T221 -8T190 -11Q130 -11 82 20T34 107Q34 128 41 147T68 188T116 225T194 253T304 268H318V290Q318 324 312 340Q290 411 215 411Q197 411 181 410T156 406T148 403Q170 388 170 359Q170 334 154 320ZM126 106Q126 75 150 51T209 26Q247 26 276 49T315 109Q317 116 318 175Q318 233 317 233Q309 233 296 232T251 223T193 203T147 166T126 106Z"/><path id="v" d="M370 305q0 0-21 0-21 0-36 15-15 15-16 38 0 23 15 38 5 5 5 6 0 1-10 2-26 4-49 4-49 0-80-32-47-47-47-157 0-82 31-129 41-61 110-61 41 0 66 26 25 26 36 62 2 8 5 10 3 2 16 2h14q6-6 6-9 0-4-4-16-4-12-16-33-12-21-29-38-17-17-48-31-31-14-69-13-86 0-150 64-64 64-65 161 0 104 65 169 65 65 151 65 86 0 120-27 34-27 34-64 0-23-17-37z"/><path id="w" d="M28 218q0 55 20 100 20 45 50 73 30 28 65 42 35 14 66 15 53 0 91-18 38-18 58-50 20-32 28-64 8-32 9-71 0-7-7-14H126v-15q0-148 100-180 20-6 44-6 42 0 72 32 17 17 27 42l10 24q3 3 16 3h3q17 0 17-10 0-4-3-13-19-55-63-87-44-32-99-32-95 0-158 69-63 69-64 160zm305 57q-11 128-95 136h-2q-8 0-16-1-8-1-25-8-17-7-29-21-12-14-23-41-11-27-16-66v-7h206v8z"/><path id="x" d="M128 619q-7 7-11 9-4 2-16 3-12 1-43 3H25v46h557v-4q2-6 14-116 12-110 14-116v-4h-40v4q-7 49-9 57-6 37-18 62-12 25-27 38-15 13-39 21-24 8-46 9-22 1-57 2h-40-48q-34 0-42-2-8-2-11-10-1-2-1-131V363h52q3 0 19 0 16 0 24 1 8 1 22 3 14 2 23 6 9 4 17 12 18 18 21 74v21h40V200h-40v21q-3 55-21 75-8 7-18 11-10 4-23 6-13 2-21 3-8 1-24 1-16 0-19 0h-52V189l1-128q7-7 12-9 5-2 25-4 20-2 63-2h27V0h-12q-24 3-166 3Q51 3 36 0H25v46h33q42 1 51 3 9 2 19 12v558z"/><path id="y" d="M69 609q0 28 18 44 18 16 44 16 23-2 40-17 17-15 17-43 0-30-17-45-17-15-42-15-25 0-42 15-17 15-18 45zM247 0q-15 3-104 3-11 0-37 0-26 0-50-2L34 0h-8v46h16q28 0 49 3 9 4 11 11 2 7 2 42v103 88q0 52-2 66-2 14-14 19-14 7-47 7H30v23q0 23 2 23l10 1q10 1 28 2 18 1 36 2 17 1 36 2 19 1 29 3 10 2 11 1h3V62q5-10 12-12 7-2 35-4h23V0h-8z"/><path id="z" d="M329 409q44 44 100 44 30 0 43-19 13-19 13-38 0-14-9-25-9-11-27-11-33 0-37 30-2 14 3 21 0 1 1 3v1q-28-3-53-22-8-5-8-7 0-1 4-5 4-4 9-12 5-8 11-18 6-10 9-26 3-16 4-33 0-62-49-105-49-43-121-44-50 0-99 28-11-18-11-38 0-35 26-52 9-6 17-6 8 0 72-2 84-1 108-6 61-9 96-41 39-39 39-98 0-67-78-103-60-31-142-31-83 0-143 31-78 35-78 100 0 36 21 60Q71 9 92 18l11 6q-36 31-36 84 0 47 29 85-44 44-44 99 0 63 50 106 50 43 121 44 51 0 95-26l11-7zm-30-66q-5 28-26 44-21 16-52 17-29 0-50-16-21-16-26-45-3-17-3-51 0-44 7-65 7-21 30-35 17-10 43-10 22 0 38 7 16 7 23 18 7 11 11 20 4 9 5 15 3 16 3 50 0 34-3 51zM403-75q0 25-14 41-14 16-41 23-27 7-49 9-22 2-54 2h-27q-67 0-80-6-20-9-31-28-11-19-12-40 0-10 6-23 6-13 21-30 15-17 48-28 33-11 80-12 69 0 111 28 42 28 42 64z"/><path id="AA" d="M383 58q-56-68-127-68h-7q-125 0-144 99-1 7-2 137-1 109-1 122 0 13-6 21-10 16-60 16H25v23q0 23 2 23l11 1q10 1 29 2 19 1 38 2 17 1 37 2 20 1 30 3 10 2 12 1h3V261q1-184 3-197 3-15 14-24 20-14 60-14 26 0 47 9 21 9 32 23 11 14 20 32 9 18 12 30 3 12 4 24 0 1 0 17 0 16 1 40 1 24 0 47v67q0 46-10 57-10 11-50 13h-18v46q2 0 76 5 74 5 79 6h7V264q0-180 1-183 3-20 14-26 11-6 45-9h18V0q-2 0-75-5-73-5-77-6h-7v69z"/><path id="AB" d="M36 46h14q39 0 47 14v8q0 9 0 23 0 14 1 31 1 17 0 39-1 22 0 42 0 31 0 66 0 35 0 59l-1 23q-3 19-14 25-11 6-45 9H20v23q0 23 2 23l10 1q10 1 28 2 18 1 36 2 16 1 35 2 19 1 29 3 10 2 11 1h3v-69q39 68 97 68h6q45 0 66-22 21-22 21-46 0-21-13-36-13-15-38-15-25 0-37 16-12 16-13 34 0 9 2 16 2 7 5 12 3 5 3 5-2 2-23-4-16-8-24-15-47-45-47-179v-53q0-13 0-27 0-14 0-26 0-12 1-20 1-8 0-15v-5q1-2 3-4 2-2 5-3 3-1 5-3 2-2 7-2 5 0 7-1 2-1 9-1 7 0 9 0 2 0 10-1 8-1 10 0h31V0h-9q-18 3-127 3Q37 3 28 0h-8v46h16z"/><path id="AC" d="M27 422q53 4 82 56 29 52 32 122v15h40V431h135v-46H181V241q1-125 1-141 0-16 7-32 14-39 49-39 44 0 54 71 1 8 1 46v35h40v-35-12q0-77-42-117-27-27-70-27-34 0-59 12-25 12-38 31-13 19-19 35-6 16-7 32-1 7-1 148v137H18v37h9z"/><path id="AD" d="M42 46q32 2 52 10 20 8 24 13 4 5 10 17v548h-4q-10 3-72 3H25v46h207l3-3q2-1 87-126 85-125 171-251l85-125v420q-6 10-10 15-4 5-24 14-20 9-52 10h-17v46h8q15-3 117-3 106 0 115 3h9v-46h-17q-73-4-85-39l-1-296V6l-7-6h-14q-15 0-18 3-3 3-101 147-98 144-199 293-101 149-111 162V345l1-259q11-36 85-40h17V0h-9q-15 3-115 3Q48 3 33 0h-8v46h17z"/><path id="AE" d="M41 46h14q39 0 47 14v8q0 9 0 23 0 14 0 31 0 17 1 39 1 22 0 42 0 31 0 66 0 35-1 59v23q-3 19-14 25-11 6-45 9H25v23q0 23 2 23l10 1q10 1 28 2 18 1 37 2 17 1 36 2 19 1 29 3 10 2 11 1h3v-40q0-38 1-38 1 0 5 5 4 5 12 15 8 10 19 18 11 8 29 19 18 11 38 16 20 5 51 5 15 0 28-2 13-2 23-6 10-4 19-8 9-4 15-9 6-5 11-11 5-6 9-11 4-5 7-11 3-6 4-10 1-4 3-8l2-5 3 4q3 4 6 8 3 4 9 11 6 7 13 13 7 6 15 13 8 7 20 12 12 5 23 10 11 5 26 7 15 2 31 3 126 0 137-113 1-7 1-139v-86q0-38 2-45 2-7 11-10 21-3 49-3h16V0h-8l-23 1q-24 1-51 1-27 0-38 1-103 0-112-3h-8v46h16q61 0 61 16 1 2 1 138-1 135-2 143-6 28-20 42-14 14-24 17-10 3-26 2-45 0-79-34-27-27-34-55-7-28-8-83v-64-60q0-30 1-40 1-10 3-13 2-3 9-6 21-3 49-3h16V0h-8l-24 1q-23 1-50 1-27 0-38 1-103 0-112-3h-8v46h16q61 0 61 16 1 2 1 138-1 135-2 143-6 28-20 42-14 14-24 17-10 3-26 2-45 0-79-34-27-27-34-55-7-28-8-83v-64-60q0-30 1-40 1-10 3-13 2-3 9-6 21-3 49-3h16V0h-8l-23 1q-24 1-51 1-27 0-38 1Q42 3 33 0h-8v46h16z"/></defs><g transform="matrix(.0303 0 0 -.0303 -2.76 18.599)" class="G"><use href="#s"/><use href="#t" x="556"/><use href="#u" x="1112"/><use href="#v" x="1612"/><use href="#w" x="2056"/><use href="#x" x="2500"/><use href="#y" x="3153"/><use href="#z" x="3431"/><use href="#AA" x="3931"/><use href="#AB" x="4487"/><use href="#u" x="4879"/><use href="#AC" x="5379"/><use href="#w" x="5768"/><use href="#AD" x="6212"/><use href="#AA" x="6962"/><use href="#AE" x="7518"/></g></svg></g></svg></g><path d="M9.26 0h331.71M9.26 0h331.71m0 0c6.17 0 9.26 3.09 9.26 9.26M340.97 0c6.17 0 9.26 3.09 9.26 9.26m0 0v18.52m0-18.52v18.52m0 0c0 6.18-3.09 9.26-9.26 9.26m9.26-9.26c0 6.18-3.09 9.26-9.26 9.26m0 0H9.26m331.71 0H9.26m0 0C3.09 37.04 0 33.96 0 27.78m9.26 9.26C3.09 37.04 0 33.96 0 27.78m0 0V9.26m0 18.52V9.26m0 0C0 3.09 3.09 0 9.26 0M0 9.26C0 3.09 3.09 0 9.26 0" transform="translate(44.14 288.31)" class="C D I"/><g transform="matrix(1 0 0 1 61.6228 295.3272)"><svg width="315.27" height="23"><g class="B E"><svg width="30.412ex" height="2.036ex" viewBox="-2.76 -2.76 412.22 27.6" x=".5" y="1.23"><defs><path id="AF" d="M132 622q-7 7-11 9-4 2-16 3-12 1-43 3H29v46h106q86 0 97-1 11-1 17-7 1-1 105-277l104-274 104 274q104 276 106 277 3 6 15 7 12 1 98 1h106v-46h-33q-40-1-51-3-11-2-18-12V61q6-10 17-12 11-2 52-3h33V0h-11q-21 3-140 3-131 0-140-3h-11v46h33q42 1 51 3 9 2 19 12v286q0 77 0 114 0 37 0 85 0 48 0 67l-1 19Q454 14 450 7q-4-6-20-6-16 0-20 6-1 2-118 309L176 624v-18q-1-18-1-63 0-45 0-80 0-35 0-107l1-270q11-36 85-40h17V0h-9q-15 3-115 3Q52 3 37 0h-8v46h17q32 2 52 10 20 8 24 13 4 5 10 17v536z"/><path id="AG" d="M383 58q-56-68-127-68h-7q-125 0-144 99-1 7-2 137-1 109-1 122 0 13-6 21-10 16-60 16H25v23q0 23 2 23l11 1q10 1 29 2 19 1 38 2 17 1 37 2 20 1 30 3 10 2 12 1h3V261q1-184 3-197 3-15 14-24 20-14 60-14 26 0 47 9 21 9 32 23 11 14 20 32 9 18 12 30 3 12 4 24 0 1 0 17 0 16 1 40 1 24 0 47v67q0 46-10 57-10 11-50 13h-18v46q2 0 76 5 74 5 79 6h7V264q0-180 1-183 3-20 14-26 11-6 45-9h18V0q-2 0-75-5-73-5-77-6h-7v69z"/><path id="AH" d="M42 46h14q39 0 47 14v8q0 9 0 23 0 14 0 33 0 19 1 43 1 24 0 50-1 26 0 55 1 29 0 57 0 37 0 78 0 41 0 75 0 34 0 60 0 26-1 44-1 18 0 17-3 19-14 25-11 6-45 9H26v23q0 23 2 23l10 1q10 1 29 2 19 1 37 2 17 1 37 2 20 1 30 3 10 2 11 1h3V379q0-317 1-319 4-8 12-11 21-3 49-3h16V0h-8l-23 1q-23 1-49 1-26 0-38 1-12 1-38 0-26-1-50-2L34 0h-8v46h16z"/><path id="AI" d="M27 422q53 4 82 56 29 52 32 122v15h40V431h135v-46H181V241q1-125 1-141 0-16 7-32 14-39 49-39 44 0 54 71 1 8 1 46v35h40v-35-12q0-77-42-117-27-27-70-27-34 0-59 12-25 12-38 31-13 19-19 35-6 16-7 32-1 7-1 148v137H18v37h9z"/><path id="AJ" d="M69 609q0 28 18 44 18 16 44 16 23-2 40-17 17-15 17-43 0-30-17-45-17-15-42-15-25 0-42 15-17 15-18 45zM247 0q-15 3-104 3-11 0-37 0-26 0-50-2L34 0h-8v46h16q28 0 49 3 9 4 11 11 2 7 2 42v103 88q0 52-2 66-2 14-14 19-14 7-47 7H30v23q0 23 2 23l10 1q10 1 28 2 18 1 36 2 17 1 36 2 19 1 29 3 10 2 11 1h3V62q5-10 12-12 7-2 35-4h23V0h-8z"/><path id="AK" d="M376 495q0 16 0 40 0 24 1 33 0 45-10 56-10 11-51 13h-18v23q0 23 2 23l10 1q10 1 29 2 19 1 37 2 17 1 37 2 20 1 30 3 10 2 11 1h3V390q0-306 1-309 3-20 14-26 11-6 45-9h18V0q-2 0-76-5-74-5-79-6h-7v55l-8-7q-58-48-130-48-77 0-139 61-62 61-62 165 0 100 63 163 63 63 147 64 75 0 132-49v102zm-3-153q-45 63-113 63-49 0-87-36-27-28-34-64-7-36-8-94 0-56 7-91 7-35 35-61 30-33 78-33 71 0 122 77v239z"/><path id="AL" d="M41 46h14q39 0 47 14v8q0 9 0 23 0 14 0 31 0 17 1 39 1 22 0 42 0 31 0 66 0 35-1 59v23q-3 19-14 25-11 6-45 9H25v23q0 23 2 23l10 1q10 1 28 2 18 1 37 2 17 1 36 2 19 1 29 3 10 2 11 1h3v-40q0-38 1-38 1 0 5 5 4 5 12 15 8 10 19 18 11 8 29 19 18 11 38 16 20 5 51 5 15 0 28-2 13-2 23-6 10-4 19-8 9-4 15-9 6-5 11-11 5-6 9-11 4-5 7-11 3-6 4-10 1-4 3-8l2-5 3 4q3 4 6 8 3 4 9 11 6 7 13 13 7 6 15 13 8 7 20 12 12 5 23 10 11 5 26 7 15 2 31 3 126 0 137-113 1-7 1-139v-86q0-38 2-45 2-7 11-10 21-3 49-3h16V0h-8l-23 1q-24 1-51 1-27 0-38 1-103 0-112-3h-8v46h16q61 0 61 16 1 2 1 138-1 135-2 143-6 28-20 42-14 14-24 17-10 3-26 2-45 0-79-34-27-27-34-55-7-28-8-83v-64-60q0-30 1-40 1-10 3-13 2-3 9-6 21-3 49-3h16V0h-8l-24 1q-23 1-50 1-27 0-38 1-103 0-112-3h-8v46h16q61 0 61 16 1 2 1 138-1 135-2 143-6 28-20 42-14 14-24 17-10 3-26 2-45 0-79-34-27-27-34-55-7-28-8-83v-64-60q0-30 1-40 1-10 3-13 2-3 9-6 21-3 49-3h16V0h-8l-23 1q-24 1-51 1-27 0-38 1Q42 3 33 0h-8v46h16z"/><path id="AM" d="M28 218q0 55 20 100 20 45 50 73 30 28 65 42 35 14 66 15 53 0 91-18 38-18 58-50 20-32 28-64 8-32 9-71 0-7-7-14H126v-15q0-148 100-180 20-6 44-6 42 0 72 32 17 17 27 42l10 24q3 3 16 3h3q17 0 17-10 0-4-3-13-19-55-63-87-44-32-99-32-95 0-158 69-63 69-64 160zm305 57q-11 128-95 136h-2q-8 0-16-1-8-1-25-8-17-7-29-21-12-14-23-41-11-27-16-66v-7h206v8z"/><path id="AN" d="M41 46h14q39 0 47 14v8q0 9 0 23 0 14 0 31 0 17 1 39 1 22 0 42 0 31 0 66 0 35-1 59v23q-3 19-14 25-11 6-45 9H25v23q0 23 2 23l10 1q10 1 28 2 18 1 37 2 17 1 36 2 19 1 29 3 10 2 11 1h3v-40q0-38 1-38 1 0 5 5 4 5 12 15 8 10 19 18 11 8 29 19 18 11 38 16 20 5 51 5 114-4 127-113 1-7 1-139v-86q0-38 2-45 2-7 11-10 21-3 49-3h16V0h-8l-24 1q-23 1-50 1-27 0-38 1-103 0-112-3h-8v46h16q61 0 61 16 1 2 1 138-1 135-2 143-6 28-20 42-14 14-24 17-10 3-26 2-45 0-79-34-27-27-34-55-7-28-8-83v-64-60q0-30 1-40 1-10 3-13 2-3 9-6 21-3 49-3h16V0h-8l-23 1q-24 1-51 1-27 0-38 1Q42 3 33 0h-8v46h16z"/><path id="AO" d="M295 316q0 40-27 69-27 29-78 29-36 0-62-13-30-19-30-52-1-5 0-13 1-8 16-24 15-16 43-25 18-5 44-9 26-4 44-9 18-5 32-13 17-8 33-20 16-12 32-41 16-29 17-62 0-62-38-102-38-40-123-41h-8q-52 0-96 36l-8-7-9-9Q71 4 65-1L54-11h-8-4q-3 0-9 6v79 58q0 21 2 25 2 4 10 5h9q12 0 16-4 4-4 5-12 1-8 7-27 6-19 19-42 35-51 97-51 97 0 97 78 0 29-18 47-20 24-83 36-63 12-83 23-36 17-57 46-21 29-21 62 0 39 17 66 17 27 43 40 26 13 50 18 24 5 44 5h11q40 0 70-15l15-8 9 7q10 9 22 17h8 4q3 0 9-6V310l-6-6h-28q-6 6-6 12z"/><path id="AP" d="M28 214q0 95 65 164 65 69 157 70 90 0 155-68 65-68 66-165 0-95-64-160-64-65-157-65-97 0-159 67-62 67-63 157zM250 30q122 0 122 163v32 25q0 22-1 38-1 16-7 38-6 22-16 36-10 14-31 28-21 14-49 20-5 1-16 1-30 0-57-12-43-22-56-61-13-39-13-92v-20q0-96 19-135 32-61 105-61z"/><path id="AQ" d="M137 305T115 305T78 320T63 359Q63 394 97 421T218 448Q291 448 336 416T396 340Q401 326 401 309T402 194V124Q402 76 407 58T428 40Q443 40 448 56T453 109V145H493V106Q492 66 490 59Q481 29 455 12T400 -6T353 12T329 54V58L327 55Q325 52 322 49T314 40T302 29T287 17T269 6T247 -2T221 -8T190 -11Q130 -11 82 20T34 107Q34 128 41 147T68 188T116 225T194 253T304 268H318V290Q318 324 312 340Q290 411 215 411Q197 411 181 410T156 406T148 403Q170 388 170 359Q170 334 154 320ZM126 106Q126 75 150 51T209 26Q247 26 276 49T315 109Q317 116 318 175Q318 233 317 233Q309 233 296 232T251 223T193 203T147 166T126 106Z"/><path id="AR" d="M128 619q-7 7-11 9-4 2-16 3-12 1-43 3H25v46h557v-4q2-6 14-116 12-110 14-116v-4h-40v4q-7 49-9 57-6 37-18 62-12 25-27 38-15 13-39 21-24 8-46 9-22 1-57 2h-40-48q-34 0-42-2-8-2-11-10-1-2-1-131V363h52q3 0 19 0 16 0 24 1 8 1 22 3 14 2 23 6 9 4 17 12 18 18 21 74v21h40V200h-40v21q-3 55-21 75-8 7-18 11-10 4-23 6-13 2-21 3-8 1-24 1-16 0-19 0h-52V189l1-128q7-7 12-9 5-2 25-4 20-2 63-2h27V0h-12q-24 3-166 3Q51 3 36 0H25v46h33q42 1 51 3 9 2 19 12v558z"/><path id="AS" d="M329 409q44 44 100 44 30 0 43-19 13-19 13-38 0-14-9-25-9-11-27-11-33 0-37 30-2 14 3 21 0 1 1 3v1q-28-3-53-22-8-5-8-7 0-1 4-5 4-4 9-12 5-8 11-18 6-10 9-26 3-16 4-33 0-62-49-105-49-43-121-44-50 0-99 28-11-18-11-38 0-35 26-52 9-6 17-6 8 0 72-2 84-1 108-6 61-9 96-41 39-39 39-98 0-67-78-103-60-31-142-31-83 0-143 31-78 35-78 100 0 36 21 60Q71 9 92 18l11 6q-36 31-36 84 0 47 29 85-44 44-44 99 0 63 50 106 50 43 121 44 51 0 95-26l11-7zm-30-66q-5 28-26 44-21 16-52 17-29 0-50-16-21-16-26-45-3-17-3-51 0-44 7-65 7-21 30-35 17-10 43-10 22 0 38 7 16 7 23 18 7 11 11 20 4 9 5 15 3 16 3 50 0 34-3 51zM403-75q0 25-14 41-14 16-41 23-27 7-49 9-22 2-54 2h-27q-67 0-80-6-20-9-31-28-11-19-12-40 0-10 6-23 6-13 21-30 15-17 48-28 33-11 80-12 69 0 111 28 42 28 42 64z"/><path id="AT" d="M36 46h14q39 0 47 14v8q0 9 0 23 0 14 1 31 1 17 0 39-1 22 0 42 0 31 0 66 0 35 0 59l-1 23q-3 19-14 25-11 6-45 9H20v23q0 23 2 23l10 1q10 1 28 2 18 1 36 2 16 1 35 2 19 1 29 3 10 2 11 1h3v-69q39 68 97 68h6q45 0 66-22 21-22 21-46 0-21-13-36-13-15-38-15-25 0-37 16-12 16-13 34 0 9 2 16 2 7 5 12 3 5 3 5-2 2-23-4-16-8-24-15-47-45-47-179v-53q0-13 0-27 0-14 0-26 0-12 1-20 1-8 0-15v-5q1-2 3-4 2-2 5-3 3-1 5-3 2-2 7-2 5 0 7-1 2-1 9-1 7 0 9 0 2 0 10-1 8-1 10 0h31V0h-9q-18 3-127 3Q37 3 28 0h-8v46h16z"/><path id="AU" d="M42 46q32 2 52 10 20 8 24 13 4 5 10 17v548h-4q-10 3-72 3H25v46h207l3-3q2-1 87-126 85-125 171-251l85-125v420q-6 10-10 15-4 5-24 14-20 9-52 10h-17v46h8q15-3 117-3 106 0 115 3h9v-46h-17q-73-4-85-39l-1-296V6l-7-6h-14q-15 0-18 3-3 3-101 147-98 144-199 293-101 149-111 162V345l1-259q11-36 85-40h17V0h-9q-15 3-115 3Q48 3 33 0h-8v46h17z"/></defs><g transform="matrix(.0307 0 0 -.0307 -2.76 18.523)" class="G"><use href="#AF"/><use href="#AG" x="917"/><use href="#AH" x="1473"/><use href="#AI" x="1751"/><use href="#AJ" x="2140"/><use href="#AK" x="2418"/><use href="#AJ" x="2974"/><use href="#AL" x="3252"/><use href="#AM" x="4085"/><use href="#AN" x="4529"/><use href="#AO" x="5085"/><use href="#AJ" x="5479"/><use href="#AP" x="5757"/><use href="#AN" x="6257"/><use href="#AQ" x="6813"/><use href="#AH" x="7313"/><use href="#AR" x="7591"/><use href="#AJ" x="8244"/><use href="#AS" x="8522"/><use href="#AG" x="9022"/><use href="#AT" x="9578"/><use href="#AQ" x="9970"/><use href="#AI" x="10470"/><use href="#AM" x="10859"/><use href="#AU" x="11303"/><use href="#AG" x="12053"/><use href="#AL" x="12609"/></g></svg></g></svg></g><g transform="translate(423.13 57.2)" class="C D H"><path d="M0 0v90.73M0 0v90.73m0 0c0 10.67 5.33 16 16 16m-16-16c0 10.67 5.33 16 16 16m0 0h11.41m-11.41 0h11.41m0 0c10.67 0 16 5.34 16 16m-16-16c10.67 0 16 5.34 16 16m0 0v90.74m0-90.74v90.74"/><use href="#K"/><use href="#L"/></g><g transform="translate(473.56 57.2)" class="C D H"><path d="M0 0v90.56M0 0v90.56m0 0c0 10.67 5.33 16 16 16m-16-16c0 10.67 5.33 16 16 16m0 0h221.46m-221.46 0h221.46m0 0c10.67 0 16 5.33 16 16m-16-16c10.67 0 16 5.33 16 16m0 0v90.56m0-90.56v90.56"/><use href="#K" x="210.05" y="-0.35"/><use href="#L" x="210.05" y="-0.35"/></g><g transform="translate(248.77 57.2)" class="C D H"><path d="M0 0v25.4M0 0v25.4m0 0c0 10.66-5.33 16-16 16m16-16c0 10.66-5.33 16-16 16m0 0h-55.56m55.56 0h-55.56m0 0c-10.66 0-16 5.33-16 16m16-16c-10.66 0-16 5.33-16 16m0 0v25.39m0-25.39v25.39m-7.07-19.45l7.07 19.45m-7.07-19.45l7.07 19.45m7.08-19.45l-7.08 19.45m7.08-19.45l-7.08 19.45"/></g><g transform="translate(282.18 57.2)" class="C D H"><path d="M0 0v68.53M0 0v68.53m0 0c0 5.38 2.69 8.07 8.06 8.07M0 68.53c0 5.38 2.69 8.07 8.06 8.07m0 0c5.38 0 8.07 2.69 8.07 8.06M8.06 76.6c5.38 0 8.07 2.69 8.07 8.06m0 0v68.54m0-68.54v68.54m-8.55-23.5l8.55 23.5m-8.55-23.5l8.55 23.5m8.55-23.5l-8.55 23.5m8.55-23.5l-8.55 23.5"/></g><g transform="translate(377.62 57.2)" class="C D H"><path d="M0 0v102.95M0 0v102.95m0 0c0 6.74-3.37 10.1-10.1 10.1M0 102.95c0 6.74-3.37 10.1-10.1 10.1m0 0c-6.73 0-10.1 3.37-10.1 10.1m10.1-10.1c-6.73 0-10.1 3.37-10.1 10.1m0 0v102.96m0-102.96v102.96m-8.55-23.5l8.55 23.5m-8.55-23.5l8.55 23.5m8.55-23.5l-8.55 23.5m8.55-23.5l-8.55 23.5"/></g><g transform="matrix(1 0 0 1 610.1806 222.6555)"><svg width="64.06" height="23"><g class="B E"><text style="white-space:pre" x="0.5" y="18" class="F J">SymPy</text></g></svg></g><g transform="matrix(1 0 0 1 549.8539 184.4875)"><svg width="66.91" height="23"><g class="B E"><text style="white-space:pre" x="0.5" y="18" class="F J">NumPy</text></g></svg></g><g transform="matrix(1 0 0 1 498.6213 222.7303)"><svg width="86.25" height="23"><g class="B E"><text style="white-space:pre" x="0.5" y="18" class="F J">Matplotlib</text></g></svg></g><path d="M0 0c35.54-2.12 69.57-1.16 156 0m0 0c-.59 15.27-1.9 31.98 0 55m0 0c-33.67-1.04-66.63.62-156 0m0 0C-1.95 33.17 1.56 12.89 0 0" stroke="#846358" stroke-width="1.5" stroke-dasharray="8 9" stroke-opacity=".7" fill-opacity=".7" transform="translate(10 377.03)" class="C D"/><g transform="matrix(1 0 0 1 27.0833 386.1259)"><svg width="121.83" height="36.8"><g font-size="16" fill-opacity=".7" class="B"><text style="white-space:pre" fill="#846358" x="0.5" y="14" class="F">Main Classes in  </text><text style="white-space:pre" fill="#846358" x="15.04" y="32.4" class="F">FigurateNum</text></g></svg></g><g transform="matrix(1 0 0 1 605.1055 368.5987)"><svg width="162.28" height="23"><g class="B E"><text style="white-space:pre" x="0.5" y="18" class="F K">visualize_multidim</text></g></svg></g><g transform="matrix(1 0 0 1 431.6923 365.1073)"><svg width="136.73" height="23"><g class="B E"><text style="white-space:pre" x="0.5" y="18" class="F K">visualize_plane</text></g></svg></g><g transform="matrix(1 0 0 1 522.9689 417.4547)"><svg width="141.17" height="23"><g class="B E"><text style="white-space:pre" x="0.5" y="18" class="F K">visualize_space</text></g></svg></g></svg>