<!-- <svg xmlns="http://www.w3.org/2000/svg" fill="none" viewBox="0 0 36 36">
  <path fill="#000" d="M22.25 4h-8.5a1 1 0 0 0-.96.73l-5.54 19.4a.5.5 0 0 0 .62.62l5.05-1.44a2 2 0 0 0 1.38-1.4l3.22-11.66a.5.5 0 0 1 .96 0l3.22 11.67a2 2 0 0 0 1.38 1.39l5.05 1.44a.5.5 0 0 0 .62-.62l-5.54-19.4a1 1 0 0 0-.96-.73Z"/>
  <path fill="url(#gradient)" d="M18 28a7.63 7.63 0 0 1-5-2c-1.4 2.1-.35 4.35.6 5.55.14.17.41.07.47-.15.44-1.8 2.93-1.22 2.93.6 0 2.28.87 3.4 1.72 3.81.34.16.59-.2.49-.56-.31-1.05-.29-2.46 1.29-3.25 3-1.5 3.17-4.83 2.5-6-.67.67-2.6 2-5 2Z"/>
  <defs>
    <linearGradient id="gradient" x1="16" x2="16" y1="32" y2="24" gradientUnits="userSpaceOnUse">
      <stop stop-color="#000"/>
      <stop offset="1" stop-color="#000" stop-opacity="0"/>
    </linearGradient>
  </defs>
	<style>
    @media (prefers-color-scheme:dark){:root{filter:invert(100%)}}
  </style>
</svg> -->

<svg width="800px" height="800px" viewBox="0 0 32 32" xmlns="http://www.w3.org/2000/svg">

  <defs>

  <style>.cls-1{fill:#f2f2f2;}.cls-2{fill:#2e3192;}.cls-3{fill:#3fa9f5;}</style>

  </defs>

  <title/>

  <g data-name="01" id="_01">

  <circle class="cls-1" cx="16" cy="16" r="13"/>

  <path class="cls-2" d="M16,30A14,14,0,1,1,30,16a1,1,0,0,1-2,0,12,12,0,1,0-.52,3.52,1,1,0,1,1,1.91.58A13.92,13.92,0,0,1,16,30Z"/>

  <polygon class="cls-3" points="13.67 11 13.67 21 20.33 16 13.67 11"/>

  <path class="cls-2" d="M13.67,22a.88.88,0,0,1-.45-.11,1,1,0,0,1-.55-.89V11a1,1,0,0,1,.55-.89,1,1,0,0,1,1,.09l6.66,5a1,1,0,0,1,0,1.6l-6.66,5A1,1,0,0,1,13.67,22Zm1-9v6l4-3Z"/>

  </g>

  </svg>
