<?xml version="1.0" standalone="no"?>
<!DOCTYPE svg PUBLIC "-//W3C//DTD SVG 1.1//EN" "http://www.w3.org/Graphics/SVG/1.1/DTD/svg11.dtd">
<svg version="1.1" xmlns="http://www.w3.org/2000/svg" viewBox="0 0 345.41392921202834 145.87183025043905" width="345.41392921202834" height="145.87183025043905"><!-- svg-source:excalidraw --><metadata></metadata><defs><style class="style-fonts">
      </style></defs><g stroke-linecap="round" transform="translate(9.999999966780592 50.64889808782303) rotate(359.9871585573919 19.695088901352108 19.02228017093873)"><path d="M18.66 -0.32 C22.73 -0.77, 28.45 1.26, 31.89 3.69 C35.32 6.12, 38.44 10.31, 39.29 14.25 C40.13 18.18, 38.94 23.52, 36.98 27.31 C35.02 31.09, 31.31 35.37, 27.52 36.96 C23.72 38.54, 18.26 37.97, 14.23 36.8 C10.19 35.63, 5.58 33.29, 3.3 29.96 C1.02 26.63, 0.06 20.91, 0.53 16.8 C1.01 12.69, 3.05 8.13, 6.17 5.28 C9.29 2.44, 17.08 0.6, 19.26 -0.29 C21.44 -1.17, 19.29 -0.37, 19.23 -0.01 M21.76 0.81 C25.92 0.78, 31.04 2.31, 34.06 5.07 C37.08 7.84, 39.67 13.18, 39.87 17.41 C40.07 21.63, 37.93 27.11, 35.27 30.42 C32.62 33.74, 28.08 36.44, 23.95 37.29 C19.82 38.14, 14.2 37.17, 10.5 35.54 C6.79 33.9, 3.34 31.16, 1.74 27.46 C0.15 23.77, -0.11 17.39, 0.93 13.37 C1.96 9.35, 4.4 5.49, 7.95 3.33 C11.51 1.17, 20.05 0.83, 22.26 0.41 C24.46 -0.01, 21.42 0.52, 21.21 0.82" stroke="none" stroke-width="0" fill="#b2f2bb"></path><path d="M15.23 0.48 C19.15 -0.59, 24.88 0.48, 28.69 2.35 C32.5 4.21, 36.4 7.91, 38.1 11.69 C39.79 15.47, 40.23 21.14, 38.88 25.05 C37.53 28.97, 33.68 33.12, 29.99 35.18 C26.31 37.25, 20.89 37.96, 16.77 37.44 C12.65 36.92, 8.04 35.08, 5.28 32.07 C2.51 29.07, 0.33 23.5, 0.16 19.42 C-0.01 15.34, 1.54 10.79, 4.25 7.58 C6.96 4.37, 14.05 1.42, 16.41 0.15 C18.78 -1.12, 18.35 -0.3, 18.45 -0.05 M21.4 0.47 C25.49 0.74, 31.6 3.56, 34.65 6.4 C37.71 9.25, 39.55 13.59, 39.72 17.55 C39.9 21.5, 38.27 26.9, 35.71 30.15 C33.15 33.41, 28.51 36.09, 24.36 37.08 C20.2 38.07, 14.54 37.74, 10.8 36.09 C7.05 34.43, 3.62 30.96, 1.87 27.15 C0.12 23.35, -0.97 17.27, 0.28 13.23 C1.54 9.2, 5.66 5.18, 9.39 2.94 C13.13 0.69, 20.62 0.16, 22.67 -0.24 C24.71 -0.63, 21.82 0.25, 21.68 0.58" stroke="#1e1e1e" stroke-width="2" fill="none"></path></g><g stroke-linecap="round" transform="translate(94.3522160408508 47.57496195463787) rotate(359.9871585573919 19.695088901352108 19.02228017093873)"><path d="M24.47 1.01 C28.41 1.67, 33.22 4.55, 35.62 7.81 C38.03 11.07, 39.14 16.47, 38.91 20.56 C38.68 24.64, 37.15 29.39, 34.23 32.31 C31.3 35.24, 25.59 37.79, 21.38 38.12 C17.16 38.45, 12.31 36.68, 8.94 34.3 C5.57 31.92, 2.29 27.66, 1.14 23.87 C0 20.08, 0.35 15.26, 2.06 11.58 C3.78 7.9, 7.53 3.65, 11.43 1.8 C15.32 -0.05, 23.1 0.62, 25.44 0.5 C27.78 0.38, 25.61 0.74, 25.47 1.09 M14.53 0.35 C18.44 -0.78, 24.22 0.92, 28.19 2.61 C32.17 4.3, 36.68 7.01, 38.36 10.49 C40.04 13.98, 39.53 19.5, 38.27 23.54 C37.01 27.59, 34.35 32.34, 30.81 34.75 C27.27 37.16, 21.17 38.35, 17.03 38 C12.9 37.65, 8.8 35.68, 5.98 32.66 C3.17 29.64, 0.41 23.96, 0.14 19.88 C-0.14 15.8, 1.96 11.42, 4.32 8.17 C6.67 4.92, 12.62 1.52, 14.27 0.37 C15.93 -0.78, 14.13 0.83, 14.24 1.27" stroke="none" stroke-width="0" fill="#b2f2bb"></path><path d="M17.07 -0.11 C21.1 -0.89, 27.16 0.76, 30.67 2.97 C34.19 5.18, 36.95 9.26, 38.16 13.15 C39.38 17.03, 39.5 22.47, 37.97 26.28 C36.43 30.1, 32.73 34.19, 28.96 36.05 C25.19 37.91, 19.47 38.44, 15.33 37.45 C11.18 36.45, 6.61 33.3, 4.08 30.1 C1.56 26.9, -0.07 22.36, 0.19 18.26 C0.45 14.15, 2.66 8.42, 5.65 5.45 C8.63 2.47, 15.99 1.29, 18.08 0.4 C20.18 -0.5, 18.17 -0.15, 18.23 0.09 M22.23 -0.17 C26.27 0.08, 30.67 3.17, 33.44 6.16 C36.21 9.15, 38.37 13.74, 38.85 17.76 C39.32 21.79, 38.58 27.13, 36.29 30.31 C34.01 33.48, 29.22 35.78, 25.11 36.81 C21 37.84, 15.52 38.18, 11.63 36.49 C7.75 34.8, 3.73 30.32, 1.81 26.67 C-0.11 23.02, -1 18.58, 0.11 14.59 C1.21 10.6, 4.83 5.24, 8.46 2.73 C12.08 0.22, 19.62 -0.13, 21.85 -0.48 C24.08 -0.83, 21.92 0.26, 21.84 0.65" stroke="#1e1e1e" stroke-width="2" fill="none"></path></g><g stroke-linecap="round" transform="translate(27.953518092153615 97.82726987416717) rotate(359.9871585573919 19.695088901352108 19.02228017093873)"><path d="M15.56 0.11 C19.43 -0.96, 25.4 0.48, 29.05 2.5 C32.7 4.52, 35.95 8.45, 37.46 12.22 C38.97 16, 39.26 21.3, 38.11 25.16 C36.96 29.03, 34.08 33.25, 30.55 35.43 C27.02 37.61, 21.21 38.86, 16.93 38.25 C12.66 37.65, 7.74 34.88, 4.89 31.81 C2.05 28.74, -0.01 23.99, -0.13 19.84 C-0.25 15.68, 1.52 10.09, 4.18 6.88 C6.84 3.66, 13.73 1.62, 15.82 0.55 C17.91 -0.53, 16.61 0.06, 16.72 0.41 M23.6 0.56 C27.68 1.17, 32.87 3.67, 35.5 7 C38.14 10.34, 39.59 16.36, 39.41 20.55 C39.22 24.75, 37.37 29.18, 34.38 32.17 C31.38 35.17, 25.63 38.16, 21.42 38.52 C17.21 38.87, 12.6 36.78, 9.13 34.32 C5.66 31.86, 1.81 27.62, 0.61 23.74 C-0.59 19.86, 0.12 14.61, 1.93 11.02 C3.74 7.43, 7.82 3.86, 11.47 2.22 C15.11 0.59, 21.79 1.53, 23.83 1.22 C25.87 0.91, 23.81 0.13, 23.69 0.37" stroke="none" stroke-width="0" fill="#b2f2bb"></path><path d="M15.31 0.88 C19.25 -0.15, 25.2 0.59, 28.97 2.46 C32.73 4.34, 36.36 8.37, 37.89 12.14 C39.43 15.91, 39.41 21.2, 38.18 25.08 C36.94 28.96, 34.12 33.24, 30.5 35.41 C26.88 37.57, 20.64 38.7, 16.45 38.08 C12.26 37.46, 8.15 34.68, 5.36 31.67 C2.56 28.66, -0.11 24.07, -0.33 20.03 C-0.55 16, 1.3 10.81, 4.02 7.48 C6.74 4.15, 13.73 1.25, 15.97 0.07 C18.21 -1.11, 17.36 -0.01, 17.44 0.4 M16.86 0.66 C20.63 -0.22, 25.57 1.03, 29.19 3.05 C32.81 5.07, 37.14 9.1, 38.58 12.8 C40.01 16.49, 39.25 21.4, 37.79 25.21 C36.34 29.01, 33.61 33.47, 29.87 35.61 C26.12 37.75, 19.66 38.74, 15.33 38.03 C10.99 37.33, 6.38 34.6, 3.86 31.38 C1.33 28.17, 0.06 22.81, 0.19 18.73 C0.33 14.64, 2.03 9.83, 4.68 6.87 C7.34 3.91, 14.12 1.98, 16.12 0.98 C18.12 -0.01, 16.57 0.6, 16.69 0.9" stroke="#1e1e1e" stroke-width="2" fill="none"></path></g><g stroke-linecap="round" transform="translate(50.06137650974023 9.999999936487967) rotate(359.9871585573919 19.695088901352108 21)"><path d="M15.52 0.91 C19.36 -0.29, 25.11 0.22, 28.88 2.15 C32.66 4.08, 36.57 8.37, 38.18 12.5 C39.79 16.63, 39.82 22.56, 38.55 26.91 C37.28 31.27, 34.17 36.19, 30.56 38.62 C26.95 41.05, 21.04 42.05, 16.88 41.48 C12.71 40.9, 8.42 38.39, 5.59 35.16 C2.76 31.94, 0.07 26.51, -0.13 22.14 C-0.33 17.76, 1.73 12.58, 4.4 8.9 C7.06 5.22, 13.74 1.44, 15.86 0.05 C17.99 -1.33, 16.99 0.26, 17.13 0.57 M20.11 -0.54 C24.15 -0.75, 30.13 2.41, 33.2 5.41 C36.28 8.42, 38.11 13.03, 38.56 17.49 C39 21.94, 38.01 28.13, 35.87 32.12 C33.72 36.11, 29.5 40.1, 25.67 41.44 C21.83 42.79, 16.61 41.97, 12.86 40.18 C9.11 38.4, 5.35 34.69, 3.18 30.72 C1.01 26.74, -0.89 20.58, -0.16 16.34 C0.58 12.1, 4.27 8.09, 7.6 5.26 C10.93 2.43, 17.8 0.18, 19.83 -0.66 C21.87 -1.49, 19.64 -0.23, 19.79 0.24" stroke="none" stroke-width="0" fill="#b2f2bb"></path><path d="M19.13 0.41 C23.13 -0.06, 28.69 1.19, 32.03 3.94 C35.37 6.7, 38.34 12.49, 39.17 16.91 C40.01 21.33, 38.99 26.59, 37.04 30.48 C35.09 34.38, 31.35 38.58, 27.48 40.29 C23.61 41.99, 17.94 41.97, 13.83 40.69 C9.71 39.42, 5.09 36.43, 2.79 32.64 C0.49 28.84, -0.66 22.54, 0.02 17.95 C0.69 13.36, 3.48 8.03, 6.83 5.1 C10.19 2.17, 17.76 1.08, 20.14 0.35 C22.51 -0.37, 21.18 0.41, 21.08 0.74 M20.89 0.67 C24.9 0.74, 30.52 2.55, 33.65 5.55 C36.77 8.56, 39.24 14.06, 39.65 18.69 C40.07 23.31, 38.63 29.55, 36.14 33.3 C33.65 37.05, 28.8 40.15, 24.71 41.19 C20.62 42.23, 15.29 41.43, 11.6 39.55 C7.91 37.66, 4.33 33.88, 2.56 29.86 C0.78 25.84, -0.12 19.79, 0.97 15.43 C2.06 11.06, 5.7 6.36, 9.1 3.69 C12.5 1.03, 19.28 -0.12, 21.37 -0.55 C23.47 -0.98, 21.68 0.73, 21.68 1.11" stroke="#1e1e1e" stroke-width="2" fill="none"></path></g><g transform="translate(66.64243449287437 21.150757531570463) rotate(359.9871585573919 3.1875 10)"><text x="3.1875" y="14.096" font-family="Excalifont, Xiaolai, sans-serif, Segoe UI Emoji" font-size="16px" fill="#1e1e1e" text-anchor="middle" style="white-space: pre;" direction="ltr" dominant-baseline="alphabetic"></text></g><g stroke-linecap="round" transform="translate(78.88913913359136 97.12666992724743) rotate(359.9871585573919 19.695088901352136 19.02228017093873)"><path d="M17.63 0.17 C21.5 -0.53, 26.61 0.61, 30.14 2.83 C33.68 5.05, 37.61 9.51, 38.85 13.48 C40.09 17.45, 39.23 22.8, 37.56 26.64 C35.9 30.49, 32.72 34.78, 28.88 36.55 C25.04 38.32, 18.78 38.29, 14.53 37.25 C10.28 36.2, 5.79 33.62, 3.37 30.3 C0.96 26.97, -0.31 21.35, 0.04 17.32 C0.4 13.3, 2.38 9.01, 5.5 6.13 C8.63 3.26, 16.52 0.98, 18.81 0.09 C21.09 -0.81, 19.21 0.54, 19.22 0.78 M17.84 0.64 C21.97 0, 27.84 0.97, 31.45 3.19 C35.06 5.4, 38.59 10, 39.5 13.91 C40.41 17.83, 38.81 22.82, 36.9 26.66 C34.99 30.5, 31.85 35.29, 28.05 36.96 C24.25 38.63, 18.26 37.9, 14.11 36.66 C9.96 35.42, 5.37 32.75, 3.16 29.5 C0.95 26.25, 0.24 21.22, 0.83 17.14 C1.42 13.06, 3.9 7.8, 6.71 5.03 C9.52 2.25, 15.78 1.16, 17.68 0.5 C19.57 -0.17, 17.9 0.8, 18.07 1.06" stroke="none" stroke-width="0" fill="#b2f2bb"></path><path d="M23.14 0.06 C27.18 0.44, 32.07 3.06, 34.74 6.24 C37.41 9.43, 39.15 15.06, 39.17 19.16 C39.18 23.25, 37.4 27.78, 34.83 30.82 C32.27 33.85, 27.88 36.51, 23.8 37.38 C19.72 38.24, 14.07 37.89, 10.35 36.01 C6.63 34.14, 3.12 29.95, 1.5 26.13 C-0.11 22.3, -0.71 16.97, 0.67 13.07 C2.04 9.17, 5.98 4.92, 9.73 2.73 C13.48 0.54, 20.74 0.26, 23.16 -0.06 C25.59 -0.38, 24.36 0.39, 24.26 0.8 M16.03 0.21 C19.91 -0.85, 25.82 -0.04, 29.63 1.98 C33.43 4, 37.37 8.47, 38.86 12.35 C40.35 16.23, 39.98 21.42, 38.56 25.24 C37.15 29.07, 34.09 33.33, 30.39 35.32 C26.7 37.3, 20.64 37.7, 16.4 37.15 C12.17 36.61, 7.72 35.1, 4.99 32.03 C2.27 28.97, 0.1 22.88, 0.06 18.78 C0.01 14.68, 2.17 10.41, 4.72 7.44 C7.27 4.46, 13.53 1.97, 15.34 0.93 C17.16 -0.11, 15.33 0.92, 15.59 1.21" stroke="#1e1e1e" stroke-width="2" fill="none"></path></g><g stroke-linecap="round" transform="translate(296.0237514093241 90.58423529755308) rotate(0 19.695088901352108 19.02228017093873)"><path d="M15.35 0.77 C19.21 -0.33, 24.86 0.02, 28.62 1.79 C32.37 3.55, 36.31 7.64, 37.9 11.35 C39.49 15.06, 39.37 20.06, 38.16 24.05 C36.95 28.04, 34.16 32.99, 30.66 35.29 C27.17 37.58, 21.33 38.33, 17.19 37.82 C13.05 37.31, 8.67 35.15, 5.83 32.24 C2.98 29.32, 0.42 24.37, 0.11 20.33 C-0.2 16.29, 1.29 11.35, 3.97 8 C6.65 4.64, 14.05 1.42, 16.18 0.2 C18.3 -1.02, 16.71 0.28, 16.73 0.66 M18.42 -0.54 C22.4 -1.06, 27.67 1.61, 31.11 4 C34.55 6.38, 38.11 9.89, 39.06 13.75 C40 17.61, 38.56 23.38, 36.77 27.16 C34.99 30.93, 32.15 34.63, 28.34 36.41 C24.53 38.19, 18.04 38.87, 13.91 37.85 C9.79 36.83, 5.94 33.8, 3.6 30.27 C1.26 26.74, -0.64 20.9, -0.13 16.67 C0.39 12.44, 3.58 7.6, 6.72 4.89 C9.86 2.19, 16.84 1.26, 18.74 0.45 C20.63 -0.37, 18.08 -0.18, 18.09 0" stroke="none" stroke-width="0" fill="#ffec99"></path><path d="M15.08 -0.04 C19 -1.05, 25.01 0.1, 28.83 2.12 C32.64 4.14, 36.46 8.21, 38 12.08 C39.55 15.94, 39.33 21.41, 38.1 25.3 C36.86 29.2, 34.09 33.36, 30.61 35.47 C27.14 37.58, 21.41 38.65, 17.24 37.98 C13.07 37.3, 8.4 34.43, 5.58 31.41 C2.77 28.39, 0.57 23.8, 0.34 19.86 C0.12 15.92, 1.52 11.09, 4.24 7.77 C6.95 4.44, 14.56 1.06, 16.62 -0.09 C18.68 -1.24, 16.59 0.45, 16.6 0.86 M24.86 1.01 C28.78 1.75, 33.66 4.7, 36.05 7.9 C38.45 11.09, 39.63 16.05, 39.24 20.17 C38.85 24.28, 36.69 29.7, 33.72 32.58 C30.74 35.46, 25.52 37.07, 21.4 37.44 C17.29 37.8, 12.51 37.02, 9.01 34.76 C5.52 32.51, 1.66 27.71, 0.44 23.89 C-0.77 20.07, -0.09 15.6, 1.72 11.86 C3.53 8.12, 7.41 3.36, 11.3 1.45 C15.19 -0.47, 23.02 0.41, 25.07 0.39 C27.12 0.37, 23.78 1, 23.6 1.32" stroke="#1e1e1e" stroke-width="2" fill="none"></path></g><g stroke-linecap="round" transform="translate(262.5739770913023 42.22138137844399) rotate(0 19.695088901352108 19.022280170938743)"><path d="M16.02 0.08 C19.9 -0.97, 25.77 0.27, 29.39 2.22 C33 4.17, 36.2 7.87, 37.72 11.77 C39.23 15.67, 39.84 21.69, 38.5 25.6 C37.15 29.52, 33.21 33.2, 29.64 35.26 C26.07 37.33, 21.19 38.6, 17.06 38.01 C12.93 37.42, 7.71 34.78, 4.87 31.72 C2.04 28.67, 0.05 23.83, 0.04 19.68 C0.03 15.53, 2.03 10.07, 4.83 6.83 C7.62 3.59, 14.77 1.26, 16.83 0.25 C18.89 -0.75, 17.22 0.49, 17.2 0.78 M22.62 0.57 C26.65 0.92, 32.14 2.87, 34.83 5.86 C37.53 8.84, 38.65 14.3, 38.79 18.49 C38.93 22.68, 38.27 27.73, 35.66 31.02 C33.04 34.32, 27.32 37.39, 23.1 38.26 C18.88 39.14, 14.04 38.42, 10.36 36.29 C6.69 34.16, 2.48 29.46, 1.05 25.48 C-0.39 21.49, 0.27 16.1, 1.75 12.37 C3.24 8.64, 6.5 5.19, 9.96 3.09 C13.42 1, 20.34 0.31, 22.51 -0.18 C24.69 -0.67, 23.1 -0.14, 23.01 0.17" stroke="none" stroke-width="0" fill="#ffec99"></path><path d="M15.73 0.31 C19.7 -0.58, 25.52 0.52, 29.18 2.56 C32.83 4.6, 36.07 8.73, 37.67 12.54 C39.27 16.35, 40.03 21.62, 38.78 25.43 C37.54 29.23, 33.77 33.35, 30.18 35.36 C26.59 37.36, 21.4 38.05, 17.24 37.44 C13.09 36.83, 8.12 34.63, 5.26 31.71 C2.41 28.79, 0.21 24.06, 0.12 19.91 C0.02 15.75, 2.09 9.99, 4.71 6.78 C7.33 3.56, 13.84 1.59, 15.86 0.59 C17.87 -0.4, 16.59 0.47, 16.79 0.82 M18.51 0.23 C22.37 -0.43, 27.58 1.02, 30.91 3.4 C34.24 5.79, 37.46 10.7, 38.49 14.56 C39.51 18.43, 38.76 23, 37.05 26.6 C35.34 30.2, 32.02 34.46, 28.21 36.17 C24.41 37.89, 18.31 37.86, 14.21 36.89 C10.12 35.92, 5.91 33.71, 3.62 30.36 C1.32 27.02, -0.04 20.96, 0.44 16.8 C0.93 12.64, 3.71 8.13, 6.53 5.41 C9.35 2.69, 15.43 1.32, 17.37 0.49 C19.31 -0.35, 17.99 0.22, 18.16 0.4" stroke="#1e1e1e" stroke-width="2" fill="none"></path></g><g stroke-linecap="round" transform="translate(238.444232657153 90.91006745172089) rotate(0 19.695088901352108 19.02228017093873)"><path d="M21.37 -0.36 C25.38 -0.28, 30.59 2.69, 33.56 5.68 C36.52 8.68, 38.82 13.51, 39.15 17.6 C39.49 21.7, 38.06 26.97, 35.56 30.26 C33.06 33.55, 28.17 36.41, 24.16 37.34 C20.14 38.27, 15.28 37.6, 11.49 35.84 C7.7 34.09, 3.14 30.49, 1.42 26.81 C-0.29 23.14, -0.05 17.77, 1.22 13.81 C2.49 9.84, 5.5 5.28, 9.05 3.01 C12.59 0.75, 20.24 0.53, 22.51 0.21 C24.78 -0.1, 22.65 0.78, 22.67 1.13 M22.66 0.01 C26.71 0.39, 32.37 3.16, 35.18 6.17 C38 9.18, 39.58 13.98, 39.55 18.06 C39.51 22.14, 37.58 27.48, 34.97 30.63 C32.36 33.78, 28.08 36.15, 23.89 36.96 C19.7 37.77, 13.49 37.26, 9.83 35.49 C6.17 33.73, 3.51 30.19, 1.92 26.37 C0.34 22.56, -0.82 16.46, 0.33 12.58 C1.48 8.71, 5.04 5.26, 8.81 3.11 C12.59 0.97, 20.66 0.21, 23 -0.3 C25.33 -0.82, 22.88 -0.46, 22.85 0.03" stroke="none" stroke-width="0" fill="#ffec99"></path><path d="M22.97 0.28 C26.97 0.76, 31.75 3.53, 34.53 6.67 C37.3 9.8, 39.57 15.05, 39.61 19.11 C39.65 23.16, 37.51 27.82, 34.77 31.01 C32.03 34.19, 27.35 37.48, 23.18 38.22 C19 38.96, 13.42 37.5, 9.71 35.43 C6.01 33.36, 2.35 29.68, 0.93 25.8 C-0.48 21.91, -0.37 15.94, 1.2 12.12 C2.78 8.3, 6.62 4.85, 10.37 2.87 C14.11 0.89, 21.28 0.47, 23.69 0.24 C26.11 0.01, 24.81 1.19, 24.86 1.49 M20.83 0.11 C24.83 0.15, 30.48 1.91, 33.5 4.72 C36.51 7.52, 38.58 12.82, 38.9 16.93 C39.23 21.04, 37.73 25.86, 35.45 29.37 C33.17 32.87, 29.12 36.9, 25.22 37.98 C21.32 39.06, 15.96 37.57, 12.04 35.86 C8.12 34.15, 3.58 31.24, 1.69 27.75 C-0.21 24.25, -0.33 19.03, 0.7 14.89 C1.73 10.74, 4.36 5.3, 7.85 2.89 C11.34 0.48, 19.34 0.77, 21.64 0.43 C23.94 0.08, 21.75 0.68, 21.65 0.83" stroke="#1e1e1e" stroke-width="2" fill="none"></path></g></svg>