<svg xmlns="http://www.w3.org/2000/svg" width="480" height="480" viewBox="0 0 360 360" xmlns:v="https://vecta.io/nano"><style><![CDATA[.B{clip-path:url(#A)}]]></style><g fill="none" stroke="red" stroke-width=".5" stroke-linecap="square"><path d="M184.5 43.2h0m.726.002l22.388 1.939" class="B"/><path d="M185.951 43.208L321.818 162.99" class="B"/><path d="M186.677 43.217l44.772 8.177" class="B"/><path d="M187.403 43.23l34.37 272.064M188.128 43.247L253.8 61.769" class="B"/><path d="M188.854 43.268l8.69 276.516m-7.965-276.491l123.247 190.876" class="B"/><path d="M190.304 43.322l-17.402 276.592" class="B"/><path d="M191.029 43.354l-40.997 272.692" class="B"/><path d="M191.754 43.39l-43.126 272.287" class="B"/><path d="M192.478 43.43l-65.675 264.39" class="B"/><path d="M193.203 43.473L46.993 164.429M193.927 43.521l-88.528 252.09" class="B"/><path d="M194.651 43.572l-11.602-.365m12.325.42L86.495 279.805M196.098 43.686l11.516 1.455" class="B"/><path d="M196.821 43.749L74.101 98.003m123.442-54.188l33.906 7.579" class="B"/><path d="M198.266 43.885l54.274 17.164" class="B"/><path d="M198.988 43.959l54.812 17.81" class="B"/><path d="M199.709 44.037l73.138 30.97" class="B"/><path d="M200.43 44.119l112.395 190.05" class="B"/><path d="M201.151 44.204l89.211 48.136" class="B"/><path d="M201.871 44.293l-51.84 271.753m52.56-271.66l101.94 68.114" class="B"/><path d="M203.31 44.482L126.803 307.82m77.226-263.237l65.42 246.733" class="B"/><path d="M204.747 44.687l-99.348 250.924" class="B"/><path d="M205.465 44.795L87.527 280.826" class="B"/><path d="M206.182 44.906L86.495 279.805" class="B"/><path d="M206.898 45.022L71.523 262.088" class="B"/><path d="M207.614 45.141L74.101 98.003m134.228-52.739L59.091 240.813M209.044 45.39l43.495 15.659" class="B"/><path d="M209.758 45.521L50.623 217.672M210.471 45.655l62.376 29.352" class="B"/><path d="M211.184 45.793L130.79 54.03m81.105-8.096l78.467 46.405" class="B"/><path d="M212.606 46.08l91.193 65.167" class="B"/><path d="M213.317 46.229l91.215 66.271" class="B"/><path d="M214.026 46.381l100.381 87.106" class="B"/><path d="M214.735 46.538l54.714 244.778M215.442 46.698L320.91 157.256" class="B"/><path d="M216.149 46.862L87.527 280.826M216.856 47.03L323.1 181.8" class="B"/><path d="M217.561 47.201L71.523 262.088M218.265 47.376L203.31 319.118" class="B"/><path d="M218.968 47.554L59.091 240.813" class="B"/><path d="M219.671 47.737L51.006 219.072" class="B"/><path d="M220.372 47.923l-169.75 169.75" class="B"/><path d="M221.073 48.112L46.515 194.843" class="B"/><path d="M221.772 48.306L130.79 54.03m91.681-5.527l-176.085 121.7m176.782-121.5l80.631 62.544" class="B"/><path d="M223.865 48.908l-173.242 97.02M224.56 49.116l89.847 84.372" class="B"/><path d="M225.254 49.327l-23.383-5.034m24.076 5.249l94.962 107.714" class="B"/><path d="M226.639 49.761l96.453 130.587" class="B"/><path d="M227.33 49.984L323.1 181.8" class="B"/><path d="M228.019 50.21l93.14 154.705" class="B"/><path d="M228.708 50.439L203.31 319.118m26.085-268.445l85.511 178.077" class="B"/><path d="M230.081 50.909L51.006 219.072M230.766 51.15l73.765 199.95" class="B"/><path d="M231.449 51.394L46.515 194.843M232.131 51.642l-100 258.484" class="B"/><path d="M232.812 51.893L46.386 170.202" class="B"/><path d="M233.492 52.147L50.254 147.332" class="B"/><path d="M234.17 52.406L50.623 145.928" class="B"/><path d="M234.847 52.668L58.48 124.103" class="B"/><path d="M235.522 52.933l-33.651-8.64m34.325 8.909L70.689 102.699m166.18-49.225l86.224 126.874" class="B"/><path d="M237.54 53.75L86.495 83.795M238.21 54.03l82.949 150.884" class="B"/><path d="M238.878 54.313l29.42 17.088" class="B"/><path d="M239.545 54.599l75.361 174.15" class="B"/><path d="M240.21 54.889l65.04 194.95" class="B"/><path d="M240.874 55.183L304.531 251.1" class="B"/><path d="M241.536 55.48l49.757 214.667" class="B"/><path d="M242.197 55.78L132.131 310.126M242.856 56.084l31.105 231.578" class="B"/><path d="M243.513 56.391L50.254 147.332m193.915-90.63l9.631 245.129" class="B"/><path d="M244.823 57.016L58.48 124.103m186.996-66.77L74.985 266.749" class="B"/><path d="M246.126 57.654L70.689 102.699" class="B"/><path d="M246.776 57.979L85.474 84.827" class="B"/><path d="M247.423 58.306L86.495 83.795" class="B"/><path d="M248.069 58.638L104.212 68.823m144.501-9.851l19.585 12.429" class="B"/><path d="M249.355 59.31l-123.868-2.919m124.509 3.26l55.255 190.188" class="B"/><path d="M250.634 59.996L148.628 47.923m102.643 12.421l40.022 209.803M251.906 60.695l60.364 67.395" class="B"/><path d="M252.539 61.05l21.421 226.612" class="B"/><path d="M253.171 61.408l1.883 239.691" class="B"/><path d="M253.8 61.769v240.062" class="B"/><path d="M254.428 62.133l-21.615 249.574" class="B"/><path d="M255.053 62.501L74.985 266.749M255.677 62.872L209.044 318.21" class="B"/><path d="M256.299 63.247L85.474 84.827m171.444-21.203L184.5 320.4" class="B"/><path d="M257.536 64.005l-153.324 4.818m153.94-4.434L47.182 200.61" class="B"/><path d="M258.766 64.776l-133.279-8.385" class="B"/><path d="M259.377 65.167l-112.15-16.861" class="B"/><path d="M259.987 65.56L148.628 47.923" class="B"/><path d="M260.595 65.957l-89.138-22.142M261.2 66.357l51.07 61.733" class="B"/><path d="M261.803 66.76l-65.706-23.074m66.308 23.481l-7.352 233.932" class="B"/><path d="M263.004 67.576l-42.632-19.653m43.229 20.066l-30.789 243.719m31.384-243.304l57.811 130.767" class="B"/><path d="M264.788 68.823L209.044 318.21" class="B"/><path d="M265.379 69.245l-79.427 251.147" class="B"/><path d="M265.967 69.67L184.5 320.4" class="B"/><path d="M266.553 70.098L161.386 318.459" class="B"/><path d="M267.137 70.529L47.182 200.61M267.718 70.964L137.551 312.206" class="B"/><path d="M268.297 71.401l-121.07-23.095m121.647 23.535L115.2 301.831" class="B"/><path d="M269.449 72.285l-97.992-28.469m98.564 28.915l-213.847 56.7" class="B"/><path d="M270.591 73.18l-74.493-29.494" class="B"/><path d="M271.159 73.632l-52.19-26.078" class="B"/><path d="M271.724 74.088l-51.351-26.165" class="B"/><path d="M272.287 74.546l-30.09-18.766m30.65 19.227l49.16 124.164" class="B"/><path d="M273.405 75.471l-9.804-7.482m10.359 7.949l-88.009 244.455m88.562-243.985l7.992 7.387" class="B"/><path d="M275.064 76.88L161.386 318.459M275.612 77.356l19.287 188.241" class="B"/><path d="M276.158 77.835L137.551 312.206" class="B"/><path d="M276.701 78.316L116.461 302.55" class="B"/><path d="M277.242 78.8L115.2 301.831" class="B"/><path d="M277.78 79.287L96.153 288.593" class="B"/><path d="M278.315 79.777L56.174 129.431M278.848 80.27L78.638 271.26" class="B"/><path d="M279.378 80.765l-60.41-33.211m60.938 33.709L64.469 251.1" class="B"/><path d="M280.431 81.764L242.197 55.78m38.757 26.488L99.551 72.285" class="B"/><path d="M281.473 82.774l-17.872-14.785m18.39 15.294l-.517-.509m1.031 1.021h0m.512.514l14.46 17.202" class="B"/><path d="M283.526 84.827l11.373 180.771M284.032 85.346l25.877 37.441" class="B"/><path d="M284.536 85.869L116.461 302.55M285.037 86.394l33.34 59.534" class="B"/><path d="M285.535 86.922L96.153 288.593M286.03 87.452L238.21 309.57" class="B"/><path d="M286.523 87.985L78.638 271.26" class="B"/><path d="M287.013 88.52L65.201 252.353" class="B"/><path d="M287.5 89.058L64.469 251.1" class="B"/><path d="M287.984 89.599L54.593 230.112" class="B"/><path d="M288.465 90.142L99.551 72.285m189.393 18.403L48.09 206.344" class="B"/><path d="M289.42 91.236l-7.946-8.462m8.418 9.013L45.9 181.8m244.462-89.46l7.115 9.172" class="B"/><path d="M290.829 92.895L165.69 44.482m125.603 48.971l18.616 29.334" class="B"/><path d="M291.754 94.013l26.24 50.514" class="B"/><path d="M292.212 94.576l26.165 51.351" class="B"/><path d="M292.668 95.141l29.817 73.615" class="B"/><path d="M293.12 95.709L238.21 309.57m55.359-213.291l29.045 97.119" class="B"/><path d="M294.015 96.851L65.201 252.353M294.459 97.426l23.919 120.247" class="B"/><path d="M294.899 98.003L54.593 230.112m240.743-131.53L167.129 319.307" class="B"/><path d="M295.771 99.163L48.09 206.344" class="B"/><path d="M296.202 99.747L45.908 183.251" class="B"/><path d="M296.63 100.333L45.9 181.8" class="B"/><path d="M297.055 100.921L47.841 158.686" class="B"/><path d="M297.477 101.512L165.69 44.482m132.206 57.622L54.094 134.851m244.217-32.152l19.683 41.829" class="B"/><path d="M298.724 103.296L64.469 112.5m234.664-8.605l23.352 64.861" class="B"/><path d="M299.54 104.497l-62.671-51.022m63.074 51.625l22.671 88.298" class="B"/><path d="M300.343 105.705l18.403 110.563" class="B"/><path d="M300.74 106.313l17.638 111.359" class="B"/><path d="M301.133 106.923l9.387 132.574" class="B"/><path d="M301.524 107.534L167.129 319.307m134.782-211.159l-3.6 152.753" class="B"/><path d="M302.295 108.764L45.908 183.251m256.768-73.869l-20.171 170.423" class="B"/><path d="M303.053 110.001L47.841 158.686m255.587-48.063L100.703 292.199" class="B"/><path d="M303.799 111.247L54.094 134.851" class="B"/><path d="M304.167 111.872L63.75 113.761" class="B"/><path d="M304.531 112.5H64.469" class="B"/><path d="M304.892 113.129L77.707 93.453" class="B"/><path d="M305.25 113.761l-68.382-60.286m68.737 60.919L95.04 75.938m210.916 39.091l12.79 101.239" class="B"/><path d="M306.304 115.666L115.2 61.769m191.449 54.535l3.871 123.192" class="B"/><path d="M306.99 116.945l-12.974-20.094m13.312 20.736l-9.017 143.314" class="B"/><path d="M307.662 118.231l-24.136 160.542" class="B"/><path d="M307.994 118.877l-25.489 160.928" class="B"/><path d="M308.321 119.524l-43.533 175.252" class="B"/><path d="M308.646 120.174L100.703 292.199m208.264-171.375l-65.454 186.385" class="B"/><path d="M309.284 121.477L63.75 113.761m245.848 8.37l-89.226 193.546" class="B"/><path d="M309.909 122.787L77.707 93.453m232.509 29.991L56.73 235.51" class="B"/><path d="M310.52 124.103L95.04 75.938" class="B"/><path d="M310.82 124.764L113.947 62.501" class="B"/><path d="M311.117 125.426L115.2 61.769" class="B"/><path d="M311.411 126.09L136.188 51.893" class="B"/><path d="M311.701 126.755l-17.685-29.904" class="B"/><path d="M311.987 127.422L159.956 45.39m152.314 82.7l-28.744 150.683" class="B"/><path d="M312.55 128.76L184.5 43.2m128.326 86.231l-48.037 165.345m48.309-164.672l8.72 32.886" class="B"/><path d="M313.367 130.778l-69.854 176.431" class="B"/><path d="M313.632 131.453l-91.86 183.841" class="B"/><path d="M313.894 132.13l-93.522 183.547" class="B"/><path d="M314.153 132.808L197.543 319.785" class="B"/><path d="M314.407 133.488L56.73 235.51m257.928-101.341L172.902 319.914" class="B"/><path d="M314.906 134.851l-200.959-72.35m201.203 73.033L148.628 315.677" class="B"/><path d="M315.391 136.219L136.188 51.893m179.439 85.012L46.993 164.429" class="B"/><path d="M315.861 137.592L159.956 45.39" class="B"/><path d="M316.09 138.281L183.049 43.208" class="B"/><path d="M316.316 138.97L184.5 43.2" class="B"/><path d="M316.539 139.661l-108.925-94.52m109.144 95.212l5.06 22.637" class="B"/><path d="M316.973 141.046l-85.524-89.652m85.735 90.346l-95.412 173.554" class="B"/><path d="M317.392 142.435L253.8 61.769m63.797 81.363L197.543 319.785m120.254-175.956l-4.972 90.339" class="B"/><path d="M317.994 144.528L172.902 319.914" class="B"/><path d="M318.188 145.227L150.032 316.046" class="B"/><path d="M318.377 145.928l-169.75 169.75" class="B"/><path d="M318.563 146.629L126.803 307.82" class="B"/><path d="M318.746 147.332L46.993 164.429m271.931-16.394L105.399 295.611" class="B"/><path d="M319.099 148.739L183.049 43.208M319.27 149.444L86.495 279.805" class="B"/><path d="M319.438 150.151L207.614 45.141m111.988 105.717L74.101 98.003" class="B"/><path d="M319.762 151.565L231.449 51.394" class="B"/><path d="M319.919 152.274L252.539 61.05" class="B"/><path d="M320.071 152.983L253.8 61.769" class="B"/><path d="M320.22 153.694l-47.373-78.687m47.519 79.398l-7.54 79.764" class="B"/><path d="M320.507 155.116L290.362 92.34m30.283 63.489L150.032 316.046" class="B"/><path d="M320.779 156.542L304.531 112.5m16.379 44.756L126.803 307.82m194.233-149.849l-51.587 133.345" class="B"/><path d="M321.159 158.686l-215.76 136.925" class="B"/><path d="M321.278 159.402L87.527 280.826" class="B"/><path d="M321.394 160.118L86.495 279.805" class="B"/><path d="M321.505 160.835L71.523 262.088" class="B"/><path d="M321.613 161.553L74.101 98.003m247.616 64.268L59.091 240.813" class="B"/><path d="M321.818 162.99L252.539 61.05m69.375 102.659L50.623 217.672" class="B"/><path d="M322.007 164.429l-49.16-89.422" class="B"/><path d="M322.096 165.149L130.79 54.03" class="B"/><path d="M322.181 165.87l-31.819-73.53" class="B"/><path d="M322.263 166.591l-18.464-55.344" class="B"/><path d="M322.341 167.312l-17.81-54.812" class="B"/><path d="M322.415 168.034l-8.007-34.546m8.077 35.269l-53.036 122.559" class="B"/><path d="M322.551 169.479l-1.642-12.223m1.705 12.946L87.527 280.826m235.146-109.9l.427 10.874" class="B"/><path d="M322.728 171.649L71.523 262.088m251.256-89.715L203.31 319.118" class="B"/><path d="M322.827 173.097L59.091 240.813" class="B"/><path d="M322.87 173.822L51.006 219.072" class="B"/><path d="M322.91 174.546L50.623 217.672" class="B"/><path d="M322.946 175.271L46.515 194.843" class="B"/><path d="M322.978 175.996L130.79 54.03m192.217 122.691l-276.621-6.519" class="B"/><path d="M323.032 177.446l-19.233-66.2m19.254 66.926l-272.43-32.244" class="B"/><path d="M323.07 178.897l-8.662-45.409" class="B"/><path d="M323.083 179.623L201.871 44.293" class="B"/><path d="M323.092 180.349l-2.183-23.093m2.189 23.818l-.006-.726m.008 1.452h0m-.002.726l-1.939 22.388" class="B"/><path d="M323.092 183.251L203.31 319.118m119.773-135.141l-8.177 44.772" class="B"/><path d="M323.07 184.703l-272.064 34.37m272.047-33.645L304.531 251.1" class="B"/><path d="M323.032 186.154l-276.516 8.69m276.491-7.965L132.131 310.126" class="B"/><path d="M322.978 187.604L46.386 170.202" class="B"/><path d="M322.946 188.329L50.254 147.332" class="B"/><path d="M322.91 189.054L50.623 145.928" class="B"/><path d="M322.87 189.778L58.48 124.103" class="B"/><path d="M322.827 190.503L201.871 44.293m120.908 146.934l-252.09-88.528" class="B"/><path d="M322.728 191.951l.365-11.602m-.42 12.325L86.495 83.795m236.119 109.603l-1.455 11.516" class="B"/><path d="M322.551 194.121l-54.254-122.72m54.188 123.442l-7.579 33.906" class="B"/><path d="M322.415 195.566l-17.164 54.274" class="B"/><path d="M322.341 196.288l-17.81 54.812" class="B"/><path d="M322.263 197.009l-30.97 73.138" class="B"/><path d="M322.181 197.73l-190.05 112.395m189.965-111.674l-48.136 89.211" class="B"/><path d="M322.007 199.171l-271.753-51.84m271.66 52.56L253.8 301.831" class="B"/><path d="M321.818 200.61L58.48 124.103m263.237 77.226l-246.733 65.42" class="B"/><path d="M321.613 202.047L70.689 102.699" class="B"/><path d="M321.505 202.765L85.474 84.827" class="B"/><path d="M321.394 203.482L86.495 83.795" class="B"/><path d="M321.278 204.198L104.212 68.823" class="B"/><path d="M321.159 204.914L268.297 71.401m52.739 134.228L125.487 56.391M320.91 206.344l-15.659 43.495" class="B"/><path d="M320.779 207.058L148.628 47.923m172.017 159.848l-29.352 62.376" class="B"/><path d="M320.507 208.484l-8.237-80.393m8.096 81.104l-46.405 78.467" class="B"/><path d="M320.22 209.906l-65.167 91.193" class="B"/><path d="M320.071 210.617L253.8 301.831" class="B"/><path d="M319.919 211.326l-87.106 100.381" class="B"/><path d="M319.762 212.035L74.985 266.749m244.617-54.007L209.044 318.21" class="B"/><path d="M319.438 213.449L85.474 84.827M319.27 214.156L184.5 320.4" class="B"/><path d="M319.099 214.861L104.212 68.823m214.712 146.742L47.182 200.61" class="B"/><path d="M318.746 216.268L125.487 56.391" class="B"/><path d="M318.563 216.971L147.228 48.306" class="B"/><path d="M318.377 217.672l-169.75-169.75" class="B"/><path d="M318.188 218.373L171.457 43.815" class="B"/><path d="M317.994 219.072l-5.724-90.982m5.527 91.681l-121.7-176.085m121.5 176.782l-62.544 80.631" class="B"/><path d="M317.392 221.165l-97.02-173.242m96.812 173.937l-84.372 89.847" class="B"/><path d="M316.973 222.554l5.034-23.383m-5.249 24.076L209.044 318.21" class="B"/><path d="M316.539 223.939l-130.587 96.453" class="B"/><path d="M316.316 224.63L184.5 320.4" class="B"/><path d="M316.09 225.319l-154.705 93.14" class="B"/><path d="M315.861 226.008L47.182 200.61m268.445 26.085L137.55 312.206" class="B"/><path d="M315.391 227.381L147.228 48.306m167.922 179.76L115.2 301.831" class="B"/><path d="M314.906 228.749L171.457 43.815m143.201 185.616l-258.484-100" class="B"/><path d="M314.407 230.112L196.098 43.686" class="B"/><path d="M314.153 230.792L218.968 47.554" class="B"/><path d="M313.894 231.47L220.372 47.923" class="B"/><path d="M313.632 232.147L242.197 55.78" class="B"/><path d="M313.367 232.822l8.64-33.651m-8.909 34.325L263.601 67.989m49.225 166.18l-126.874 86.224" class="B"/><path d="M312.55 234.84L282.505 83.795M312.27 235.51l-150.884 82.949m150.601-82.281l-17.088 29.42" class="B"/><path d="M311.701 236.845l-174.15 75.361" class="B"/><path d="M311.411 237.51l-194.95 65.04" class="B"/><path d="M311.117 238.174L115.2 301.831" class="B"/><path d="M310.82 238.836L96.153 288.593" class="B"/><path d="M310.52 239.497L56.174 129.431m254.042 110.725L78.638 271.26" class="B"/><path d="M309.909 240.813L218.968 47.554m90.63 193.915L64.469 251.1" class="B"/><path d="M309.284 242.123L242.197 55.78m66.77 186.996L99.551 72.285" class="B"/><path d="M308.646 243.426L263.601 67.989" class="B"/><path d="M308.321 244.076L281.473 82.774" class="B"/><path d="M307.994 244.723L282.505 83.795" class="B"/><path d="M307.662 245.369l-10.186-143.857m9.852 144.501l-12.429 19.585" class="B"/><path d="M306.99 246.655l2.919-123.868m-3.26 124.509L116.461 302.55" class="B"/><path d="M306.304 247.934l12.073-102.007m-12.421 102.644L96.153 288.593m209.452-39.387L238.21 309.57" class="B"/><path d="M305.25 249.839L78.638 271.26" class="B"/><path d="M304.892 250.471l-239.691 1.883" class="B"/><path d="M304.531 251.1H64.469" class="B"/><path d="M304.167 251.728L54.593 230.112" class="B"/><path d="M303.799 252.353L99.551 72.285m203.877 180.692L48.09 206.344" class="B"/><path d="M303.053 253.599l-21.58-170.824m21.203 171.443L45.9 181.8" class="B"/><path d="M302.295 254.836l-4.818-153.324m4.434 153.94L165.69 44.482" class="B"/><path d="M301.524 256.066l8.385-133.279" class="B"/><path d="M301.133 256.677l16.861-112.15" class="B"/><path d="M300.74 257.287l17.638-111.359" class="B"/><path d="M300.343 257.895l22.142-89.138M299.943 258.5l-61.733 51.07" class="B"/><path d="M299.54 259.103l23.074-65.706m-23.481 66.308l-233.932-7.352" class="B"/><path d="M298.724 260.304l19.653-42.632m-20.066 43.229L54.593 230.112m243.303 31.384l-130.767 57.811" class="B"/><path d="M297.477 262.088L48.09 206.344" class="B"/><path d="M297.055 262.679L45.908 183.251" class="B"/><path d="M296.63 263.267L45.9 181.8" class="B"/><path d="M296.202 263.853L47.841 158.686" class="B"/><path d="M295.771 264.437L165.69 44.482m129.646 220.536L54.094 134.851" class="B"/><path d="M294.899 265.597l23.095-121.07m-23.535 121.647L64.469 112.5" class="B"/><path d="M294.015 266.749l28.469-97.992m-28.915 98.564l-56.7-213.847" class="B"/><path d="M293.12 267.891l29.494-74.493" class="B"/><path d="M292.668 268.459l26.078-52.19" class="B"/><path d="M292.212 269.024l26.165-51.351" class="B"/><path d="M291.754 269.587l18.766-30.09m-19.227 30.65l-124.164 49.16" class="B"/><path d="M290.829 270.705l7.482-9.804m-7.949 10.359L45.908 183.251m243.984 88.562l-7.387 7.992" class="B"/><path d="M289.42 272.364L47.841 158.686m241.103 114.226l-188.241 19.287" class="B"/><path d="M288.465 273.458L54.094 134.851" class="B"/><path d="M287.984 274.001L63.75 113.761" class="B"/><path d="M287.5 274.542L64.469 112.5" class="B"/><path d="M287.013 275.08L77.707 93.453" class="B"/><path d="M286.523 275.615L236.869 53.474m49.161 222.674L95.04 75.938" class="B"/><path d="M285.535 276.678l33.211-60.41m-33.709 60.938L115.2 61.769" class="B"/><path d="M284.536 277.731l25.984-38.235m-26.488 38.758l9.983-181.402" class="B"/><path d="M283.526 278.773l14.785-17.872m-15.294 18.39l.509-.517m-1.021 1.031h0m-.514.512l-17.202 14.46" class="B"/><path d="M281.473 280.826l-180.771 11.373m180.252-10.867l-37.441 25.877" class="B"/><path d="M280.431 281.836L63.75 113.761m216.156 168.576l-59.534 33.34" class="B"/><path d="M279.378 282.835L77.707 93.453M278.848 283.33L56.73 235.51" class="B"/><path d="M278.315 283.823L95.04 75.938" class="B"/><path d="M277.78 284.313L113.947 62.501" class="B"/><path d="M277.242 284.8L115.2 61.769" class="B"/><path d="M276.701 285.284L136.188 51.893" class="B"/><path d="M276.158 285.765l17.858-188.914m-18.404 189.393L159.956 45.39" class="B"/><path d="M275.064 286.72l8.462-7.946m-9.013 8.418L184.5 43.2m89.46 244.462l-9.172 7.115" class="B"/><path d="M273.405 288.129l48.413-125.139m-48.971 125.603l-29.334 18.616" class="B"/><path d="M272.287 289.054l-50.514 26.24" class="B"/><path d="M271.724 289.512l-51.351 26.165" class="B"/><path d="M271.159 289.968l-73.615 29.817" class="B"/><path d="M270.591 290.42L56.73 235.51m213.291 55.359l-97.119 29.045" class="B"/><path d="M269.449 291.315L113.947 62.501m154.927 229.258l-120.247 23.919" class="B"/><path d="M268.297 292.199L136.188 51.893m131.53 240.743L46.993 164.429" class="B"/><path d="M267.137 293.071L159.956 45.39" class="B"/><path d="M266.553 293.502L183.049 43.208" class="B"/><path d="M265.967 293.93L184.5 43.2" class="B"/><path d="M265.379 294.355L207.614 45.141" class="B"/><path d="M264.788 294.777l57.029-131.787m-57.621 132.206L231.449 51.394m32.152 244.217l-41.829 19.683" class="B"/><path d="M263.004 296.024L253.8 61.769m8.605 234.664l-64.861 23.352" class="B"/><path d="M261.803 296.84l51.022-62.671M261.2 297.243l-88.298 22.671" class="B"/><path d="M260.595 297.643l-110.563 18.403" class="B"/><path d="M259.987 298.04l-111.359 17.638" class="B"/><path d="M259.377 298.433l-132.574 9.387" class="B"/><path d="M258.766 298.824L46.993 164.429m211.159 134.782l-152.753-3.6" class="B"/><path d="M257.536 299.595L183.049 43.208m73.869 256.768L86.495 279.805" class="B"/><path d="M256.299 300.353L207.614 45.141m48.063 255.587L74.101 98.003" class="B"/><path d="M255.053 301.099L231.449 51.394" class="B"/><path d="M254.428 301.467L252.539 61.05" class="B"/><path d="M253.8 301.831V61.769" class="B"/><path d="M253.171 302.192l19.676-227.185" class="B"/><path d="M252.539 302.55l60.286-68.382m-60.919 68.737L290.362 92.34m-39.091 210.916l-101.239 12.79" class="B"/><path d="M250.634 303.604L304.531 112.5m-54.535 191.449l-123.192 3.871" class="B"/><path d="M249.355 304.29l20.094-12.974m-20.736 13.312l-143.314-9.017" class="B"/><path d="M248.069 304.962L87.527 280.826" class="B"/><path d="M247.423 305.294L86.495 279.805" class="B"/><path d="M246.776 305.621L71.523 262.088" class="B"/><path d="M246.126 305.946L74.101 98.003m171.375 208.264L59.091 240.813" class="B"/><path d="M244.823 306.584l7.716-245.534m-8.37 245.848L50.623 217.672" class="B"/><path d="M243.513 307.209l29.334-232.202m-29.991 232.509L130.79 54.03" class="B"/><path d="M242.197 307.82L290.362 92.34" class="B"/><path d="M241.536 308.12l62.263-196.874" class="B"/><path d="M240.874 308.417L304.531 112.5" class="B"/><path d="M240.21 308.711l74.197-175.223" class="B"/><path d="M239.545 309.001l29.904-17.685m-30.571 17.971l82.032-152.031m-82.7 152.314L87.527 280.826" class="B"/><path d="M237.54 309.85L323.1 181.8m-86.231 128.326L71.523 262.088m164.673 48.31l-32.886 8.72" class="B"/><path d="M235.522 310.667L59.091 240.813" class="B"/><path d="M234.847 310.932l-183.841-91.86" class="B"/><path d="M234.17 311.194L50.623 217.672" class="B"/><path d="M233.492 311.453L46.515 194.843" class="B"/><path d="M232.812 311.707L130.79 54.03m101.341 257.928L46.386 170.202" class="B"/><path d="M231.449 312.206l72.35-200.959M230.766 312.45L50.623 145.928" class="B"/><path d="M230.081 312.691l84.326-179.203m-85.012 179.439L201.871 44.293" class="B"/><path d="M228.708 313.161l92.202-155.905" class="B"/><path d="M228.019 313.39l95.073-133.042" class="B"/><path d="M227.33 313.616L323.1 181.8" class="B"/><path d="M226.639 313.839l94.52-108.925m-95.212 109.144l-22.637 5.06" class="B"/><path d="M225.254 314.273l89.652-85.524m-90.346 85.735L51.006 219.072" class="B"/><path d="M223.865 314.692l80.667-63.592m-81.364 63.797L46.515 194.843m175.956 120.254l-90.339-4.972" class="B"/><path d="M221.772 315.294L46.386 170.202" class="B"/><path d="M221.073 315.488L50.254 147.332" class="B"/><path d="M220.372 315.677l-169.75-169.75" class="B"/><path d="M219.671 315.863L58.48 124.103" class="B"/><path d="M218.968 316.046L201.871 44.293m16.394 271.931L70.689 102.699" class="B"/><path d="M217.561 316.399l105.532-136.051M216.856 316.57L86.495 83.795" class="B"/><path d="M216.149 316.738l105.01-111.824M215.442 316.902l52.855-245.501" class="B"/><path d="M214.735 317.062l100.171-88.313" class="B"/><path d="M214.026 317.219l91.224-67.379" class="B"/><path d="M213.317 317.371l91.215-66.271" class="B"/><path d="M212.606 317.52l78.687-47.373m-79.398 47.519l-79.764-7.54" class="B"/><path d="M211.184 317.807l62.777-30.145m-63.49 30.283L50.254 147.332" class="B"/><path d="M209.758 318.079l44.042-16.248m-44.756 16.379L58.48 124.103m149.849 194.233L74.985 266.749" class="B"/><path d="M207.614 318.459L70.689 102.699" class="B"/><path d="M206.898 318.578L85.474 84.827" class="B"/><path d="M206.182 318.694L86.495 83.795" class="B"/><path d="M205.465 318.805L104.212 68.823" class="B"/><path d="M204.747 318.913l63.55-247.512m-64.268 247.616L125.487 56.391" class="B"/><path d="M203.31 319.118l101.94-69.278m-102.659 69.374L148.628 47.923" class="B"/><path d="M201.871 319.307l89.422-49.16m-90.142 49.249L312.27 128.09" class="B"/><path d="M200.43 319.481l73.53-31.819" class="B"/><path d="M199.709 319.563l55.344-18.464" class="B"/><path d="M198.988 319.641l54.812-17.81" class="B"/><path d="M198.266 319.715l34.546-8.007m-35.269 8.077L74.985 266.749" class="B"/><path d="M196.821 319.851l12.223-1.642m-12.946 1.705L85.474 84.827m109.9 235.146l-10.874.427" class="B"/><path d="M194.651 320.028L104.212 68.823m89.715 251.256L47.182 200.61" class="B"/><path d="M193.203 320.127L125.487 56.391" class="B"/><path d="M192.478 320.17L147.228 48.306" class="B"/><path d="M191.754 320.21L148.628 47.923" class="B"/><path d="M191.029 320.246L171.457 43.815" class="B"/><path d="M190.304 320.278L312.27 128.09M189.579 320.307l6.519-276.621" class="B"/><path d="M188.854 320.332l66.2-19.233m-66.926 19.254l32.244-272.43" class="B"/><path d="M187.403 320.37l45.409-8.662m-46.135 8.675l135.33-121.212" class="B"/><path d="M185.951 320.392l23.093-2.183m-23.818 2.189l.726-.006m-1.452.008h0m-.726-.002l-22.388-1.939" class="B"/><path d="M183.049 320.392L47.182 200.61m135.141 119.773l-44.772-8.177" class="B"/><path d="M181.597 320.37l-34.37-272.064m33.645 272.047L115.2 301.831" class="B"/><path d="M180.146 320.332l-8.69-276.516m7.965 276.491L56.174 129.431" class="B"/><path d="M178.696 320.278l17.402-276.592" class="B"/><path d="M177.971 320.246l40.997-272.692" class="B"/><path d="M177.246 320.21l43.126-272.287" class="B"/><path d="M176.522 320.17l65.675-264.39" class="B"/><path d="M175.797 320.127l146.21-120.955M175.073 320.079l88.528-252.09" class="B"/><path d="M174.349 320.028l11.602.365m-12.325-.42L282.505 83.795M172.902 319.914l-11.516-1.455" class="B"/><path d="M172.179 319.851l122.72-54.254m-123.442 54.188l-33.906-7.579" class="B"/><path d="M170.734 319.715l-54.274-17.164" class="B"/><path d="M170.012 319.641l-54.812-17.81" class="B"/><path d="M169.291 319.563l-73.138-30.97" class="B"/><path d="M168.57 319.481L56.174 129.431m111.675 189.965L78.638 271.26" class="B"/><path d="M167.129 319.307l51.84-271.753m-52.56 271.66L64.469 251.1" class="B"/><path d="M165.69 319.118L242.197 55.78m-77.226 263.237L99.551 72.285" class="B"/><path d="M164.253 318.913l99.348-250.924" class="B"/><path d="M163.535 318.805L281.473 82.774" class="B"/><path d="M162.818 318.694L282.505 83.795" class="B"/><path d="M162.102 318.578l135.375-217.067" class="B"/><path d="M161.386 318.459l133.513-52.862m-134.228 52.739l149.238-195.549M159.956 318.21l-43.495-15.659" class="B"/><path d="M159.242 318.079l159.135-172.151M158.529 317.945l-62.376-29.352" class="B"/><path d="M157.816 317.807l80.393-8.237m-81.104 8.096L78.638 271.26" class="B"/><path d="M156.394 317.52l-91.193-65.167" class="B"/><path d="M155.683 317.371L64.469 251.1" class="B"/><path d="M154.974 317.219L54.593 230.112" class="B"/><path d="M154.265 317.062L99.551 72.285m54.007 244.617L48.09 206.344" class="B"/><path d="M152.851 316.738L281.473 82.774M152.144 316.57L45.9 181.8" class="B"/><path d="M151.439 316.399l146.037-214.888M150.735 316.224L165.69 44.482" class="B"/><path d="M150.032 316.046l159.877-193.259" class="B"/><path d="M149.329 315.863l168.665-171.336" class="B"/><path d="M148.628 315.677l169.75-169.75" class="B"/><path d="M147.927 315.488l174.558-146.731" class="B"/><path d="M147.228 315.294l90.982-5.724m-91.681 5.527l176.085-121.7m-176.782 121.5l-80.631-62.544" class="B"/><path d="M145.135 314.692l173.242-97.02M144.44 314.484l-89.847-84.372" class="B"/><path d="M143.746 314.273l23.383 5.034m-24.076-5.249L48.09 206.344" class="B"/><path d="M142.361 313.839L45.908 183.251" class="B"/><path d="M141.67 313.616L45.9 181.8" class="B"/><path d="M140.981 313.39l-93.14-154.705" class="B"/><path d="M140.292 313.161L165.69 44.482m-26.085 268.445L54.094 134.851" class="B"/><path d="M138.919 312.691l179.075-168.163M138.234 312.45L64.469 112.5" class="B"/><path d="M137.551 312.206l184.934-143.449M136.869 311.958l100-258.484" class="B"/><path d="M136.188 311.707l186.426-118.31" class="B"/><path d="M135.508 311.453l183.237-95.184" class="B"/><path d="M134.83 311.194l183.547-93.522" class="B"/><path d="M134.153 310.932l176.367-71.436" class="B"/><path d="M133.478 310.667l33.651 8.64m-34.325-8.909l165.507-49.497m-166.18 49.225L45.908 183.251" class="B"/><path d="M131.46 309.85l151.045-30.045M130.79 309.57L47.841 158.686m82.281 150.601l-29.42-17.088" class="B"/><path d="M129.455 309.001l-75.361-174.15" class="B"/><path d="M128.79 308.711l-65.04-194.95" class="B"/><path d="M128.126 308.417L64.469 112.5" class="B"/><path d="M127.464 308.12L77.707 93.453" class="B"/><path d="M126.803 307.82L236.869 53.474M126.144 307.516L95.04 75.938" class="B"/><path d="M125.487 307.209l193.259-90.941m-193.915 90.63L115.2 61.769" class="B"/><path d="M124.177 306.584l186.343-67.088m-186.996 66.771L294.015 96.851" class="B"/><path d="M122.874 305.946l175.438-45.045" class="B"/><path d="M122.224 305.621l161.302-26.848" class="B"/><path d="M121.577 305.294l160.928-25.489" class="B"/><path d="M120.931 304.962l143.857-10.186m-144.501 9.852l-19.585-12.429" class="B"/><path d="M119.645 304.29l123.868 2.919m-124.509-3.26L63.75 113.761" class="B"/><path d="M118.366 303.604l102.007 12.073m-102.644-12.421L77.707 93.453m39.387 209.452L56.73 235.51" class="B"/><path d="M116.461 302.55L95.04 75.938" class="B"/><path d="M115.829 302.192l-1.883-239.691" class="B"/><path d="M115.2 301.831V61.769" class="B"/><path d="M114.572 301.467l21.615-249.574" class="B"/><path d="M113.947 301.099L294.015 96.851M113.323 300.728L159.956 45.39" class="B"/><path d="M112.701 300.353l170.824-21.58m-171.443 21.203L184.5 43.2" class="B"/><path d="M111.464 299.595l153.324-4.818m-153.94 4.434l210.97-136.221" class="B"/><path d="M110.234 298.824l133.279 8.385" class="B"/><path d="M109.623 298.433l112.15 16.861" class="B"/><path d="M109.013 298.04l111.359 17.638" class="B"/><path d="M108.405 297.643l89.138 22.142M107.8 297.243L56.73 235.51" class="B"/><path d="M107.197 296.84l65.706 23.074m-66.308-23.481l7.352-233.932" class="B"/><path d="M105.996 296.024l42.632 19.653m-43.229-20.066l30.789-243.719m-31.384 243.304L46.993 164.429" class="B"/><path d="M104.212 294.777L159.956 45.39" class="B"/><path d="M103.621 294.355l79.427-251.147" class="B"/><path d="M103.033 293.93L184.5 43.2" class="B"/><path d="M102.447 293.502L207.614 45.141" class="B"/><path d="M101.863 293.071L321.818 162.99M101.282 292.636L231.449 51.394" class="B"/><path d="M100.703 292.199l121.07 23.095m-121.647-23.535L253.8 61.769" class="B"/><path d="M99.551 291.315l97.992 28.469m-98.564-28.915l213.847-56.7" class="B"/><path d="M98.409 290.42l74.493 29.494" class="B"/><path d="M97.841 289.968l52.19 26.078" class="B"/><path d="M97.276 289.512l51.351 26.165" class="B"/><path d="M96.713 289.054l30.09 18.766m-30.65-19.227l-49.16-124.164" class="B"/><path d="M95.595 288.129l9.804 7.482m-10.359-7.949l88.009-244.455M94.487 287.192l-7.992-7.387" class="B"/><path d="M93.936 286.72L207.614 45.141M93.388 286.244L74.101 98.003" class="B"/><path d="M92.842 285.765L231.449 51.394" class="B"/><path d="M92.299 285.284L252.539 61.05" class="B"/><path d="M91.758 284.8L253.8 61.769" class="B"/><path d="M91.22 284.313L272.847 75.007" class="B"/><path d="M90.685 283.823l222.141-49.654M90.152 283.33l200.21-190.99" class="B"/><path d="M89.622 282.835l60.41 33.211m-60.938-33.709L304.531 112.5" class="B"/><path d="M88.569 281.836l38.235 25.984m-38.758-26.488l181.402 9.983" class="B"/><path d="M87.527 280.826l17.872 14.785m-18.39-15.294l.517.509m-1.031-1.021h0m-.512-.514l-14.46-17.202" class="B"/><path d="M85.474 278.773L74.101 98.003m10.867 180.251l-25.877-37.441" class="B"/><path d="M84.464 277.731L252.539 61.05M83.963 277.206l-33.34-59.534" class="B"/><path d="M83.465 276.678L272.847 75.007M82.97 276.148L130.79 54.03" class="B"/><path d="M82.477 275.615L290.362 92.34" class="B"/><path d="M81.987 275.08l221.812-163.833" class="B"/><path d="M81.5 274.542L304.531 112.5" class="B"/><path d="M81.016 274.001l233.391-140.513" class="B"/><path d="M80.535 273.458l188.914 17.858M80.056 272.912L320.91 157.256" class="B"/><path d="M79.58 272.364l7.946 8.462m-8.418-9.013L323.1 181.8M78.638 271.26l-7.115-9.172" class="B"/><path d="M78.171 270.705l125.139 48.413M77.707 270.147l-18.616-29.334" class="B"/><path d="M77.246 269.587l-26.24-50.514" class="B"/><path d="M76.788 269.024l-26.165-51.351" class="B"/><path d="M76.332 268.459l-29.817-73.615" class="B"/><path d="M75.88 267.891L130.79 54.03M75.431 267.321l-29.045-97.119" class="B"/><path d="M74.985 266.749l228.814-155.502M74.541 266.174L50.623 145.928" class="B"/><path d="M74.101 265.597l240.306-132.11M73.664 265.018L201.871 44.293" class="B"/><path d="M73.229 264.437l247.68-107.181" class="B"/><path d="M72.798 263.853l250.294-83.504" class="B"/><path d="M72.37 263.267L323.1 181.8" class="B"/><path d="M71.945 262.679l249.214-57.765" class="B"/><path d="M71.523 262.088l131.787 57.029M71.104 261.496l243.802-32.747M70.689 260.901l-19.683-41.829" class="B"/><path d="M70.276 260.304l234.255-9.204m-234.664 8.605l-23.352-64.861" class="B"/><path d="M69.46 259.103l62.671 51.022M69.057 258.5l-22.671-88.298" class="B"/><path d="M68.657 257.895L50.254 147.332" class="B"/><path d="M68.26 257.287L50.623 145.928" class="B"/><path d="M67.867 256.677L58.48 124.103" class="B"/><path d="M67.476 256.066L201.871 44.293M67.089 255.452l3.6-152.753" class="B"/><path d="M66.705 254.836l256.388-74.487M66.324 254.218L86.495 83.795" class="B"/><path d="M65.947 253.599l255.213-48.684M65.572 252.977L268.297 71.401" class="B"/><path d="M65.201 252.353l249.705-23.604" class="B"/><path d="M64.833 251.728l240.417-1.888" class="B"/><path d="M64.469 251.1h240.062" class="B"/><path d="M64.108 250.471l227.185 19.676" class="B"/><path d="M63.75 249.839l68.382 60.286m-68.737-60.919l210.565 38.456M63.044 248.571l-12.79-101.239" class="B"/><path d="M62.696 247.934L253.8 301.831M62.351 247.296L58.48 124.103" class="B"/><path d="M62.01 246.655l12.974 20.094m-13.312-20.736l9.017-143.314" class="B"/><path d="M61.338 245.369L85.474 84.827" class="B"/><path d="M61.006 244.723L86.495 83.795" class="B"/><path d="M60.679 244.076l43.533-175.252" class="B"/><path d="M60.354 243.426L268.297 71.401M60.033 242.776l65.454-186.385" class="B"/><path d="M59.716 242.123l245.534 7.716m-245.848-8.37l89.226-193.546" class="B"/><path d="M59.091 240.813l232.202 29.334M58.784 240.156L312.27 128.09" class="B"/><path d="M58.48 239.497l215.481 48.166" class="B"/><path d="M58.18 238.836l196.874 62.263" class="B"/><path d="M57.883 238.174L253.8 301.831" class="B"/><path d="M57.589 237.51l175.223 74.197" class="B"/><path d="M57.299 236.845l17.685 29.904m-17.971-30.571l152.031 82.032M56.73 235.51L85.474 84.827" class="B"/><path d="M56.45 234.84L184.5 320.4M56.174 234.169l48.037-165.345M55.902 233.496l-8.72-32.886" class="B"/><path d="M55.633 232.822l69.854-176.431" class="B"/><path d="M55.368 232.147l91.86-183.841" class="B"/><path d="M55.106 231.47l93.522-183.547" class="B"/><path d="M54.847 230.792L171.457 43.815" class="B"/><path d="M54.593 230.112L312.27 128.09M54.342 229.431L196.098 43.686" class="B"/><path d="M54.094 228.749l200.959 72.35M53.85 228.066L220.372 47.923" class="B"/><path d="M53.609 227.381l179.203 84.326M53.373 226.695l268.635-27.524" class="B"/><path d="M53.139 226.008l155.905 92.202" class="B"/><path d="M52.91 225.319l133.042 95.073" class="B"/><path d="M52.684 224.63L184.5 320.4" class="B"/><path d="M52.461 223.939l108.925 94.52M52.242 223.247l-5.06-22.637" class="B"/><path d="M52.027 222.554l85.524 89.652M51.816 221.86l95.412-173.554" class="B"/><path d="M51.608 221.165l63.592 80.667m-63.797-81.364L171.457 43.815M51.203 219.771l4.972-90.339" class="B"/><path d="M51.006 219.072L196.098 43.686" class="B"/><path d="M50.812 218.373L218.968 47.554" class="B"/><path d="M50.623 217.672l169.75-169.75" class="B"/><path d="M50.437 216.971L242.197 55.78" class="B"/><path d="M50.254 216.268l271.753-17.097M50.076 215.565L263.601 67.989" class="B"/><path d="M49.901 214.861l136.051 105.532M49.73 214.156L282.505 83.795" class="B"/><path d="M49.562 213.449l111.824 105.01M49.398 212.742l245.501 52.855" class="B"/><path d="M49.238 212.035l88.313 100.171" class="B"/><path d="M49.081 211.326l67.379 91.224" class="B"/><path d="M48.929 210.617l66.271 91.215" class="B"/><path d="M48.78 209.906l47.373 78.687m-47.519-79.398l7.54-79.764" class="B"/><path d="M48.493 208.484l30.145 62.777m-30.283-63.49L218.968 47.554" class="B"/><path d="M48.221 207.058L64.469 251.1M48.09 206.344L242.197 55.78M47.964 205.629L99.551 72.285" class="B"/><path d="M47.841 204.914l215.76-136.925" class="B"/><path d="M47.722 204.198L281.473 82.774" class="B"/><path d="M47.606 203.482L282.505 83.795" class="B"/><path d="M47.495 202.765l249.982-101.253" class="B"/><path d="M47.387 202.047l247.512 63.55M47.283 201.329l262.626-78.542" class="B"/><path d="M47.182 200.61l69.278 101.94M47.086 199.891l271.292-53.963" class="B"/><path d="M46.993 199.171l49.16 89.422m-49.249-90.142L238.21 309.57" class="B"/><path d="M46.819 197.73l31.819 73.53" class="B"/><path d="M46.737 197.009l18.464 55.344" class="B"/><path d="M46.659 196.288l17.81 54.812" class="B"/><path d="M46.585 195.566l8.007 34.546m-8.077-35.269L99.551 72.285" class="B"/><path d="M46.449 194.121l1.642 12.223m-1.705-12.946L281.473 82.774m-235.146 109.9L45.9 181.8" class="B"/><path d="M46.272 191.951l251.204-90.439M46.221 191.227L165.69 44.482" class="B"/><path d="M46.173 190.503l263.736-67.716" class="B"/><path d="M46.13 189.778l271.865-45.251" class="B"/><path d="M46.09 189.054l272.287-43.126" class="B"/><path d="M46.054 188.329l276.431-19.572" class="B"/><path d="M46.022 187.604L238.21 309.57M45.993 186.879l276.621 6.519" class="B"/><path d="M45.968 186.154l19.233 66.2m-19.254-66.926l272.43 32.244" class="B"/><path d="M45.93 184.703l8.662 45.409m-8.675-46.135l121.212 135.33" class="B"/><path d="M45.908 183.251l2.183 23.093m-2.189-23.818l.006.726M45.9 181.8h0m.002-.726l1.939-22.388" class="B"/><path d="M45.908 180.349L165.69 44.482" class="B"/><path d="M45.917 179.623l8.177-44.772" class="B"/><path d="M45.93 178.897l272.064-34.37M45.947 178.172L64.469 112.5" class="B"/><path d="M45.968 177.446l276.516-8.69m-276.491 7.965L236.869 53.474" class="B"/><path d="M46.022 175.996l276.592 17.402" class="B"/><path d="M46.054 175.271l272.692 40.997" class="B"/><path d="M46.09 174.546l272.287 43.126" class="B"/><path d="M46.13 173.822l264.39 65.675" class="B"/><path d="M46.173 173.097l120.955 146.21M46.221 172.373l252.09 88.528" class="B"/><path d="M46.272 171.649l-.365 11.602m.42-12.325l236.178 108.879M46.386 170.202l1.455-11.516" class="B"/><path d="M46.449 169.479l54.254 122.72M46.515 168.757l7.579-33.906" class="B"/><path d="M46.585 168.034l17.164-54.274" class="B"/><path d="M46.659 167.312l17.81-54.812" class="B"/><path d="M46.737 166.591l30.97-73.138" class="B"/><path d="M46.819 165.87l190.05-112.395" class="B"/><path d="M46.904 165.149L95.04 75.938" class="B"/><path d="M46.993 164.429l271.753 51.84m-271.66-52.56L115.2 61.769" class="B"/><path d="M47.182 162.99l263.338 76.507M47.283 162.271l246.733-65.42" class="B"/><path d="M47.387 161.553l250.924 99.348" class="B"/><path d="M47.495 160.835l236.031 117.938" class="B"/><path d="M47.606 160.118l234.899 119.687" class="B"/><path d="M47.722 159.402l217.067 135.375" class="B"/><path d="M47.841 158.686l52.862 133.513M47.964 157.971l195.549 149.238M48.09 157.256l15.659-43.495" class="B"/><path d="M48.221 156.542l172.151 159.135M48.355 155.829l29.352-62.376" class="B"/><path d="M48.493 155.116l8.237 80.393m-8.096-81.104L95.04 75.938" class="B"/><path d="M48.78 153.694l65.167-91.193" class="B"/><path d="M48.929 152.983L115.2 61.769" class="B"/><path d="M49.081 152.274l87.106-100.381" class="B"/><path d="M49.238 151.565l244.778-54.714M49.398 150.858L159.956 45.39" class="B"/><path d="M49.562 150.151l233.964 128.623M49.73 149.444L184.5 43.2" class="B"/><path d="M49.901 148.739l214.888 146.037M50.076 148.035l271.742 14.955" class="B"/><path d="M50.254 147.332l193.259 159.877" class="B"/><path d="M50.437 146.629l171.336 168.665" class="B"/><path d="M50.623 145.928l169.75 169.75" class="B"/><path d="M50.812 145.227l146.731 174.558" class="B"/><path d="M51.006 144.528l5.724 90.982m-5.527-91.681l121.7 176.085m-121.5-176.782l62.544-80.631" class="B"/><path d="M51.608 142.435l97.02 173.242M51.816 141.74l84.372-89.847" class="B"/><path d="M52.027 141.046l-5.034 23.383m5.249-24.076L159.956 45.39" class="B"/><path d="M52.461 139.661l130.587-96.453" class="B"/><path d="M52.684 138.97L184.5 43.2" class="B"/><path d="M52.91 138.281l154.705-93.14" class="B"/><path d="M53.139 137.592l268.678 25.398M53.373 136.905L231.45 51.394" class="B"/><path d="M53.609 136.219l168.163 179.075M53.85 135.534L253.8 61.769" class="B"/><path d="M54.094 134.851l143.449 184.934M54.342 134.169l258.484 100" class="B"/><path d="M54.593 133.488l118.31 186.426" class="B"/><path d="M54.847 132.808l95.184 183.237" class="B"/><path d="M55.106 132.13l93.522 183.547" class="B"/><path d="M55.368 131.453l71.436 176.367" class="B"/><path d="M55.633 130.778l-8.64 33.651m8.909-34.325l49.497 165.507m-49.225-166.18l126.874-86.224" class="B"/><path d="M56.45 128.76l30.045 151.045M56.73 128.09l150.884-82.949M57.013 127.422l17.088-29.42" class="B"/><path d="M57.299 126.755l174.15-75.361" class="B"/><path d="M57.589 126.09l194.95-65.04" class="B"/><path d="M57.883 125.426L253.8 61.769" class="B"/><path d="M58.18 124.764l214.667-49.757" class="B"/><path d="M58.48 124.103l254.346 110.065M58.784 123.444L290.362 92.34" class="B"/><path d="M59.091 122.787l90.941 193.259m-90.63-193.915l245.129-9.631" class="B"/><path d="M59.716 121.477l67.088 186.343M60.033 120.824l209.416 170.491" class="B"/><path d="M60.354 120.174l45.045 175.438" class="B"/><path d="M60.679 119.524l26.848 161.302" class="B"/><path d="M61.006 118.877l25.489 160.928" class="B"/><path d="M61.338 118.231l10.186 143.857m-9.852-144.501l12.429-19.585" class="B"/><path d="M62.01 116.945l-2.919 123.868m3.26-124.509L252.539 61.05" class="B"/><path d="M62.696 115.666L50.623 217.672m12.421-102.643l209.803-40.022M63.395 114.394L130.79 54.03" class="B"/><path d="M63.75 113.761L290.362 92.34" class="B"/><path d="M64.108 113.129l239.691-1.883" class="B"/><path d="M64.469 112.5h240.062" class="B"/><path d="M64.833 111.872l249.574 21.615" class="B"/><path d="M65.201 111.247l204.248 180.069M65.572 110.623l255.337 46.633" class="B"/><path d="M65.947 110.001l21.58 170.824M66.324 109.382L323.1 181.8" class="B"/><path d="M66.705 108.764l4.818 153.324m-4.434-153.94l136.221 210.97" class="B"/><path d="M67.476 107.534l-8.385 133.279" class="B"/><path d="M67.867 106.923l-16.861 112.15" class="B"/><path d="M68.26 106.313L50.623 217.672" class="B"/><path d="M68.657 105.705l-22.142 89.138M69.057 105.1l61.733-51.07" class="B"/><path d="M69.46 104.497l-23.074 65.706m23.481-66.308l233.932 7.352" class="B"/><path d="M70.276 103.296l-19.653 42.632m20.066-43.229l243.719 30.789M71.104 102.104l130.767-57.811" class="B"/><path d="M71.523 101.512l249.386 55.744" class="B"/><path d="M71.945 100.921l251.147 79.427" class="B"/><path d="M72.37 100.333L323.1 181.8" class="B"/><path d="M72.798 99.747l248.361 105.167" class="B"/><path d="M73.229 99.163L203.31 319.118M73.664 98.582l241.242 130.167" class="B"/><path d="M74.101 98.003l-23.095 121.07M74.541 97.426L304.531 251.1" class="B"/><path d="M74.985 96.851l-28.469 97.992m28.915-98.564l56.7 213.847" class="B"/><path d="M75.88 95.709l-29.494 74.493" class="B"/><path d="M76.332 95.141l-26.078 52.19" class="B"/><path d="M76.788 94.576l-26.165 51.351" class="B"/><path d="M77.246 94.013l-18.766 30.09m19.227-30.65l124.164-49.16" class="B"/><path d="M78.171 92.895l-7.482 9.804m7.949-10.359l244.455 88.009M79.108 91.787l7.387-7.992" class="B"/><path d="M79.58 91.236l241.579 113.678M80.056 90.688l188.241-19.287" class="B"/><path d="M80.535 90.142l234.371 138.607" class="B"/><path d="M81.016 89.599l224.234 160.24" class="B"/><path d="M81.5 89.058L304.531 251.1" class="B"/><path d="M81.987 88.52l209.306 181.626" class="B"/><path d="M82.477 87.985l49.654 222.141M82.97 87.452l190.991 200.21" class="B"/><path d="M83.465 86.922l-33.211 60.41m33.709-60.938L253.8 301.831" class="B"/><path d="M84.464 85.869L58.48 124.103m26.488-38.757l-9.983 181.402" class="B"/><path d="M85.474 84.827l-14.785 17.872m15.294-18.39l-.509.517m1.021-1.031h0m.514-.512l17.202-14.46" class="B"/><path d="M87.527 82.774l180.771-11.373M88.046 82.268l37.441-25.877" class="B"/><path d="M88.569 81.764L305.25 249.839M89.094 81.263l59.534-33.34" class="B"/><path d="M89.622 80.765l201.671 189.382M90.152 80.27l222.118 47.82" class="B"/><path d="M90.685 79.777L273.96 287.662" class="B"/><path d="M91.22 79.287l163.833 221.812" class="B"/><path d="M91.758 78.8L253.8 301.831" class="B"/><path d="M92.299 78.316l140.513 233.391" class="B"/><path d="M92.842 77.835L74.985 266.749M93.388 77.356L209.044 318.21" class="B"/><path d="M93.936 76.88l-8.462 7.946m9.013-8.418L184.5 320.4M95.04 75.938l9.172-7.115" class="B"/><path d="M95.595 75.471L47.182 200.61M96.153 75.007l29.334-18.616" class="B"/><path d="M96.713 74.546l50.514-26.24" class="B"/><path d="M97.276 74.088l51.351-26.165" class="B"/><path d="M97.841 73.632l73.615-29.817" class="B"/><path d="M98.409 73.18l213.861 54.91M98.979 72.731l97.119-29.045" class="B"/><path d="M99.551 72.285l155.502 228.814M100.126 71.841l120.247-23.919" class="B"/><path d="M100.703 71.401l132.11 240.306M101.282 70.964l220.725 128.207" class="B"/><path d="M101.863 70.529l107.181 247.68" class="B"/><path d="M102.447 70.098l83.504 250.294" class="B"/><path d="M103.033 69.67L184.5 320.4" class="B"/><path d="M103.621 69.245l57.765 249.214" class="B"/><path d="M104.212 68.823L47.182 200.61m57.622-132.206l32.747 243.802M105.399 67.989l41.829-19.683" class="B"/><path d="M105.996 67.576l9.204 234.255m-8.605-234.664l64.861-23.352" class="B"/><path d="M107.197 66.76l-51.022 62.671M107.8 66.357l88.298-22.671" class="B"/><path d="M108.405 65.957l110.563-18.403" class="B"/><path d="M109.013 65.56l111.359-17.638" class="B"/><path d="M109.623 65.167l132.574-9.387" class="B"/><path d="M110.234 64.776l211.773 134.395M110.848 64.389l152.753 3.6" class="B"/><path d="M111.464 64.005l74.487 256.388M112.082 63.624l170.423 20.171" class="B"/><path d="M112.701 63.247l48.684 255.213M113.323 62.872l181.576 202.725" class="B"/><path d="M113.947 62.501l23.604 249.705" class="B"/><path d="M114.572 62.133l1.888 240.417" class="B"/><path d="M115.2 61.769v240.062" class="B"/><path d="M115.829 61.408L96.153 288.593" class="B"/><path d="M116.461 61.05l-60.286 68.382m60.919-68.737L78.638 271.26m39.091-210.916l101.239-12.79" class="B"/><path d="M118.366 59.996L64.469 251.1m54.535-191.449l123.192-3.871" class="B"/><path d="M119.645 59.31L99.551 72.285m20.736-13.313l143.314 9.017" class="B"/><path d="M120.931 58.638l160.542 24.136" class="B"/><path d="M121.577 58.306l160.928 25.489" class="B"/><path d="M122.224 57.979l175.252 43.533" class="B"/><path d="M122.874 57.654l172.025 207.943M123.524 57.333l186.385 65.454" class="B"/><path d="M124.177 57.016l-7.716 245.534m8.37-245.848l193.546 89.226" class="B"/><path d="M125.487 56.391L96.153 288.593m29.991-232.509L238.21 309.57" class="B"/><path d="M126.803 55.78L78.638 271.26" class="B"/><path d="M127.464 55.48L65.201 252.353" class="B"/><path d="M128.126 55.183L64.469 251.1" class="B"/><path d="M128.79 54.889L54.593 230.112" class="B"/><path d="M129.455 54.599L99.551 72.285" class="B"/><path d="M130.122 54.313L48.09 206.344m82.7-152.314l150.683 28.744" class="B"/><path d="M131.46 53.75L45.9 181.8m86.231-128.326l165.345 48.037M132.804 53.202l32.886-8.72" class="B"/><path d="M133.478 52.933l176.431 69.854" class="B"/><path d="M134.153 52.668l183.841 91.86" class="B"/><path d="M134.83 52.406l183.547 93.522" class="B"/><path d="M135.508 52.147l186.977 116.609" class="B"/><path d="M136.188 51.893L238.21 309.57M136.869 51.642l185.745 141.756" class="B"/><path d="M137.551 51.394l-72.35 200.959M138.234 51.15l180.143 166.522" class="B"/><path d="M138.919 50.909L54.593 230.112m85.012-179.439l27.524 268.635" class="B"/><path d="M140.292 50.439L48.09 206.344" class="B"/><path d="M140.981 50.21L45.908 183.251" class="B"/><path d="M141.67 49.984L45.9 181.8" class="B"/><path d="M142.361 49.761l-94.52 108.925m95.212-109.144l22.637-5.06" class="B"/><path d="M143.746 49.327l-89.652 85.524m90.346-85.735l173.554 95.412" class="B"/><path d="M145.135 48.908L64.469 112.5m81.363-63.797l176.653 120.053M146.529 48.503l90.339 4.972" class="B"/><path d="M147.228 48.306l175.386 145.092" class="B"/><path d="M147.927 48.112l170.818 168.156" class="B"/><path d="M148.628 47.923l169.75 169.75" class="B"/><path d="M149.329 47.737l161.191 191.76" class="B"/><path d="M150.032 47.554l17.097 271.753M150.735 47.376l147.576 213.525" class="B"/><path d="M151.439 47.201L45.908 183.251M152.144 47.03l130.361 232.775" class="B"/><path d="M152.851 46.862L47.841 158.686M153.558 46.698l-52.855 245.501" class="B"/><path d="M154.265 46.538L54.094 134.851" class="B"/><path d="M154.974 46.381L63.75 113.761" class="B"/><path d="M155.683 46.229L64.469 112.5" class="B"/><path d="M156.394 46.08L77.707 93.453m79.398-47.519l79.764 7.54" class="B"/><path d="M157.816 45.793L95.04 75.938m63.489-30.283l160.217 170.613" class="B"/><path d="M159.242 45.521L115.2 61.769m44.756-16.379L310.52 239.497M160.671 45.264l133.345 51.587" class="B"/><path d="M161.386 45.141l136.925 215.76" class="B"/><path d="M162.102 45.022l121.424 233.752" class="B"/><path d="M162.818 44.906l119.687 234.899" class="B"/><path d="M163.535 44.795l101.253 249.982" class="B"/><path d="M164.253 44.687l-63.55 247.512m64.268-247.616l78.542 262.626" class="B"/><path d="M165.69 44.482L63.75 113.761m102.659-69.375l53.963 271.292" class="B"/><path d="M167.129 44.293l-89.422 49.16" class="B"/><path d="M167.849 44.204L56.73 235.51" class="B"/><path d="M168.57 44.119L95.04 75.938" class="B"/><path d="M169.291 44.037l-55.344 18.464" class="B"/><path d="M170.012 43.959L115.2 61.769" class="B"/><path d="M170.734 43.885l-34.546 8.007m35.269-8.077l122.559 53.036" class="B"/><path d="M172.179 43.749l-12.223 1.642m12.946-1.705l110.624 235.087m-109.9-235.146L184.5 43.2" class="B"/><path d="M174.349 43.572l90.439 251.204M175.073 43.521L321.818 162.99" class="B"/><path d="M175.797 43.473l67.716 263.736" class="B"/><path d="M176.522 43.43l45.251 271.865" class="B"/><path d="M177.246 43.39l43.126 272.287" class="B"/><path d="M177.971 43.354l19.572 276.431" class="B"/><path d="M178.696 43.322L56.73 235.51M179.421 43.293l-6.519 276.621" class="B"/><path d="M180.146 43.268l-66.2 19.233m66.926-19.254l-32.244 272.43" class="B"/><path d="M181.597 43.23l-45.409 8.662" class="B"/><path d="M182.323 43.217L46.993 164.429" class="B"/><path d="M183.049 43.208l-23.093 2.183m23.818-2.189l-.726.006" class="B"/></g><defs><clipPath id="A"><path d="M323.1 181.8c0-18.201-3.585-36.225-10.55-53.04s-17.175-32.095-30.045-44.965-28.15-23.08-44.965-30.045S202.701 43.2 184.5 43.2s-36.225 3.585-53.04 10.55-32.095 17.175-44.965 30.045-23.08 28.15-30.045 44.965S45.9 163.599 45.9 181.8s3.585 36.225 10.55 53.04 17.175 32.095 30.045 44.965 28.15 23.08 44.965 30.045 34.839 10.55 53.04 10.55 36.225-3.585 53.04-10.55 32.095-17.175 44.965-30.045 23.08-28.15 30.045-44.965 10.55-34.839 10.55-53.04m-138.6 0z"/></clipPath></defs></svg>