<svg xmlns="http://www.w3.org/2000/svg" width="480" height="480" viewBox="0 0 360 360" xmlns:v="https://vecta.io/nano"><style><![CDATA[.B{clip-path:url(#A)}]]></style><g fill="none" stroke="#bf00bf" stroke-width=".5" stroke-linecap="square"><path d="M184.5 43.2h0m1.237.006l9.884.441" class="B"/><path d="M186.974 43.222l57.344 13.551" class="B"/><path d="M188.211 43.25l134.84 142.261" class="B"/><path d="M189.447 43.288L50.205 216.077M190.683 43.338L60.012 242.731M191.918 43.399l-14.837 276.803" class="B"/><path d="M193.153 43.47L55.076 231.393" class="B"/><path d="M194.388 43.553L86.495 83.795" class="B"/><path d="M195.621 43.647l-100.946 32.6m102.179-32.495L46.452 169.446" class="B"/><path d="M198.085 43.867L46.567 168.215M199.316 43.994l64.231 251.655" class="B"/><path d="M200.545 44.132l17.032 272.263" class="B"/><path d="M201.773 44.281h0m1.227.159l2.449 274.368" class="B"/><path d="M204.225 44.611l-77.301 263.264m78.524-263.083l61.118 248.7" class="B"/><path d="M206.67 44.985l14.498 270.477" class="B"/><path d="M207.891 45.188L77.361 269.727M209.109 45.402l111.789 161.007" class="B"/><path d="M210.325 45.627l88.725 58.145" class="B"/><path d="M211.54 45.863l-54.08 271.874M212.752 46.11l92.797 68.183" class="B"/><path d="M213.962 46.367l81.493 218.492" class="B"/><path d="M215.169 46.636L110.611 64.538m105.763-17.623l106.527 127.467" class="B"/><path d="M217.577 47.205l86.748 204.252" class="B"/><path d="M218.777 47.505L50.205 147.523" class="B"/><path d="M219.974 47.817L71.361 101.74m149.807-53.602l40.334 248.903" class="B"/><path d="M222.36 48.471h0m1.188.343h0m1.185.354l25.102 254.866" class="B"/><path d="M225.916 49.532l-96.733 5.185m97.911-4.81l50.941 29.613" class="B"/><path d="M228.27 50.293l87.737 175.277" class="B"/><path d="M229.442 50.689L82.221 275.335M230.61 51.095l34.956 18.285" class="B"/><path d="M231.775 51.512l-94.55 260.577" class="B"/><path d="M232.936 51.939L46.253 191.688m187.84-139.312l83.039 169.657" class="B"/><path d="M235.246 52.824l-179.722 78.23" class="B"/><path d="M236.395 53.282L55.982 129.905" class="B"/><path d="M237.54 53.75L56.45 128.76m182.231-74.531l69.2 190.715" class="B"/><path d="M239.817 54.717L91.881 78.69m149.068-23.474h0m1.128.509l-77.301 263.264" class="B"/><path d="M243.199 56.244L175.847 43.47m68.471 13.303l65.21 184.845" class="B"/><path d="M245.431 57.312L180.789 320.35" class="B"/><path d="M246.54 57.86L56.45 234.84M247.643 58.419l68.749 80.787" class="B"/><path d="M248.742 58.987L120.258 304.613" class="B"/><path d="M249.836 59.566L119.164 304.034m131.76-243.88l69.009 92.185" class="B"/><path d="M252.007 60.751l-204.515 100.1" class="B"/><path d="M253.085 61.359L64.059 113.215m190.098-51.239l64.938 152.901" class="B"/><path d="M255.223 62.602l23.721 220.639" class="B"/><path d="M256.284 63.238L49.905 214.877M257.34 63.883l64.68 135.19" class="B"/><path d="M258.389 64.538l-33.656 249.894m34.7-249.23h0" class="B"/><path d="M260.47 65.876L212.752 317.49m48.75-250.932l38.24 192.244" class="B"/><path d="M262.527 67.25l-94.072-23.118m95.092 23.819l40.151 43.125" class="B"/><path d="M264.56 68.661l56.552 89.748" class="B"/><path d="M265.566 69.38L230.61 51.095m35.956 19.013l28.143 27.645" class="B"/><path d="M267.56 70.845l-166.12 221.91M268.547 71.591l33.215 36.32" class="B"/><path d="M269.527 72.345l50.91 82.415" class="B"/><path d="M270.501 73.108L75.808 95.799" class="B"/><path d="M271.467 73.88L76.58 94.833m195.847-20.172L46.567 195.385" class="B"/><path d="M273.38 75.45L45.922 184.274" class="B"/><path d="M274.325 76.247L125.801 56.244m149.463 20.809h0" class="B"/><path d="M276.195 77.867l-138.97-26.356M277.119 78.69L111.66 63.883m166.375 15.638l8.744 195.815" class="B"/><path d="M278.945 80.359L140.73 313.307" class="B"/><path d="M279.846 81.206L96.573 288.939" class="B"/><path d="M280.74 82.061L88.26 281.539" class="B"/><path d="M281.626 82.924L87.374 280.676" class="B"/><path d="M282.505 83.795l-196.01 196.01" class="B"/><path d="M283.376 84.674L78.947 271.625" class="B"/><path d="M284.239 85.56L53.795 227.91" class="B"/><path d="M285.094 86.454l-195.94-5.248m196.787 6.149l17.757 165.168M286.779 88.265l28.832 138.477M287.61 89.181h0" class="B"/><path d="M288.433 90.105l22.651 148.144" class="B"/><path d="M289.247 91.036L184.5 320.4" class="B"/><path d="M290.053 91.975L173.379 319.953M290.85 92.92l-17.47 195.23" class="B"/><path d="M291.639 93.873l-19.212 195.066" class="B"/><path d="M292.42 94.833l-83.311-49.431" class="B"/><path d="M293.192 95.799l-36.907-32.561m37.67 33.535L75.045 266.827" class="B"/><path d="M294.709 97.753l-28.143-27.645m28.889 28.632l18.906 34.624" class="B"/><path d="M296.192 99.734l-90.743-54.941" class="B"/><path d="M296.92 100.734l-43.835-39.375m44.554 40.381l24.794 93.645" class="B"/><path d="M298.349 102.753L105.453 67.951m193.597 35.822L48.327 155.975m251.415-51.177h0" class="B"/><path d="M300.424 105.83L51.171 143.94" class="B"/><path d="M301.098 106.867L164.775 44.611m136.987 63.3L153.831 316.964" class="B"/><path d="M302.417 108.96L81.39 89.181" class="B"/><path d="M303.062 110.016L149.026 47.817m154.672 63.26l-48.475 189.921" class="B"/><path d="M304.324 112.143l-96.434 206.269" class="B"/><path d="M304.941 113.215L211.54 45.863m94.009 68.43L63.451 249.307" class="B"/><path d="M306.146 115.376L62.854 248.224" class="B"/><path d="M306.734 116.464l-82.001-67.296m82.58 68.39L133.754 310.776" class="B"/><path d="M307.881 118.657L46.038 187.983" class="B"/><path d="M308.44 119.76l-185.98-61.9m186.528 63.009l13.974 67.114" class="B"/><path d="M309.527 121.982L47.685 203.97m262.371-80.869h0m.519 1.122l-21.328 148.34" class="B"/><path d="M311.084 125.351l-191.92-65.785m192.419 66.917l-71.766 182.4" class="B"/><path d="M312.071 127.619l-73.391 181.752" class="B"/><path d="M312.55 128.76l-75.01 181.09" class="B"/><path d="M313.018 129.905L141.906 49.907m171.57 81.147L177.082 320.201" class="B"/><path d="M313.924 132.207L55.076 231.393" class="B"/><path d="M314.361 133.364L295.455 98.74m19.333 35.785L92.805 285.733" class="B"/><path d="M315.205 135.69L138.39 51.095" class="B"/><path d="M315.611 136.858l-30.518-50.404m30.914 51.576l-3.458 96.81" class="B"/><path d="M316.393 139.206L61.119 118.657m255.649 21.727h0m.364 1.183h0" class="B"/><path d="M317.486 142.752L67.902 106.867m249.927 37.073l-51.263 149.552" class="B"/><path d="M318.162 145.132l-96.993 170.33" class="B"/><path d="M318.483 146.326L112.716 63.238" class="B"/><path d="M318.795 147.523L189.447 43.288m129.648 105.435l-16.033 104.861" class="B"/><path d="M319.385 149.926L99.473 72.345" class="B"/><path d="M319.664 151.131l-69.829-91.565m70.098 92.772L49.067 211.262" class="B"/><path d="M320.19 153.548l-59.72-87.673" class="B"/><path d="M320.437 154.76L157.46 45.863m163.213 110.112L98.499 290.492" class="B"/><path d="M320.898 157.191l-270.693-9.668" class="B"/><path d="M321.112 158.409L71.361 101.74m249.954 57.89L59.473 241.618" class="B"/><path d="M321.508 160.852L47.14 163.3m274.549-1.225h0" class="B"/><path d="M321.86 163.3L49.336 151.131" class="B"/><path d="M322.019 164.527L69.258 104.798m252.91 60.957L200.545 319.468" class="B"/><path d="M322.306 166.984l-122.99 152.622m123.117-151.391L291.64 269.727" class="B"/><path d="M322.548 169.446l-38.31 108.594" class="B"/><path d="M322.653 170.679L137.225 312.088" class="B"/><path d="M322.747 171.912L46.253 191.688m276.577-18.541L125.801 307.356m197.1-132.974L152.626 316.685" class="B"/><path d="M322.962 175.617L178.317 43.338" class="B"/><path d="M323.012 176.853L308.44 119.76" class="B"/><path d="M323.05 178.089l-.618-9.875m.646 11.112h0m.016 1.237h0m.006 1.237h0m-.006 1.237l-.441 9.884" class="B"/><path d="M323.078 184.274l-13.551 57.344" class="B"/><path d="M323.05 185.511L180.789 320.35" class="B"/><path d="M323.012 186.747L150.223 47.505m172.739 140.478L123.569 57.312m199.332 131.906L46.099 174.382" class="B"/><path d="M322.83 190.453L134.907 52.376" class="B"/><path d="M322.747 191.688L282.505 83.795" class="B"/><path d="M322.653 192.921l-32.6-100.946m32.495 102.179L196.854 43.752" class="B"/><path d="M322.433 195.385L198.085 43.867m124.221 152.749L70.651 260.847" class="B"/><path d="M322.168 197.845L49.905 214.877m272.114-15.804h0" class="B"/><path d="M321.86 200.3l-274.368 2.449" class="B"/><path d="M321.689 201.525L58.425 124.223m263.083 78.525l-248.7 61.118" class="B"/><path d="M321.315 203.97L50.838 218.468" class="B"/><path d="M321.112 205.191L96.573 74.661m224.325 131.748L159.891 318.198m160.782-110.573l-58.145 88.725" class="B"/><path d="M320.437 208.84L48.563 154.76m271.627 55.292l-68.183 92.797" class="B"/><path d="M319.933 211.262L101.44 292.755" class="B"/><path d="M319.664 212.469l-17.902-104.558m17.623 105.763L191.918 320.201" class="B"/><path d="M319.095 214.877l-204.252 86.748" class="B"/><path d="M318.795 216.077L218.777 47.505" class="B"/><path d="M318.483 217.274L264.56 68.661m53.602 149.807L69.258 258.802m248.571-39.142h0m-.343 1.188h0" class="B"/><path d="M317.132 222.033L62.266 247.136" class="B"/><path d="M316.768 223.216l-5.185-96.733m4.81 97.911l-29.613 50.941" class="B"/><path d="M316.007 225.57L140.73 313.307" class="B"/><path d="M315.611 226.742L90.965 79.521m224.24 148.389l-18.285 34.956" class="B"/><path d="M314.788 229.075l-260.577-94.55" class="B"/><path d="M314.361 230.236L174.612 43.553m139.312 187.84l-169.657 83.039" class="B"/><path d="M313.476 232.546l-78.23-179.722" class="B"/><path d="M313.018 233.695L236.395 53.282" class="B"/><path d="M312.55 234.84L237.54 53.75m74.531 182.231l-190.715 69.2" class="B"/><path d="M311.583 237.117L287.61 89.181m23.474 149.068h0m-.509 1.128L47.311 162.075" class="B"/><path d="M310.056 240.499l12.773-67.353m-13.302 68.472l-184.845 65.21" class="B"/><path d="M308.988 242.731L45.95 178.089" class="B"/><path d="M308.44 243.84L131.46 53.75m176.421 191.193l-80.787 68.749" class="B"/><path d="M307.313 246.042L61.687 117.558" class="B"/><path d="M306.734 247.136L62.266 116.464m243.88 131.76l-92.185 69.009" class="B"/><path d="M305.549 249.307l-100.1-204.515" class="B"/><path d="M304.941 250.385L253.085 61.359m51.239 190.098l-152.901 64.938" class="B"/><path d="M303.698 252.523L83.059 276.245" class="B"/><path d="M303.062 253.584L151.423 47.205M302.417 254.64l-135.19 64.68" class="B"/><path d="M301.762 255.689L51.868 222.033m249.23 34.7h0" class="B"/><path d="M300.424 257.77L48.81 210.052m250.932 48.75l-192.244 38.24" class="B"/><path d="M299.05 259.827l23.118-94.072m-23.819 95.092l-43.125 40.151" class="B"/><path d="M297.639 261.86l-89.748 56.552" class="B"/><path d="M296.92 262.866l18.285-34.956m-19.013 35.956l-27.645 28.143" class="B"/><path d="M295.455 264.86L73.545 98.74m221.164 167.107l-36.32 33.215" class="B"/><path d="M293.955 266.827l-82.415 50.91" class="B"/><path d="M293.192 267.801L270.501 73.108" class="B"/><path d="M292.42 268.767L271.467 73.88m20.172 195.847L170.915 43.867" class="B"/><path d="M290.85 270.68L182.026 43.222" class="B"/><path d="M290.053 271.625L310.056 123.1m-20.809 149.464h0" class="B"/><path d="M288.433 273.495l26.356-138.97M287.61 274.419l14.806-165.459m-15.637 166.375l-195.815 8.744" class="B"/><path d="M285.941 276.245L52.993 138.03" class="B"/><path d="M285.094 277.146L77.361 93.873" class="B"/><path d="M284.239 278.04L84.761 85.56" class="B"/><path d="M283.376 278.926L85.624 84.674" class="B"/><path d="M282.505 279.805L86.495 83.795" class="B"/><path d="M281.626 280.676L94.675 76.247" class="B"/><path d="M280.74 281.539L138.39 51.095" class="B"/><path d="M279.846 282.394l5.248-195.94m-6.149 196.787l-165.168 17.757m164.258-16.919l-138.477 28.832m137.561-28.001h0" class="B"/><path d="M276.195 285.733l-148.144 22.651" class="B"/><path d="M275.264 286.547L45.9 181.8" class="B"/><path d="M274.325 287.353L46.347 170.679M273.38 288.15L78.15 270.68" class="B"/><path d="M272.427 288.939L77.361 269.727" class="B"/><path d="M271.467 289.72l49.431-83.311" class="B"/><path d="M270.501 290.492l32.561-36.907m-33.535 37.67L99.473 72.345" class="B"/><path d="M268.547 292.009l27.645-28.143m-28.632 28.889l-34.624 18.906" class="B"/><path d="M266.566 293.492l54.941-90.743" class="B"/><path d="M265.566 294.22l39.375-43.835m-40.381 44.554l-93.645 24.794" class="B"/><path d="M263.547 295.649l34.802-192.896M262.527 296.35L210.325 45.627m51.177 251.415h0" class="B"/><path d="M260.47 297.724L222.36 48.471" class="B"/><path d="M259.433 298.398l62.256-136.323m-63.3 136.987L49.336 151.131" class="B"/><path d="M257.34 299.717L277.119 78.69" class="B"/><path d="M256.284 300.362l62.199-154.036m-63.26 154.672L65.302 252.523" class="B"/><path d="M254.157 301.624L47.888 205.191" class="B"/><path d="M253.085 302.241l67.352-93.402m-68.43 94.01L116.993 60.751" class="B"/><path d="M250.924 303.446L118.076 60.154" class="B"/><path d="M249.836 304.034l67.296-82.001m-68.39 82.58L55.524 131.054" class="B"/><path d="M247.643 305.181L178.317 43.338" class="B"/><path d="M246.54 305.74l61.9-185.979m-63.009 186.527l-67.114 13.974" class="B"/><path d="M244.318 306.827L162.33 44.985m80.869 262.371h0m-1.122.519l-148.34-21.328" class="B"/><path d="M240.949 308.384l65.785-191.919m-66.917 192.418l-182.4-71.766" class="B"/><path d="M238.681 309.371L56.929 235.981" class="B"/><path d="M237.54 309.85L56.45 234.84" class="B"/><path d="M236.395 310.318l79.998-171.112m-81.147 171.57L46.099 174.382" class="B"/><path d="M234.093 311.224L134.907 52.376" class="B"/><path d="M232.936 311.661l34.624-18.906m-35.785 19.333L80.567 90.105" class="B"/><path d="M230.61 312.505l84.595-176.815" class="B"/><path d="M229.442 312.911l50.404-30.518m-51.576 30.914l-96.81-3.458" class="B"/><path d="M227.094 313.693l20.549-255.274m-21.727 255.649h0m-1.183.364h0" class="B"/><path d="M223.548 314.786l35.885-249.583M222.36 315.129L72.808 263.866" class="B"/><path d="M221.168 315.462l-170.33-96.993" class="B"/><path d="M219.974 315.783l83.088-205.768" class="B"/><path d="M218.777 316.095l104.235-129.348M217.577 316.395l-104.861-16.033" class="B"/><path d="M216.374 316.685l77.581-219.912" class="B"/><path d="M215.169 316.964l91.565-69.829m-92.772 70.098L155.038 46.367" class="B"/><path d="M212.752 317.49l87.673-59.72m-88.885 59.967L320.437 154.76M210.325 317.973L75.808 95.799" class="B"/><path d="M209.109 318.198l9.668-270.693" class="B"/><path d="M207.891 318.412L264.56 68.661m-57.89 249.954L124.682 56.773" class="B"/><path d="M205.448 318.808L203 44.44m1.225 274.549h0" class="B"/><path d="M203 319.16l12.169-272.524" class="B"/><path d="M201.773 319.319l59.729-252.761m-60.957 252.91L46.832 197.845" class="B"/><path d="M199.316 319.606L46.694 196.616m151.391 123.117L96.573 288.939" class="B"/><path d="M196.854 319.848L88.26 281.539" class="B"/><path d="M195.621 319.953L54.212 134.525" class="B"/><path d="M194.388 320.047L174.612 43.553m18.541 276.577L58.944 123.101m132.974 197.1L49.615 149.926" class="B"/><path d="M190.683 320.262l132.279-144.645" class="B"/><path d="M189.447 320.312l57.093-14.572" class="B"/><path d="M188.211 320.35l9.875-.618m-11.112.646h0m-1.237.016h0m-1.237.006h0m-1.237-.006l-9.884-.441" class="B"/><path d="M182.026 320.378l-57.344-13.551" class="B"/><path d="M180.789 320.35L45.95 178.089" class="B"/><path d="M179.553 320.312l139.242-172.788M178.317 320.262l130.671-199.393M177.082 320.201l14.837-276.803" class="B"/><path d="M175.847 320.13l138.077-187.922" class="B"/><path d="M174.612 320.047l107.893-40.242" class="B"/><path d="M173.379 319.953l100.946-32.6m-102.179 32.495l150.402-125.695" class="B"/><path d="M170.915 319.733l151.518-124.347m-152.749 124.22L105.453 67.951" class="B"/><path d="M168.455 319.468L151.423 47.205m15.804 272.114h0" class="B"/><path d="M166 319.16l-2.449-274.368" class="B"/><path d="M164.775 318.989l77.301-263.264m-78.524 263.083l-61.118-248.7" class="B"/><path d="M162.33 318.615L147.832 48.138" class="B"/><path d="M161.109 318.412l130.53-224.539M159.891 318.198L48.102 157.191m110.573 160.782L69.95 259.827" class="B"/><path d="M157.46 317.737l54.08-271.874M156.248 317.49l-92.797-68.183" class="B"/><path d="M155.038 317.233L73.545 98.74" class="B"/><path d="M153.831 316.964l104.558-17.902m-105.763 17.623L46.099 189.218" class="B"/><path d="M151.423 316.395L64.676 112.143" class="B"/><path d="M150.223 316.095l168.571-100.018" class="B"/><path d="M149.026 315.783l148.613-53.924m-149.807 53.603L107.498 66.558m39.142 248.571h0m-1.188-.343h0" class="B"/><path d="M144.267 314.432L119.164 59.566" class="B"/><path d="M143.084 314.068l96.733-5.185m-97.911 4.81L90.965 284.08" class="B"/><path d="M140.73 313.307L52.993 138.03" class="B"/><path d="M139.558 312.911L286.779 88.265M138.39 312.505l-34.956-18.285" class="B"/><path d="M137.225 312.088l94.55-260.577" class="B"/><path d="M136.064 311.661l186.683-139.749m-187.84 139.312L51.868 141.567" class="B"/><path d="M133.754 310.776l179.722-78.23" class="B"/><path d="M132.605 310.318l180.413-76.623" class="B"/><path d="M131.46 309.85l181.09-75.01m-182.231 74.531l-69.2-190.715" class="B"/><path d="M129.183 308.883l147.936-23.972m-149.068 23.473h0m-1.128-.509l77.301-263.264" class="B"/><path d="M125.801 307.356l67.353 12.773m-68.472-13.302l-65.21-184.845" class="B"/><path d="M123.569 306.288L188.211 43.25" class="B"/><path d="M122.46 305.74l190.09-176.98M121.357 305.181l-68.749-80.787" class="B"/><path d="M120.258 304.613L248.742 58.987" class="B"/><path d="M119.164 304.034L249.836 59.566m-131.76 243.88l-69.009-92.185" class="B"/><path d="M116.993 302.849l204.515-100.1" class="B"/><path d="M115.915 302.241l189.026-51.857m-190.098 51.24L49.905 148.723" class="B"/><path d="M113.777 300.998L90.055 80.359" class="B"/><path d="M112.716 300.362l206.38-151.639M111.66 299.717l-64.68-135.19" class="B"/><path d="M110.611 299.062l33.656-249.894m-34.7 249.23h0" class="B"/><path d="M108.53 297.724L156.248 46.11m-48.75 250.932l-38.24-192.244" class="B"/><path d="M106.473 296.35l94.072 23.118m-95.092-23.819l-40.151-43.125" class="B"/><path d="M104.44 294.939l-56.552-89.748" class="B"/><path d="M103.434 294.22l34.956 18.285m-35.956-19.013l-28.143-27.645" class="B"/><path d="M101.44 292.755l166.12-221.91M100.453 292.009l-33.215-36.32" class="B"/><path d="M99.473 291.255l-50.91-82.415" class="B"/><path d="M98.499 290.492l194.692-22.691" class="B"/><path d="M97.533 289.72l194.887-20.953M96.573 288.939l225.86-120.724" class="B"/><path d="M95.62 288.15l227.458-108.824" class="B"/><path d="M94.675 287.353L243.2 307.356M93.736 286.547h0" class="B"/><path d="M92.805 285.733l138.97 26.356M91.881 284.91l165.459 14.806M90.965 284.079L82.221 88.265" class="B"/><path d="M90.055 283.241L228.27 50.293" class="B"/><path d="M89.154 282.394L272.427 74.661" class="B"/><path d="M88.26 281.539L280.74 82.061" class="B"/><path d="M87.374 280.676L281.626 82.924" class="B"/><path d="M86.495 279.805l196.01-196.01" class="B"/><path d="M85.624 278.926L290.053 91.975" class="B"/><path d="M84.761 278.04l230.444-142.35" class="B"/><path d="M83.906 277.146l195.94 5.248m-196.787-6.149L65.302 111.077m16.919 164.258L53.389 136.858M81.39 274.419h0" class="B"/><path d="M80.567 273.495L57.916 125.351" class="B"/><path d="M79.753 272.564L184.5 43.2" class="B"/><path d="M78.947 271.625L195.621 43.647M78.15 270.68L95.62 75.45" class="B"/><path d="M77.361 269.727L96.573 74.661" class="B"/><path d="M76.58 268.767l83.311 49.431" class="B"/><path d="M75.808 267.801l36.907 32.561m-37.67-33.535l218.91-170.054" class="B"/><path d="M74.291 265.847l28.143 27.645M73.545 264.86l-18.906-34.624" class="B"/><path d="M72.808 263.866l90.743 54.941" class="B"/><path d="M72.08 262.866l43.835 39.375M71.361 261.86l-24.794-93.645" class="B"/><path d="M70.651 260.847l192.896 34.802M69.95 259.827l250.723-52.202M69.258 258.802h0" class="B"/><path d="M68.576 257.77l249.253-38.111" class="B"/><path d="M67.902 256.733l136.323 62.256m-136.987-63.3L215.169 46.636" class="B"/><path d="M66.583 254.64l221.027 19.779" class="B"/><path d="M65.938 253.584l154.036 62.199m-154.672-63.26l48.475-189.921" class="B"/><path d="M64.676 251.457l96.434-206.269" class="B"/><path d="M64.059 250.385l93.402 67.352m-94.01-68.43l242.097-135.014" class="B"/><path d="M62.854 248.224l243.293-132.848" class="B"/><path d="M62.266 247.136l82.001 67.296m-82.58-68.39L235.246 52.824" class="B"/><path d="M61.119 244.943l261.843-69.326" class="B"/><path d="M60.56 243.84l185.979 61.9M60.012 242.731l-13.974-67.114" class="B"/><path d="M59.473 241.618l261.843-81.988M58.944 240.499h0m-.519-1.122l21.328-148.34" class="B"/><path d="M57.916 238.249l191.919 65.785M57.417 237.117l71.766-182.4" class="B"/><path d="M56.929 235.981l73.391-181.752" class="B"/><path d="M56.45 234.84l75.01-181.09" class="B"/><path d="M55.982 233.695l171.112 79.998m-171.57-81.147L191.918 43.399" class="B"/><path d="M55.076 231.393l258.848-99.186" class="B"/><path d="M54.639 230.236l18.906 34.624m-19.333-35.785L276.195 77.867" class="B"/><path d="M53.795 227.91l176.815 84.595" class="B"/><path d="M53.389 226.742l30.518 50.404M52.993 225.57l3.458-96.81" class="B"/><path d="M52.607 224.394l255.274 20.549M52.232 223.216h0m-.364-1.183h0" class="B"/><path d="M51.514 220.848l249.583 35.885M51.171 219.66l51.263-149.552" class="B"/><path d="M50.838 218.468l96.993-170.33" class="B"/><path d="M50.517 217.274l205.768 83.088" class="B"/><path d="M50.205 216.077l129.348 104.235M49.905 214.877l16.033-104.861" class="B"/><path d="M49.615 213.674l219.912 77.581" class="B"/><path d="M49.336 212.469l69.829 91.565m-70.098-92.772l270.865-58.923" class="B"/><path d="M48.81 210.052l59.72 87.673M48.563 208.84L211.54 317.737M48.327 207.625L270.501 73.108" class="B"/><path d="M48.102 206.409l270.693 9.668" class="B"/><path d="M47.888 205.191l249.751 56.669M47.685 203.97l261.843-81.988" class="B"/><path d="M47.492 202.748L321.86 200.3m-274.549 1.225h0" class="B"/><path d="M47.14 200.3l272.524 12.169" class="B"/><path d="M46.981 199.073l252.761 59.729m-252.91-60.957L168.455 44.132" class="B"/><path d="M46.694 196.616l122.99-152.622M46.567 195.385L77.361 93.873" class="B"/><path d="M46.452 194.154L84.761 85.56" class="B"/><path d="M46.347 192.921L231.775 51.512" class="B"/><path d="M46.253 191.688l276.494-19.775M46.17 190.453L243.199 56.244m-197.1 132.974L216.374 46.915" class="B"/><path d="M46.038 187.983l144.645 132.279" class="B"/><path d="M45.988 186.747L60.56 243.84" class="B"/><path d="M45.95 185.511l.618 9.875m-.646-11.112h0m-.016-1.237h0M45.9 181.8h0m.006-1.237l.441-9.884" class="B"/><path d="M45.922 179.326l13.551-57.344" class="B"/><path d="M45.95 178.089L188.211 43.25" class="B"/><path d="M45.988 176.853l172.788 139.242M46.038 175.617l199.393 130.671M46.099 174.382l276.803 14.837" class="B"/><path d="M46.17 173.147l187.922 138.077" class="B"/><path d="M46.253 171.912l40.242 107.893" class="B"/><path d="M46.347 170.679l32.6 100.946M46.452 169.446l125.695 150.402" class="B"/><path d="M46.567 168.215l124.347 151.518M46.694 166.984l251.655-64.231" class="B"/><path d="M46.832 165.755l272.263-17.032" class="B"/><path d="M46.981 164.527h0m.159-1.227l274.368-2.449" class="B"/><path d="M47.311 162.075l263.264 77.301M47.492 160.852l248.7-61.118" class="B"/><path d="M47.685 159.63l270.477-14.498" class="B"/><path d="M47.888 158.409l224.539 130.53M48.102 157.191L209.109 45.402M48.327 155.975l58.145-88.725" class="B"/><path d="M48.563 154.76l271.874 54.079M48.81 153.548l68.183-92.797" class="B"/><path d="M49.067 152.338L267.56 70.845" class="B"/><path d="M49.336 151.131l17.902 104.558M49.615 149.926L177.082 43.399" class="B"/><path d="M49.905 148.723l204.252-86.748" class="B"/><path d="M50.205 147.523l100.018 168.571" class="B"/><path d="M50.517 146.326l53.924 148.613M50.838 145.132l248.903-40.334M51.171 143.94h0m.343-1.188h0" class="B"/><path d="M51.868 141.567l254.866-25.102" class="B"/><path d="M52.232 140.384l5.185 96.733m-4.81-97.911L82.22 88.265" class="B"/><path d="M52.993 138.03L228.27 50.293" class="B"/><path d="M53.389 136.858l224.647 147.221M53.795 135.69l18.285-34.956" class="B"/><path d="M54.212 134.525l260.577 94.55" class="B"/><path d="M54.639 133.364l139.749 186.683M55.076 132.207l169.657-83.039" class="B"/><path d="M55.524 131.054l78.23 179.722" class="B"/><path d="M55.982 129.905l76.623 180.413" class="B"/><path d="M56.45 128.76l75.01 181.09M56.929 127.619l190.715-69.2" class="B"/><path d="M57.417 126.483L81.39 274.419M57.916 125.351h0m.509-1.128l263.264 77.301" class="B"/><path d="M58.944 123.101L46.17 190.453m13.303-68.471l184.845-65.21" class="B"/><path d="M60.012 120.869l263.039 64.642" class="B"/><path d="M60.56 119.76l176.98 190.09M61.119 118.657l80.787-68.749" class="B"/><path d="M61.687 117.558l245.625 128.484" class="B"/><path d="M62.266 116.464l244.469 130.671M62.854 115.376l92.185-69.009" class="B"/><path d="M63.451 114.293l100.1 204.515" class="B"/><path d="M64.059 113.215l51.857 189.026m-51.24-190.098l152.901-64.938" class="B"/><path d="M65.302 111.077l220.639-23.721" class="B"/><path d="M65.938 110.016l151.639 206.38M66.583 108.96l135.19-64.68" class="B"/><path d="M67.238 107.911l249.894 33.656m-249.23-34.7h0" class="B"/><path d="M68.576 105.83l251.614 47.719M69.258 104.798l192.244-38.24" class="B"/><path d="M69.95 103.773l-23.118 94.072m23.819-95.092l43.125-40.151" class="B"/><path d="M71.361 101.74l89.748-56.552" class="B"/><path d="M72.08 100.734L53.795 135.69m19.013-35.956l27.645-28.143" class="B"/><path d="M73.545 98.74l221.91 166.12M74.291 97.753l36.32-33.215" class="B"/><path d="M75.045 96.773l82.415-50.91" class="B"/><path d="M75.808 95.799l22.691 194.692" class="B"/><path d="M76.58 94.833L97.533 289.72M77.361 93.873l120.724 225.86" class="B"/><path d="M78.15 92.92l108.824 227.458" class="B"/><path d="M78.947 91.975L58.944 240.499M79.753 91.036h0" class="B"/><path d="M80.567 90.105l-26.356 138.97M81.39 89.181L66.583 254.64M82.221 88.265l195.815-8.744" class="B"/><path d="M83.059 87.355L316.007 225.57" class="B"/><path d="M83.906 86.454l207.733 183.273" class="B"/><path d="M84.761 85.56l199.477 192.48" class="B"/><path d="M85.624 84.674l197.752 194.253" class="B"/><path d="M86.495 83.795l196.01 196.01" class="B"/><path d="M87.374 82.924l186.952 204.429" class="B"/><path d="M88.26 82.061l142.35 230.444" class="B"/><path d="M89.154 81.206l-5.248 195.94m6.149-196.787l165.168-17.757M90.965 79.521l138.477-28.832M91.881 78.69h0" class="B"/><path d="M92.805 77.867l148.144-22.651" class="B"/><path d="M93.736 77.053L323.1 181.8" class="B"/><path d="M94.675 76.247l227.978 116.674M95.62 75.45l195.23 17.47" class="B"/><path d="M96.573 74.661l195.066 19.212" class="B"/><path d="M97.533 73.88l-49.431 83.311" class="B"/><path d="M98.499 73.108l-32.561 36.907m33.535-37.67l170.054 218.91" class="B"/><path d="M100.453 71.591L72.808 99.734m28.632-28.889l34.624-18.906" class="B"/><path d="M102.434 70.108l-54.941 90.743" class="B"/><path d="M103.434 69.38l-39.375 43.835m40.381-44.554l93.645-24.794" class="B"/><path d="M105.453 67.951L70.651 260.847M106.473 67.25l52.202 250.723M107.498 66.558h0" class="B"/><path d="M108.53 65.876l38.111 249.253" class="B"/><path d="M109.567 65.202L47.311 201.525m63.3-136.987l209.053 147.931" class="B"/><path d="M111.66 63.883L91.881 284.91" class="B"/><path d="M112.716 63.238L50.517 217.274m63.26-154.672l189.921 48.475" class="B"/><path d="M114.843 61.976l206.269 96.434" class="B"/><path d="M115.915 61.359L48.563 154.76m68.43-94.009l135.014 242.097" class="B"/><path d="M118.076 60.154l132.848 243.293" class="B"/><path d="M119.164 59.566l-67.296 82.001m68.39-82.58l193.218 173.558" class="B"/><path d="M121.357 58.419l69.326 261.843" class="B"/><path d="M122.46 57.86l-61.9 185.98m63.009-186.528l67.114-13.974" class="B"/><path d="M124.682 56.773l81.988 261.843M125.801 56.244h0m1.122-.519l148.34 21.328" class="B"/><path d="M128.051 55.216l-65.785 191.92m66.917-192.419l182.4 71.766" class="B"/><path d="M130.319 54.229l181.752 73.391" class="B"/><path d="M131.46 53.75l181.09 75.01" class="B"/><path d="M132.605 53.282L52.607 224.394m81.147-171.57l189.147 136.394" class="B"/><path d="M134.907 52.376l99.186 258.848" class="B"/><path d="M136.064 51.939L101.44 70.845m35.785-19.333l151.207 221.983" class="B"/><path d="M138.39 51.095L53.795 227.91" class="B"/><path d="M139.558 50.689L89.154 81.206m51.576-30.913l96.81 3.458" class="B"/><path d="M141.906 49.907l-20.549 255.274m21.727-255.649h0m1.183-.364h0" class="B"/><path d="M145.452 48.814l-35.885 249.583M146.64 48.471l149.552 51.263" class="B"/><path d="M147.832 48.138l170.33 96.993" class="B"/><path d="M149.026 47.817L65.938 253.584" class="B"/><path d="M150.223 47.505L45.988 176.853M151.423 47.205l104.861 16.033" class="B"/><path d="M152.626 46.915L75.045 266.827" class="B"/><path d="M153.831 46.636l-91.565 69.829m92.772-70.098l58.923 270.865" class="B"/><path d="M156.248 46.11l-87.673 59.72" class="B"/><path d="M157.46 45.863L48.563 208.84M158.675 45.627L293.192 267.8" class="B"/><path d="M159.891 45.402l-9.668 270.693" class="B"/><path d="M161.109 45.188L104.44 294.939m57.89-249.954l81.988 261.843" class="B"/><path d="M163.552 44.792L166 319.16m-1.225-274.549h0" class="B"/><path d="M166 44.44l-12.169 272.524" class="B"/><path d="M167.227 44.281l-59.729 252.761m60.957-252.91l153.713 121.623" class="B"/><path d="M169.684 43.994l152.622 122.99M170.915 43.867L272.427 74.66" class="B"/><path d="M172.146 43.752l108.594 38.31" class="B"/><path d="M173.379 43.647l141.409 185.428" class="B"/><path d="M174.612 43.553l19.775 276.494M175.847 43.47l134.209 197.029m-132.974-197.1l142.304 170.276" class="B"/><path d="M178.317 43.338L46.038 187.983" class="B"/><path d="M179.553 43.288L122.46 57.86" class="B"/><path d="M180.789 43.25l-9.875.618m11.112-.646h0m1.237-.016h0" class="B"/></g><defs><clipPath id="A"><path d="M323.1 181.8c0-18.201-3.585-36.225-10.55-53.04s-17.175-32.095-30.045-44.965-28.15-23.08-44.965-30.045S202.701 43.2 184.5 43.2s-36.225 3.585-53.04 10.55-32.095 17.175-44.965 30.045-23.08 28.15-30.045 44.965S45.9 163.599 45.9 181.8s3.585 36.225 10.55 53.04 17.175 32.095 30.045 44.965 28.15 23.08 44.965 30.045 34.839 10.55 53.04 10.55 36.225-3.585 53.04-10.55 32.095-17.175 44.965-30.045 23.08-28.15 30.045-44.965 10.55-34.839 10.55-53.04m-138.6 0z"/></clipPath></defs></svg>