<svg xmlns="http://www.w3.org/2000/svg" xmlns:xlink="http://www.w3.org/1999/xlink" baseProfile="full" viewBox="0 0 1103 460"><defs><path id="a" d="M466.94 243.91c0 2.76-2.24 5-5 5s-5-2.24-5-5 2.24-5 5-5 5 2.24 5 5z"/><path id="b" d="M525.09 185.76c0 2.76-2.24 5-5 5s-5-2.24-5-5 2.24-5 5-5 5 2.24 5 5z"/><path id="c" d="M641.43 418.43c0 2.76-2.24 5-5 5s-5-2.24-5-5 2.24-5 5-5 5 2.24 5 5z"/><path id="d" d="M641.39 69.462a5.001 5.001 0 0 1-10 0 5.001 5.001 0 0 1 10 0z"/><path id="e" d="M68.703-32.703H9q-3.203 0-3.406-2 0-2 3.312-2h59.891q3.203 0 3.297 2 0 2-3.391 2zm.094 19.406H8.907q-3.204 0-3.313-2 0-2 3.406-2h59.703q3.203 0 3.391 2 0 2-3.297 2z"/><path id="f" d="m30.297-31.594-6.203 25-.297 1.688q0 1.703 4.609 1.812h1.891q2.609 0 2.797 1.094 0 2-2 2l-6.391-.203h-.109l-6.188-.094h-.203L5.593 0H5.5Q4 0 4-1.203q0-1.703 1.594-1.89h1.203q6.5 0 7.797-1.407.609-.703 1.203-2.797 0-.11.109-.5L29.297-61.5q.406-1.594.406-1.906 0-1.188-1.609-1.5H28Q27.797-65 27.5-65q-2.406-.203-4.297-.203-2.609 0-2.797-.797-.109-.203-.109-.406 0-1.688 1.703-1.891h33.703q12.094 0 17.297 7.391 2.406 3.5 2.406 7.703 0 8.109-8.312 14.703-8.797 6.906-19.797 6.906h-17zM37.5-61.406l-6.797 27.203h14.094q9.5 0 15.406-5.297 4.094-3.797 5.594-12.703v-.094q.297-1.906.297-3.297 0-9.609-13.594-9.609h-9.594q-3.609 0-4.406 1v.109h-.094V-64q-.406.594-.906 2.594z"/><path id="g" d="M43.797-.594q1 7.89 3.703 9.5 1.297.797 3.406.797 4.891 0 8.688-4.297 2-2.203 3-5.312Q63-1 63.797-1q1.109 0 1.109 1 0 1.906-2.406 7.203-5.594 12.203-14.297 12.203-8.297 0-8.297-11 0-1.5.391-7.703-5.297 1.5-9.797 1.5-12.5 0-19.703-8.797-5.89-7.203-5.89-17.906 0-15 10.687-28.406Q25.5-65 38.797-69q4.906-1.5 9.703-1.5 12.703 0 19.906 9.203Q74-54.094 74-43.594q0 15.391-11 28.688Q54.594-4.703 43.797-.594zm-18.891-.812-.609-2.297v-.89q0-4.907 4.406-8.204 2.703-2 5.797-2 7.094 0 8.703 9.89 0 .313.094.907 13.297-7.406 19.109-26.5 2.797-8.906 2.797-16.297 0-13-8-18.406l-.109-.094Q53.094-68 47.906-68q-9.5 0-18.406 8.406-3 2.797-5.594 6.391Q16.094-42 14.094-26.594q-.391 3-.391 5.297 0 13.297 8.594 18.594Q23.5-2 24.906-1.406zm6.188 1.11q4.109 0 8.406-1.798 1-1.312 1.094-2 0-7.609-4.594-8.406h-.094q-.609-.094-1.406-.094-4.094 0-6.703 3.797Q26.5-6.703 26.5-4.594q0 4.297 4.594 4.297z"/><path id="h" d="M33.094 24q0 1-1 1-1.188 0-5.297-4.094Q20.594 14.703 16.5 6.203 9.906-7.407 9.906-25q0-16.906 6.297-30.5 5.203-11.094 13.203-17.797Q31.5-75 32.094-75q1 0 1 1 0 .5-1.297 1.703Q15.703-55.906 15.703-25q0 30.797 15.703 46.797Q33.094 23.5 33.094 24z"/><path id="i" d="M44.906-17.406 42.094 0H5q0-2.5.594-3.203l.5-.5 19.203-21.391q10.5-11.812 10.5-22.109 0-8.891-5.391-13.5l-.109-.094h-.094Q27-63.5 22.406-63.5q-7.203 0-11.5 6.203-1.203 1.797-2 4 .297-.109 1.297-.109 4 0 5.094 3.609v.094q.203.703.203 1.5 0 4-3.797 5.109-.797.188-1.406.188-3.703 0-4.89-3.094Q5-47.094 5-48.5q0-7.703 5.906-13.203 5.297-4.891 12.797-4.891 11 0 17.094 7.391 3.5 4.297 4 10.203.109.906.109 1.797 0 7.297-5.5 13.906-2.906 3.391-9 9l-6.109 5.391-1 .906L12.703-7.703h18q8.797 0 9.5-.797 1-1.406 2.203-8.906h2.5z"/><path id="j" d="M20.297-.094q0 9.688-6.297 17-1.703 2-2.797 2.391-1 0-1-1.094 0-.5 1.094-1.609 6-6 6.703-14.688.094-1 .094-2 0-1.5-.188-1.5-.109 0-.5.297Q16 0 13.906 0 10.203 0 9-3.406q-.406-.89-.406-1.89 0-3.61 3.109-4.907 1-.391 2.203-.391 4.391 0 5.891 5.797.5 2.094.5 4.703z"/><path id="k" d="M66.094-23h-54.5q-3.188 0-3.297-2 0-2 3.297-2h54.5q3.203 0 3.312 2 0 2-3.312 2z"/><path id="l" d="M29-35.203q10 2 14.406 9.797 2.297 3.906 2.297 8.312 0 8.5-7 14.297-6.109 5-14.297 5-9.906 0-15.906-5.906Q4.203-7.906 4.203-13.5q0-4.703 4.203-5.594.688-.203 1.39-.203 3.798 0 5.11 3.203.391 1.297.5 2.391 0 4-3.609 5.203-1.391.5-3 .297Q12.5-2 21.594-.797q1.312.203 2.5.203 6.406 0 9.406-6.312 1.906-4 1.906-10.188 0-13.312-8-16-1.812-.609-3.906-.609h-4.406q-2.188 0-2.391-1.094 0-1 1.5-1.203 1.5 0 3.891-.297 5.109-.203 8-3.906v-.094l.109-.109.094-.094h.109l.594-1q2.797-4.703 2.797-11.406 0-9.297-7.203-10.891-1.188-.297-2.391-.297-7 0-11.406 4-1.094 1-1.891 2.188 6.188 0 6.188 5 0 3.609-3.094 4.812-.906.297-2 .297-3.906 0-4.906-3.5v-.109q-.188-.797-.188-1.594 0-6.703 6.594-10.703 4.797-2.891 11.094-2.891 9.109 0 14.703 5.391L39.5-61q3.5 3.594 3.5 8.203 0 8.297-7.094 13.891Q32.797-36.5 29-35.203z"/><path id="m" d="M28.906-25q0 16.906-6.312 30.5-5.188 11.094-13.188 17.797Q7.296 25 6.703 25q-1 0-1-1 0-.5 1.297-1.703Q23.094 5.907 23.094-25q0-30.5-15-46.203l-.5-.5Q5.704-73.5 5.704-74q0-1 1-1Q7.905-75 12-70.906q6.203 6.203 10.297 14.703Q28.906-42.594 28.906-25z"/><path id="n" d="M46-32q0 14.594-3.703 22.594-5.891 11.203-17.391 11.61-9.109 0-14.609-7.204-1.094-1.297-1.89-2.906-4.5-8.297-4.5-24.094 0-14.703 3.687-22.703 5-11.203 16.203-11.891H25q8.906 0 14.5 7.094v.094q1.406 1.812 2.5 4 4 8.5 4 23.406zM24.906 0q6.297 0 9.688-6.094 1.406-2.703 2-6.406 1.109-6.406 1.109-20.703 0-13.891-1-19.5-1.797-9.5-9.203-11.391-1.297-.312-2.594-.312-7 0-10.203 7Q13.594-55 13-51.594q-.797 5.391-.797 18.391 0 15.109 1.094 21.109Q15.094-2.5 22.094-.406 23.5 0 24.906 0z"/><path id="o" d="M29.406-64v56.094q0 3 1.188 3.812 1.703 1 8.109 1h3.203V0q-3.5-.297-16.203-.297T9.5 0v-3.094h3.203q7.703 0 8.797-1.812L21.594-5Q22-5.797 22-7.906v-51.797q-5.203 2.609-13.094 2.609v-3.109q12 0 18.188-6.391 1.906 0 2.203.688v.109q.109.297.109 1.797z"/><path id="p" d="M48.594-38.094 39 .094Q36.594 9.906 28.297 16q-6.094 4.5-12.703 4.5-6.688 0-9.5-4.594Q5 14 5 11.797 5 6.703 9.094 5.5q.812-.203 1.5-.203 3.203 0 3.609 2.797.094.312.094.703 0 2.297-2 4.109Q10.906 14.094 8 14.094q1.797 4.203 7.594 4.203 6.203 0 11-6.297Q30.5 6.797 32.797-2.094q.109-.406.297-1.312-4.5 4.5-10.094 4.5-8 0-10.906-5.89-1.297-2.61-1.297-6.001 0-5.5 5.297-19.703.203-.594.5-1.297 1.703-4.609 1.703-7 0-3.203-2.5-3.203-5.5 0-9 9.094v.109q-.594 1.5-1.094 3.203-1.11 1.688-1.61 1.797-1.187 0-1.187-1 0-1.797 2.094-6.297 4.406-9.109 11.094-9.109 5.312 0 7.406 4.5.797 1.703.797 3.703 0 2.094-2 7.203-5.094 13.203-5.094 19.594 0 8.11 6.203 8.11 5.797 0 10.094-6.204 1-1.5 1.203-2.297l4.5-18q.703-3.312 2-8 1-4.312 1.391-5.406 1.312-2.094 3.5-2.094 2.5.5 2.906 2.688 0 .906-.406 2.312z"/><path id="q" d="M33.406-30.203 30-16.5q-1.703 6.797-1.703 8.797 0 5.203 3.703 6.297.797.312 1.797.312 5 0 9.109-5 2.688-3.203 4.188-8.109.312-1.094 1.312-1.094 1.188 0 1.188 1 0 2.5-3.094 7.203-5.406 8.188-12.906 8.188-6.797 0-9.891-5.688-.609-.906-.906-1.906-2.391 4.797-6.594 6.703-1.906.89-3.906.89-6 0-8.39-3.5-1-1.296-1-3.093 0-3.703 3.187-5.203 1.11-.594 2.312-.594 3 0 3.594 2.5.094.5.094 1 0 3.39-3.39 5-.61.297-1.298.39 2.094 1.313 5 1.313 5.297 0 8.391-7.11.609-1.5 1.109-3.296 5.391-20.406 5.391-23.797Q26.703-41.5 21.906-42q-5.203 0-9.5 5.297v.109q0 .094-.109.094-1.5 2-2.703 4.594-.5 1.203-.89 2.406l-.204.594q-.203 1.109-1.297 1.109-1.203 0-1.203-1 0-2.5 3.203-7.203 5.391-8.203 12.891-8.203 7.703 0 10.812 7.609 3.188-6.203 8.5-7.406 1-.203 2-.203 5.891 0 8.297 3.297 1 1.406 1 3.312 0 4.094-3.703 5.5-.906.297-1.703.297-3.094 0-3.703-2.703-.094-.406-.094-.797 0-3 2.906-4.703.891-.5 1.891-.703-2.094-1.297-5-1.297-6.797 0-9.594 10.594-.203.609-.297 1.203z"/><path id="r" d="M40.906-23V5q0 3.203-2 3.297-2 0-2-3.297v-28h-28q-3.203 0-3.312-2 0-2 3.312-2h28v-28q0-3.203 2-3.297 2 0 2 3.297v28h27.891q3.203 0 3.297 2 0 2-3.297 2H40.906z"/><path id="s" d="M15.094-12.797v-23.828H5.328q-2.547-.297-2.844-2.781v-.875q.297-2.547 2.844-2.828h9.766v-9.485q.281-2.437 2.828-2.828h1.656q2.547.391 2.828 2.828v9.485h17.391q1.219.14 1.922.875.719.734.859 1.953v.875q-.297 2.484-2.781 2.781H22.406v23.437q0 7.282 7.578 7.282 3.078 0 5.344-2.094 2.266-2.109 2.266-5.188v-.531q.156-1.172.875-1.906.734-.734 1.906-.875h1.719q2.437.281 2.828 2.781v.922q0 4-2.281 7.063-2.266 3.046-5.829 4.687Q33.25.593 29.297.593 25.141.594 21.969-1q-3.172-1.594-5.031-4.64-1.844-3.048-1.844-7.157z"/><path id="t" d="M.984 19.391V18.5q.391-2.484 2.829-2.781h5.703v-52.344H3.812q-2.437-.297-2.828-2.781v-.875q.391-2.547 2.829-2.828h10.203q1.172.14 1.906.875.734.734.875 1.953v1.265q5.515-4.687 12.703-4.687 5.609 0 10.094 3.172 4.5 3.172 6.968 8.281 2.469 5.094 2.469 10.672 0 5.703-2.719 10.859-2.703 5.156-7.468 8.235Q34.078.594 28.328.594q-6.406 0-11.531-4.89v20.015h5.719q2.484.297 2.781 2.781v.891q-.297 2.531-2.781 2.828H3.813q-2.438-.297-2.829-2.828zM27.781-5.906q4 0 7.203-2.25 3.204-2.25 4.954-5.906 1.765-3.657 1.765-7.516 0-3.672-1.594-7.328-1.578-3.656-4.515-5.969-2.922-2.328-6.782-2.328-2.64 0-5.156 1.156-2.515 1.141-4.328 3.235-1.797 2.093-2.531 4.734v10.594q1.031 4.687 3.812 8.14 2.782 3.438 7.172 3.438z"/><path id="u" d="M12.891-18.891q1.078 5.703 5.765 9.344 4.688 3.64 10.641 3.64 3.125 0 5.922-1.437 2.812-1.453 3.89-4.031.782-2.297 2.782-2.547h1.718q1.266.156 2.016 1.016.766.844.766 2.015 0 .297-.032.469-.015.172-.062.406-1.906 5.282-6.875 7.954Q34.469.594 28.516.594q-6.047 0-11.454-2.953-5.39-2.97-8.562-8.047-3.172-5.078-3.172-11.282 0-4.484 1.656-8.484 1.657-4.016 4.61-7.156 2.953-3.156 6.937-4.906Q22.516-44 27-44q6.25 0 10.641 2.859 4.406 2.86 6.578 7.813 2.172 4.953 2.172 11.203 0 1.328-.782 2.203-.781.875-2 1.031H12.891zm.093-6.406h25.938q-.391-3.515-1.813-6.265-1.421-2.766-3.968-4.344Q30.609-37.5 27-37.5q-3.312 0-6.328 1.656-3 1.656-5.031 4.5-2.016 2.828-2.657 6.047z"/><path id="v" d="M26.219.594q-5.813 0-10.547-3.047-4.734-3.063-7.453-8.235-2.703-5.187-2.703-10.89 0-5.766 2.656-10.906 2.672-5.157 7.453-8.328Q20.406-44 26.219-44q4.453 0 8.297 1.859 3.859 1.86 6.562 4.938 2.719 3.078 4.281 7.234 1.563 4.141 1.563 8.391 0 5.703-2.719 10.859-2.703 5.156-7.469 8.235Q31.984.594 26.219.594zm0-6.5q6.015 0 9.687-5.156 3.688-5.157 3.688-11.344 0-3.813-1.703-7.282-1.703-3.468-4.735-5.64-3.031-2.172-6.937-2.172-3.86 0-6.907 2.156-3.046 2.141-4.781 5.641-1.734 3.484-1.734 7.297 0 6.187 3.703 11.344 3.719 5.156 9.719 5.156z"/><path id="w" d="M5.813 0q-2.439-.297-2.83-2.781v-.938q.392-2.484 2.83-2.781h9.281v-30.125H5.813q-2.438-.297-2.829-2.781v-.875q.391-2.547 2.829-2.828h13.765q1.219.14 1.953.875.735.734.875 1.953v4.39q2.016-2.343 4.719-4.14 2.703-1.813 5.875-2.735 3.188-.937 6.312-.937 3.657 0 6.516 1.515 2.86 1.516 2.86 4.782 0 1.906-1.235 3.25-1.219 1.344-3.172 1.344-1.797 0-3.093-1.235-1.297-1.25-1.297-3.156h-.688q-4.781 0-8.641 2.594-3.859 2.578-6.015 6.859-2.141 4.266-2.141 8.953V-6.5h12.406q2.5.344 2.782 2.781v.938Q37.312-.344 34.812 0h-29z"/><path id="x" d="M23 .594q-4.344 0-7.938-1.86-3.593-1.859-6.203-5.03Q6.25-9.47 4.83-13.454q-1.407-3.985-1.407-8.125 0-4.25 1.515-8.234 1.516-3.985 4.36-7.157 2.859-3.172 6.641-4.953 3.796-1.781 8.093-1.781 6.485 0 11.563 4.297v-15.188h-5.703q-2.5-.297-2.797-2.828v-.875q.297-2.5 2.797-2.781h10.203q2.437.281 2.828 2.781V-6.5h5.656q1.234.156 1.953.844.735.672.891 1.937v.938q-.156 1.172-.891 1.906-.719.734-1.953.875H38.375q-1.172-.14-1.906-.875-.719-.734-.875-1.906v-2Q29.984.594 23 .594zm.578-6.5q4.547 0 7.766-3.563 3.234-3.562 4.25-8.359v-10.5q-1.078-3.75-4.11-6.313-3.015-2.562-6.875-2.562-4 0-7.203 2.25-3.203 2.234-4.968 5.922-1.75 3.687-1.75 7.547 0 3.609 1.593 7.296 1.594 3.688 4.516 5.985 2.937 2.297 6.781 2.297z"/><path id="y" d="M5.61-2.781v-.938Q5.905-6.203 8.405-6.5H22.61v-48.094H8.406q-2.5-.297-2.797-2.828v-.875q.297-2.5 2.797-2.781h18.688q2.5.281 2.797 2.781V-6.5h14.203q2.437.297 2.828 2.781v.938Q46.531-.297 44.094 0H8.406q-2.5-.297-2.797-2.781z"/><path id="z" d="M28.078 1.125q-7.469 0-12.969-4.828-5.484-4.844-8.296-12.188Q4-23.25 4-30.609q0-7.282 2.813-14.625 2.812-7.36 8.296-12.157 5.5-4.812 12.969-4.812 7.172 0 12.844 4.687l1.562-3.078q.782-1.328 2.438-1.609h.781q2.391.281 2.688 2.687v16.938q-.297 2.39-2.688 2.687h-1.906q-2.391-.297-2.688-2.687-.625-5.125-4-9.125-3.375-4.016-8.39-4.016-5.625 0-9.578 4.016-3.953 4-5.907 9.812-1.953 5.813-1.953 11.282 0 5.609 2 11.453 2 5.828 5.953 9.781 3.954 3.953 9.578 3.953 3.313 0 6.126-1.61 2.812-1.609 4.484-4.437 1.687-2.843 1.687-6.109.297-2.438 2.688-2.734h1.906q2.688.296 2.688 3.124 0 5.172-2.907 9.407-2.906 4.218-7.625 6.562-4.703 2.344-9.781 2.344z"/><path id="A" d="M9.516-10.797v-25.828H3.812q-2.437-.297-2.828-2.781v-.875q.391-2.547 2.829-2.828h10.203q1.172.14 1.906.875.734.734.875 1.953v29.093q0 3.376 2.125 4.329 2.125.953 5.89.953 2.626 0 5.141-1.078 2.516-1.079 4.078-3.125 1.563-2.047 1.563-4.688v-21.828h-5.703q-2.5-.297-2.797-2.781v-.875q.156-1.219.89-1.953.735-.735 1.907-.875h10.203q2.437.281 2.828 2.828V-6.5h5.656q1.234.156 1.953.844.735.672.891 1.937v.938q-.156 1.172-.891 1.906-.719.734-1.953.875H38.375q-1.125-.14-1.953-1.016-.828-.89-.828-1.968-2.438 1.765-5.422 2.671-2.969.907-6.047.907-6.453 0-10.531-2.61-4.078-2.625-4.078-8.781z"/><path id="B" d="M20.797-2.594 9.516-36.625H5.172q-2.484-.344-2.781-2.781v-.875q.156-1.172.906-1.922.75-.766 1.875-.906h14.656q1.125.14 1.875.906.766.75.906 1.922v.875q-.297 2.437-2.781 2.781h-4l10.391 31.11 10.406-31.11h-4q-2.547-.344-2.844-2.781v-.875q.297-2.5 2.844-2.828h14.594q1.125.14 1.875.906.765.75.906 1.922v.875q-.297 2.437-2.781 2.781h-4.297L31.594-2.594Q31.156-1.219 30-.406 28.859.39 27.391.39H25q-1.469 0-2.625-.797-1.141-.813-1.578-2.188z"/><path id="C" d="M7.625-2.781v-.938q.281-2.484 2.781-2.781h13.375v-30.125H11.188q-2.5-.344-2.782-2.781v-.875q.14-1.172.89-1.922.766-.766 1.892-.906h17.14q1.172.14 1.891.875.734.734.89 1.953V-6.5h11.813q2.344.297 2.781 2.781v.938Q45.266-.297 42.922 0H10.406q-2.5-.297-2.781-2.781zM20.703-56q0-2.156 1.516-3.672 1.515-1.516 3.656-1.516 2.203 0 3.719 1.516 1.515 1.516 1.515 3.672 0 2.094-1.562 3.656-1.563 1.563-3.672 1.563-2.047 0-3.609-1.563-1.563-1.562-1.563-3.656z"/><path id="D" d="M.984-2.781v-.938Q1.375-6.203 3.813-6.5h5.703v-30.125H3.812q-2.437-.297-2.828-2.781v-.875q.391-2.547 2.829-2.828h10.203q1.172.14 1.906.875.734.734.875 1.953v1.656q2.594-2.437 6-3.75 3.422-1.328 7.094-1.328 6.578 0 9.797 3.891 3.234 3.874 3.234 10.609V-6.5h5.656q1.234.156 1.953.844.735.672.891 1.937v.938q-.156 1.172-.891 1.906-.719.734-1.953.875H30.812q-2.437-.297-2.828-2.781v-.938q.391-2.484 2.828-2.781h4.782v-22.312q0-4.204-1.25-6.297-1.235-2.094-5.141-2.094-3.328 0-6.234 1.765-2.907 1.75-4.547 4.688-1.625 2.922-1.625 6.328V-6.5h5.719q2.484.297 2.781 2.781v.938Q25-.297 22.516 0H3.813Q1.374-.297.983-2.781z"/><path id="E" d="M7.078-19.578q-1.469-.25-2.375-1.203-.89-.953-.89-2.313 0-1.375.921-2.328.938-.953 2.344-1.187h38.234q1.422.234 2.344 1.14.922.907.922 2.375 0 1.469-.906 2.375-.891.891-2.36 1.141H7.078zm0-15.141q-1.36-.14-2.312-1.093-.954-.954-.954-2.376 0-1.359.922-2.312.938-.953 2.344-1.203h38.234q1.422.25 2.344 1.156.922.891.922 2.359 0 1.516-.953 2.422-.937.907-2.313 1.047H7.078z"/><path id="F" d="M38.375 7.719Q31.781 3.766 27-2.266q-4.781-6.03-7.344-13.328-2.562-7.312-2.562-15.015 0-7.625 2.562-14.938Q22.219-52.875 27-58.906q4.781-6.032 11.375-9.985 1.375-.5 1.516-.5h1.125q1.218.157 1.953.938.734.781.734 1.953 0 1.703-1.219 2.297-4.343 2.875-7.672 6.484-3.312 3.61-5.64 7.907-2.313 4.296-3.531 9.156-1.219 4.859-1.219 10.047 0 5.125 1.219 9.953 1.218 4.828 3.578 9.25 2.375 4.422 5.547 7.922Q37.938 0 42.391 2.875q1.312.844 1.312 2.453 0 1.172-.781 1.953-.781.782-1.906.922h-1.125q-.235 0-.735-.203-.484-.188-.781-.281z"/><path id="G" d="M5.328-13.281q0-5.672 5.172-8.953 5.172-3.297 11.984-4.516 6.813-1.234 12.813-1.234v-.828q0-4.094-3.563-6.391-3.562-2.297-7.953-2.297-4.5 0-6.687.391.094 0 .094.828 0 1.859-1.376 3.234-1.359 1.359-3.218 1.359-2.047 0-3.375-1.406-1.313-1.422-1.313-3.437 0-4.875 4.656-6.172Q17.234-44 24.031-44q4.297 0 8.641 1.781t7.125 5.157q2.781 3.374 2.781 7.859v21.781q0 .922 7.031.922 2.485.297 2.782 2.781v.938Q52.094-.297 49.609 0h-1.703q-4.203 0-7.062-.61-2.86-.609-4.563-2.812Q30.609.594 21.297.594q-3.969 0-7.688-1.703-3.703-1.72-6-4.86-2.28-3.156-2.28-7.312zm7.266.093q0 3.329 3.094 5.313 3.109 1.969 6.828 1.969 3.906 0 7.078-1.078 1.609-.579 3.515-1.844 1.907-1.281 1.907-2.453 0 .047.14-.703.141-.766.141-1.204v-8.5q-2.281 0-6.094.391-3.812.391-7.531 1.297-3.703.906-6.391 2.641-2.687 1.734-2.687 4.171z"/><path id="H" d="M19.828-6.5q0-2.688 1.906-4.531 1.907-1.86 4.578-1.86 2.594 0 4.5 1.86 1.907 1.844 1.907 4.531 0 2.688-1.907 4.594Q28.906 0 26.312 0q-2.671 0-4.578-1.906-1.906-1.907-1.906-4.594zm0-30.219q0-2.593 1.906-4.484 1.907-1.906 4.578-1.906 2.594 0 4.5 1.906 1.907 1.891 1.907 4.484 0 2.641-1.907 4.594-1.906 1.953-4.5 1.953-2.671 0-4.578-1.953-1.906-1.953-1.906-4.594z"/><path id="I" d="M9.516-2.781v-51.813H3.812q-2.437-.297-2.828-2.828v-.875q.391-2.5 2.829-2.781h10.203q2.484.281 2.781 2.781v19.281q5.515-4.687 12.703-4.687 5.609 0 10.094 3.172 4.5 3.172 6.968 8.281 2.469 5.094 2.469 10.672 0 5.703-2.719 10.859-2.703 5.156-7.468 8.235Q34.078.594 28.328.594q-6.406 0-11.531-4.89v1.515q-.141 1.172-.875 1.906T14.016 0h-1.704q-2.5-.297-2.796-2.781zM27.78-5.906q4 0 7.203-2.25 3.204-2.25 4.954-5.906 1.765-3.657 1.765-7.516 0-3.672-1.594-7.328-1.578-3.656-4.515-5.969-2.922-2.328-6.782-2.328-2.64 0-5.156 1.156-2.515 1.141-4.328 3.235-1.797 2.093-2.531 4.734v10.594q1.031 4.687 3.812 8.14 2.782 3.438 7.172 3.438z"/><path id="J" d="M2.875 8.203q0-3.812 1.984-7.11 1.985-3.296 5.25-5.39-1.265-1.656-1.828-3.406-.562-1.766-.562-3.672 0-3.563 2-6.844-3.125-4.187-3.125-9.375 0-4.344 2.343-8.078 2.344-3.734 6.172-5.875 3.844-2.156 8.188-2.156 5.656 0 9.609 2.875 2.344-1.656 5.125-2.5 2.797-.86 5.672-.86 2.781 0 4.969 1.547 2.203 1.532 2.203 4.157 0 1.765-1.219 2.984-1.218 1.219-2.875 1.219-3.172 0-4.109-3.422-2.344 0-5.266 1.515 2.578 3.907 2.578 8.594 0 3.282-1.375 6.282-1.359 3-3.625 5.124-2.265 2.126-5.375 3.391-3.093 1.266-6.312 1.266-4.735 0-8.891-2.485-.484 1.563-.484 2.735 0 1.562.75 2.906.766 1.344 2.219 1.875.297-.047.531-.063.25-.03.594-.03.203 0 .468.077.266.063.5.141.25.078.407.078h7.031q5.953 0 11.031 1.078 5.078 1.063 8.563 4.266 3.5 3.203 3.5 9.156 0 3.766-2.235 6.594-2.219 2.828-5.859 4.625-3.625 1.812-7.641 2.64-4 .844-7.562.844-3.563 0-7.547-.844-3.969-.828-7.641-2.64-3.656-1.797-5.906-4.625-2.25-2.828-2.25-6.594zm6.203 0q0 2.828 3.031 4.688 3.032 1.859 7.11 2.734t7 .875q2.828 0 6.953-.875 4.14-.875 7.14-2.734 3-1.86 3-4.688 0-5.469-5.031-6.937-5.031-1.47-12.297-1.47h-7.578q-3.703 0-6.515 2.423Q9.078 4.64 9.078 8.203zm14.219-26.125q2.625 0 4.75-1.312 2.125-1.328 3.391-3.516 1.281-2.203 1.281-4.844 0-2.578-1.25-4.797-1.25-2.234-3.422-3.578-2.172-1.343-4.75-1.343-3.859 0-6.625 2.937-2.75 2.922-2.75 6.781 0 3.813 2.75 6.75 2.766 2.922 6.625 2.922z"/><path id="K" d="M11.531 8.203q-1.078-.14-1.906-.922-.828-.781-.828-1.953 0-1.719 1.219-2.344 4.14-2.687 7.609-6.421 3.469-3.735 5.781-8.063 2.328-4.328 3.5-9.125 1.172-4.813 1.172-9.984 0-5.141-1.172-9.985-1.172-4.859-3.5-9.156-2.312-4.297-5.594-7.938-3.265-3.64-7.609-6.421-1.406-.735-1.406-2.391 0-1.172.781-1.953.781-.781 1.953-.938h1.063q.297 0 1.515.5 6.594 3.953 11.375 9.985 4.797 6.031 7.36 13.359 2.562 7.313 2.562 14.938 0 7.703-2.562 15.015-2.563 7.297-7.36 13.328-4.781 6.032-11.375 9.985-1.218.484-1.515.484h-1.063z"/><path id="L" d="M67.5-22.797 12.094 3.297Q10.797 4 10.297 4q-1.594 0-1.89-1.5-.11-.297-.11-.5 0-1.203 1.906-2.203L62.703-25l-52.5-24.797q-1.906-1-1.906-2.203 0-1.594 1.5-1.906.297-.094.5-.094.5 0 1.797.703L67.5-27.203q1.906.906 1.906 2.203 0 1.297-1.906 2.203z"/><path id="M" d="M25.984 1.125q-5.375 0-9.625-2.953T9.297-9.656Q6.5-14.547 5.157-20.062q-1.345-5.532-1.345-10.547 0-6.844 2.485-14.282 2.5-7.453 7.515-12.375 5.032-4.937 12.172-4.937 6.391 0 11.61 4.391 1.125-2.485 1.734-3.344.61-.86 2.078-1.047h.782q2.343.281 2.734 2.687v16.938q-.391 2.39-2.734 2.687h-1.907q-2.14-.343-2.578-2.39-.391-3.172-1.687-6.266-1.297-3.109-3.672-5.141-2.36-2.031-5.641-2.031-5.078 0-8.641 4.157Q14.5-47.406 12.781-41.5q-1.703 5.906-1.703 10.984 0 4.922 1.688 10.891 1.687 5.953 5.203 10.078 3.515 4.125 8.547 4.125 3.265 0 5.75-2.484 2.5-2.5 3.812-6.078 1.328-3.594 1.328-6.719h-5.422q-1.172-.141-1.906-.875t-.875-1.906v-.938q.141-1.172.875-1.89.734-.735 1.906-.891h14.797q1.219.156 1.953.891.735.718.875 1.89v.938q-.14 1.172-.875 1.906-.734.734-1.953.875h-1.859v18.015Q44.531-.203 42.094.095h-1.719q-1.172-.14-1.906-.875-.719-.735-.875-1.906v-1.126q-2.235 2.297-5.266 3.626-3.031 1.312-6.344 1.312z"/><path id="N" d="M67.5-49.797 15-25 67.5-.203q1.906 1 1.906 2.203 0 1.594-1.5 1.906-.312.094-.5.094-.5 0-1.812-.703L10.203-22.797Q8.297-23.703 8.297-25q0-1.297 1.906-2.203l55.391-26.094Q66.906-54 67.406-54q1.594 0 1.891 1.5.109.297.109.5 0 1.203-1.906 2.203z"/><path id="O" d="M21.188 13.922q-1.219 0-2.25-1.078-1.016-1.078-1.016-2.344 0-1.656 1.562-2.594 2.594-1.172 4.391-3.203Q25.688 2.687 26.312 0q-2.734 0-4.609-1.875-1.875-1.89-1.875-4.625 0-2.688 1.906-4.531 1.907-1.86 4.578-1.86 3.579 0 5.235 3.063 1.656 3.047 1.656 7.047 0 5.265-2.953 9.812t-7.734 6.594q-.594.297-1.328.297zm-1.36-50.641q0-2.593 1.906-4.484 1.907-1.906 4.578-1.906 2.594 0 4.5 1.906 1.907 1.891 1.907 4.484 0 2.641-1.907 4.594-1.906 1.953-4.5 1.953-2.671 0-4.578-1.953-1.906-1.953-1.906-4.594z"/><path id="P" d="M29.109.594q-5.921 0-11.031-3-5.094-3.016-8.047-8.094-2.953-5.078-2.953-11.078 0-5.969 2.922-11.141 2.938-5.172 7.984-8.219Q23.047-44 29.109-44q6.782 0 11.532 1.297 4.765 1.297 4.765 6.172 0 1.375-.609 2.484-.609 1.094-1.641 1.735-1.015.624-2.328.624-1.906 0-3.328-1.359-1.422-1.375-1.422-3.234.063-.297.078-.516.032-.219.032-.312-2.297-.391-6.891-.391-3.125 0-5.891 1.297-2.75 1.297-4.75 3.515-2 2.219-3.125 5.126-1.125 2.906-1.125 5.984 0 6.344 4.656 11.016 4.672 4.656 11.11 4.656 6.984 0 9.422-6.297.89-1.328 2.406-1.609h1.891q1.125.14 1.906.921.781.782.781 2 0 .391-.187.985-1.953 5.36-6.579 7.937Q35.203.594 29.109.594z"/><path id="Q" d="M2.39-2.781v-.938Q2.688-6.156 5.173-6.5h4.344v-48.094H5.172q-1.125-.14-1.875-.89-.75-.766-.906-1.938v-.875q.296-2.453 2.78-2.781H45.22q2.484.281 2.781 2.781V-48q-.297 2.484-2.781 2.781H43.5q-2.484-.297-2.781-2.781v-6.594H16.797v19.688H29.5v-2.891q.281-2.484 2.828-2.781h1.656q1.219.14 1.954.828.734.688.874 1.953v12.313q-.14 1.265-.874 1.953-.735.672-1.954.828h-1.656Q29.781-23 29.5-25.484v-2.938H16.797V-6.5h26.125v-8.203q.297-2.485 2.781-2.781h1.703q2.5.296 2.797 2.781v11.922Q49.906-.297 47.406 0H5.172Q2.688-.344 2.39-2.781z"/><path id="R" d="M13.375-2.781v-.938q.391-2.484 2.844-2.781h6.39v-48.094H9.906V-48q-.14 1.266-.875 1.953-.734.688-1.953.828H5.422Q2.875-45.516 2.594-48v-10.297q.281-2.5 2.828-2.781h41.594q2.5.281 2.796 2.781V-48q-.296 2.484-2.796 2.781h-1.704q-2.531-.297-2.828-2.781v-6.594H29.891V-6.5h6.39q1.219.156 1.953.844.735.672.875 1.937v.938q-.14 1.172-.875 1.906-.734.734-1.953.875H16.219q-2.453-.297-2.844-2.781z"/><path id="S" d="M70.797-23.297 61.594-1.703Q61-.297 60.203-.093h-.109Q59.703 0 58.5 0H6.594q-2.5 0-2.688-.797-.11-.11-.11-.406 0-1.703 1.61-1.89h1.188q6.5 0 7.812-1.407.594-.703 1.188-2.797 0-.11.109-.5l13.203-52.906q.5-1.797.5-2.391 0-1.703-4.609-1.812h-1.891q-2.609 0-2.812-1.094 0-1.797 1.609-2h51.891q2.406 0 2.609.703h.094q.203.594 0 2l-2 17.297q-.703 2.297-1.391 2.5-1.203 0-1.203-1.203l.094-1.703v-.094q.406-2.703.406-5.297 0-7-3.906-9.203Q65-64.906 57-64.906H42.906q-3.703 0-4.406 1.109h-.094v.094q-.312.406-.5 1.203v.094l-.109.109q-.094.391-.297 1.297l-6 24.094h9.406q7.594 0 10.094-3 1.594-1.891 3-6.891.406-1.703 1.406-1.797 1.188 0 1.188 1.094l-5.688 23.406q-.5 1.891-1.5 2-1.312 0-1.312-1.109 0-.391.312-1.094.688-3 .688-4.906 0-2.703-1.5-3.5-1.891-1.094-7-1.094h-9.891L23.906-6.5q-.5 1.797-.5 2.297 0 .797.891 1h.406q.594.11 2.203.11H41.5q12.203 0 18-5.61 3.797-3.594 8.297-13.5.406-1.094 1-2.391.406-1.203 1.297-1.203 1.203 0 1.203 1.094 0 .109-.5 1.406z"/><path id="T" d="M39.094-37.406Q37-41.797 30.094-42 22-42 19.5-35.906q-.594 1.5-.594 2.906 0 3.906 4.797 5.297l.094.109q.703.188 2.703.594 6.203 1.297 8.297 2.797.906.609 1.703 1.406 3.094 3.094 3.094 7.297 0 5.203-3.891 9.906Q30.094 1.094 19.5 1.094q-9.297 0-12.906-5.188-1.39-2-1.39-4.5 0-4.906 3.796-6.312.906-.297 1.797-.297 3.297.5 3.703 3.5 0 3.11-2.703 4.61-1.594 1-3.594.687Q10.5-1.094 19.594-1.094q10.312 0 13.5-7.5.812-1.906.812-3.5 0-4.812-5.906-6.609h-.094q-1.5-.391-4.406-1-9-1.891-10.094-8-.203-.891-.203-1.891 0-5 3.797-9.312 4.703-5.297 13.094-5.297Q38-44.203 41-39.297q1 1.703 1 3.703 0 4.5-3.406 5.391Q38-30 37.406-30q-2.812-.406-3.109-2.906 0-2.688 2.703-4 1-.5 2.094-.5z"/><path id="U" d="M5.61 139.98v-5.36q16.406 0 16.406-10.01V15.375q0-9.953-16.407-9.953V0H122.12v5.422q-16.4 0-16.4 9.953V124.61q0 10.01 16.4 10.01v5.36H73.578v-5.36q16.406 0 16.406-10.01V5.422H37.703V124.61q0 10.01 16.406 10.01v5.36h-48.5z"/><path id="V" d="m4.5 12.203 11.203-44.5q.703-3 .703-5.109 0-4.594-3.109-4.594-4.094 0-6.703 9.5-.297 1.094-.594 2.406-1.094 2.188-1.703 2.297-1.203 0-1.203-1 0-1.609 1.812-6.703.688-1.797 1.297-3 2.39-4.906 6-5.594.703-.109 1.391-.109 5.406 0 7.906 4.406v.094q.797 1.297 1.094 3 6.312-7.5 13.109-7.5 7.094 0 10.891 6.406 2.203 4.5 2.406 9.594 0 10.797-7.594 20Q34.5.203 26.297 1q-.703.094-1.391.094-6.312 0-9.203-6.39Q12 7.905 10.906 14.093q-.109.5-.109.609 0 1.094 1.297 1.391h.109q1.203.203 3.594.203 2.203 0 2.406 1.109 0 2-1.797 2l-9.812-.312H6.5l-8.203.312h-.203q-1.297 0-1.297-1.203.61-1.797 2.297-1.906 3.703 0 4.5-1.297l.11-.094q.202-.406.39-1.109.11-.5.406-1.594zm17.594-43.406-4.891 19.609q-.297 1.188-.297 1.594 0 2.297 1.797 5.203 1.094 1.89 2.797 2.89 1.5.813 3.297.813 5.109 0 9.609-6.406 1.297-1.797 2.297-3.906 2.703-5.688 4.5-15.391.594-3.5.594-5.797 0-7.906-4.797-9.203Q36.203-42 35.406-42q-3.812 0-8.109 3.797-4.297 3.609-5.203 7z"/><path id="W" d="M29.797-22.594h-16.5q-1.094 4.391-1.094 8.5 0 9.188 6.391 12.094 2 .906 4.406.906 4.797 0 10.5-3.703.906-.61 1.297-.61 1 0 1 1.407 0 1-4 2.906-4.594 2.188-9 2.188-9.594 0-14.703-7.39-3.39-4.907-3.39-11.501 0-11.797 9.39-19.297 7.5-6 17-6h3.5q2.703 0 3 1.391Q37-40 34.297-40h-3.094Q19.594-40 15-28.406q-.5 1.312-.906 2.703h16.203q2.609 0 2.906 1.406 0 1.703-3.406 1.703z"/><path id="X" d="M8.797-5.906 14.594-29q1.609-6.406 1.609-8.406 0-4.594-3.109-4.594Q9-42 6.406-32.5q-.312 1.094-.61 2.406-1.093 2.188-1.702 2.297-1.188 0-1.188-1 0-1.609 2-7.203v-.094q0-.109.094-.109v-.203l.906-2.094q2.188-4 4.5-5 1.391-.703 3-.703 5.594 0 8.094 4.703.906 1.797 1.094 4Q29-44.203 38.203-44.203q8.594 0 10.891 6.609.609 1.797.609 4.094 0 5.094-6.109 22-1.797 4.406-1.797 7.094 0 3.312 2.406 3.312 6.594 0 10.203-12.406.5-1.594 1-1.703v-.094h.5q1.188 0 1.188 1Q57.094-12.594 55-8q-4.297 9.094-11 9.094-5.094 0-7.297-4.297-.906-1.797-.906-3.89 0-2 1-4.61 6.5-17.5 6.5-23.297 0-7-5.391-7-9 0-15.109 10-.703 1.094-1.203 2.203l-1.297 5q-.5 2.297-1.703 6.703l-2.188 9q-1.703 6.89-1.906 7.39-.906 2.61-3.703 2.798-2.5-.5-2.89-2.688 0 .188.89-4.312z"/><path id="Y" d="M59.297-6.297Q55.406.406 45 1.906q-2.203.297-4.406.297-13.797 0-23.891-9.797-10.297-10-11.11-24.703v-1.906q0-14.891 10.11-25.5 9.5-10 22.797-10.703.906-.094 1.906-.094 9.688 0 17.594 7.703l.094.094.109.109.703.688 5-7.391Q64.703-70.5 65.5-70.5q1 .906 1.094 2.406v23.688q0 2.109-.594 2.312-.297.094-1 .094-1.297 0-1.5-.906 0-.188-.094-.797Q61.5-57.5 52.594-63.797q-5-3.609-11-3.609-8.594 0-15.297 5.609-1.797 1.391-3.203 3.203-7.188 8.688-7.188 24.391 0 23.109 15 30.61 5.5 2.687 11.297 2.687 7.5 0 11.891-3.797Q57.703-7.797 57.703-13v-6.406q0-3-1.297-3.797h-.109q-1.594-1-7.891-1h-3.203v-3.094Q48.797-27 61.297-27q1.109 0 12.203-.297v3.094q-5.5 0-6.406 1.203v.094q-.5.703-.5 3.109v17.39q0 2.204-.891 2.313-1.297 0-4.797-4-1.109-1.312-1.609-2.203z"/><path id="Z" d="M47.797.906q3 6.594 9.797 9.391 3.5 1.406 7.406 1.406 2.703 0 5.5-.703.703-.203 1-.203 1.406 0 1.703 1.797 0 1.203-2.109 2l-.094.109h-.094q-.109.094-.5.203-7.812 3-15.703 3-13.203 0-21.703-9.61-3.203-3.5-5.094-7.89Q15-3 8.406-13.906q-5.11-8.594-5.11-20.391 0-19.609 13.501-29.406 9.297-6.703 22.109-6.703 15.391 0 25.297 9.312 6.797 6.5 9.094 16.391 1.203 4.906 1.203 10.5Q74.5-14.797 61.203-5 55.297-.594 47.797.906zm-22.703-65L25-64.203Q15.297-60.5 10.5-51.094q-3.703 7.188-3.703 16.891 0 18.297 12.703 27 2.703 1.906 5.703 3-7.797-9.203-7.797-30.094 0-20.797 7.688-29.797zm27.703-.109-.094.109q7.703 9 7.703 29.891 0 20.797-7.812 30 10.406-4 15.203-14.203Q71-25.203 71-34.297q0-18-12.297-26.797-2.906-2-5.906-3.109zM38.906-1.593Q54-1.594 56.5-25.298q.406-4.203.406-9Q56.906-61.5 44.094-66q-2.391-.906-5.188-.906-15.109 0-17.609 23.703-.391 4.203-.391 9Q20.906-7 33.703-2.5q2.391.906 5.203.906zm-6.609 3Q38.406 12 50.297 14q2.203.406 4.406.406 3.094 0 3.094-.203 0-.109-1.094-.5-8.703-3.5-12.406-12.11-2.797.313-5.391.313-3.812 0-6.609-.5z"/><path id="aa" d="M43.906-71.203 9.703 22.594q-.797 2.109-1.61 2.312L8 25h-.5q-1.594 0-1.906-1.5-.094-.297-.094-.5 0-.5.5-1.797l34.703-95.297q.5-.906 1.703-.906 1.594 0 1.891 1.5.109.297.109.5 0 .5-.5 1.797z"/><path id="ab" d="M59.594-64.906 22-3.5h14.203Q49-3.5 56-12.797q3-4 3.906-8.5.391-2.609 1.391-2.906.203-.094.609-.094 1.391 0 1.688 1.797L60.906-2.797Q60.5-.5 59.797-.203h-.094Q59.203 0 57.5 0H6.203q-3 0-3.297-1.203-.11-.297-.11-.594 0-.5.907-1.797L41.297-65h-8.094q-9.906 0-16.109 4-6.297 3.906-7.39 10.594-.407 1.5-1.704 1.5-1.5-.391-1.797-1.891l.203-1.297 1.5-13.5q.297-2.312 1-2.609.39-.203 1.391-.297h46.906q2.703 0 3.203 1v.094q.094.312.094.703 0 .5-.906 1.797zM11.297-65l-.5 4.5q3.297-3 5.797-4.406V-65h-5.297zm34.109 0L7.703-3.5h10.203L55.594-65H45.406zm5.297 61.406v.094H57.5q.797-5.906.906-6.703-3.406 4.11-7.703 6.61z"/><path id="ac" d="M13.297-8.297q.906-.297 2.703-.297 2.594 0 7 1.688 3.906 1.312 5.906 1.312 5.297 0 9.094-3.812 2-1.891 2.906-4.594.594-1.297 1.391-1.297 1.203 0 1.203 1 0 2.594-3.203 7.39-5.391 8-12.5 8-3.391 0-6.391-3.687-2.812-3.312-4.5-3.703-.5-.11-1.312-.11-4.391 0-8.5 6.204Q6.406 1.094 5.5 1.094q-1.203 0-1.203-1 0-1.188 4.61-6.797Q11.5-9.906 14.593-13l9-8.406Q33.5-29.797 37.5-34.5q-3.594 0-7.703-1.5-4.297-1.5-6.297-1.5-5.797 0-8 3.797-.297.406-.5.906-.406 1.094-1.297 1.094-1.203 0-1.203-1.094 0-2.203 2.906-6 4-5.406 9.188-5.406 3.312 0 6.203 3.5l.109.109q.188.297.594.688 2.406 2.703 3.906 3.109.594.094 1.188.094 3.406 0 7.109-5.797l.391-.594q.609-1.109 1.5-1.109 1.109 0 1.109 1 0 1.203-4.203 6.406-3 3.703-7.5 8.094-.594.609-9.5 8.703l-.297.297q-6.5 5.609-11.906 11.406z"/><path id="ad" d="M50.797-27.203q5.906-10 14.406-14.391 5-2.609 10.203-2.609 9.594 0 15.094 8.906 3.797 6.094 3.797 13.703 0 10.391-6.391 17.094-5.312 5.594-12.812 5.594-8.797 0-17-6.89-2.188-1.907-6.688-7.298l-2.312-2.812q-5.891 10-14.391 14.406-5 2.594-10.203 2.594-9.594 0-15.094-8.89-3.812-6.11-3.812-13.704 0-10.406 6.406-17.094 5.297-5.609 12.797-5.609 8.797 0 17 6.906Q44-35.406 48.5-30l.406.5q.594.797 1.891 2.297zm2.609 3.5L63-11.406q.094 0 .094.109l.406.391q6.594 7.203 13.203 7.203 7.203 0 11.891-6.5 3.5-4.891 3.5-11.391 0-8.812-5.297-14.609-3.891-4.297-9.5-4.797h-1.203Q63.5-41 53.906-24.594q-.203.391-.5.891zM46.5-19.406l-9.594-12.297-.109-.094-.391-.406q-6.609-7.203-13.203-7.203-7.203 0-11.906 6.5Q7.797-28 7.797-21.5q0 8.797 5.297 14.594 4.312 4.812 10.703 4.812Q36.406-2.094 46-18.5q.203-.406.5-.906z"/><path id="ae" d="M6.594 139.98q-.985 0-.985-1.06 0-.44.297-.73l52.782-61.487L5.906 4.391q-.297-.282-.297-.485V.875q0-.344.313-.61Q6.25 0 6.594 0H126.61l12.11 28.078h-2.92q-4.64-10.64-15.53-15.781-10.89-5.125-22.739-6.328Q85.688 4.78 70.016 4.78H23.781L71 69.281q.188.391.188.735 0 .296-.188.687L19.094 131.11H71q15.375 0 27.266-1.2 11.894-1.19 22.654-6.35 10.77-5.15 14.88-15.75h2.92l-12.11 32.17H6.594z"/><path id="af" d="M18.703-23.094h-5.297q-1.609 6.5-1.609 10.391 0 7.906 4.609 10.61 1.688 1 4.094 1 9 0 16.203-6Q38.797-8.798 40.5-11q.703-1 1.297-1 .906 0 1.203 1.297 0 1.11-3.406 4.297-8.297 7.5-19.297 7.5-9 0-13.203-7.688-2.5-4.5-2.5-10.406 0-13.094 10.203-21.203 7.5-6 16-6 7.203 0 9.797 5 .906 1.609.906 3.5 0 5.203-4.5 8.609l-.094.094q-1.312.906-2.906 1.594-5.5 2.312-15.297 2.312zM14-25.297h4.094q20.109 0 20.109-10.406 0-4-3.906-5.703-1.391-.5-3.5-.594-5.594 0-10.297 4.594Q16-33 14-25.297z"/><path id="ag" d="m26.5-37.297-5.594 22.094q-1.703 6.406-2.703 9.797Q16.594-.5 15.203.5v.094q-.906.5-2 .5-2.297 0-2.797-2-.109-.297-.109-.688 0-.906.797-2.406Q20.5-24.297 23.906-37.297h-5.703q-7.797 0-12.703 7.703-.906 1.188-1.594 1.188-1.203 0-1.203-1 0-1.094 3.594-6Q7-36.203 7.594-37q.312-.406.703-.797.203-.297.5-.609 4.406-4.688 10.406-4.688h33.5q3.391 0 3.891 1.5v.094q.109.297.109.797 0 3.406-4.906 3.406H40.406q-1.812 8.5-1.812 15.891 0 9.312 2.906 16.5.594 1.406.594 2.203 0 2.297-2.5 3.406-.797.39-1.594.39-2 0-3-2.796-.297-.89-.594-2.203-.812-3.39-.812-7.594 0-6.594 2.703-19.094l1.5-6.703H26.5z"/><path id="ah" d="M28.406-62.5q0 3.094-3.109 4.703-1.094.594-2.203.594-3 0-3.688-2.703-.109-.5-.109-.891 0-2.797 2.797-4.5 1.312-.797 2.609-.797 3 0 3.594 2.688v.109q.109.391.109.797zm-7.609 37.594-3.891 10.5q-2.812 8.11-2.906 10 0 3.312 2.406 3.312 6.297 0 9.797-11.203l.391-1.203q.5-1.594 1-1.703v-.094h.5q1.203 0 1.203 1 0 1.797-2.203 6.39-4.297 9-10.891 9-5.297 0-7.406-4.39Q8-5.094 8-7.094t2.297-8q7-18.812 6.906-18.5 1.094-2.812 1.094-5.203 0-3.203-2.5-3.203-5.5 0-9 9.094v.109q-.594 1.5-1.094 3.203-1.11 1.688-1.61 1.797-1.187 0-1.187-1 0-1.797 2.188-6.297 4.312-9.109 11-9.109 5.312 0 7.406 4.5.797 1.703.797 3.703 0 2-1.297 5.297-1.703 4.609-2.203 5.797z"/><path id="ai" d="M2.797-16.5v-3.094L33.5-66.5q.797-1.203 2-1.203 1.406 0 1.594 1.109v47h10v3.094h-10v8.703q0 3.094 1.203 3.797 1.406.906 6.406.906h2.094V0q-4.094-.297-13.594-.297-9.406 0-13.5.297v-3.094h2.094Q28-3.094 29-4.797q.406-.703.406-3V-16.5H2.796zM30-19.594v-37.312L5.594-19.594H30z"/><path id="aj" d="M29.406-37.297 22.703-3.094Q21.906.703 19.5 1.094q-.5.11-.906.11-2.594 0-2.891-2.704 0-.703 1-3.703L26.5-37.297h-8.297q-7.797 0-12.703 7.703-.906 1.188-1.594 1.188-1.203 0-1.203-1 0-1.094 3.594-6 1.297-1.688 2.5-3 4.406-4.688 10.297-4.688h28q3.406 0 3.906 1.5v.094q.094.297.094.797 0 3.406-4.891 3.406H29.406z"/><path id="ak" d="M45.203-43.094 31.406 12.5Q31 14.297 31 14.703q0 1.094 1.297 1.391 1.109.203 3.5.203 2.406 0 2.609 1.109 0 2-1.812 2l-10.188-.312h-.109l-9.891.312h-.109Q15 19.406 15 18.297q.797-1.891 2.297-2Q22.5 16.203 23.594 15q.5-.594.906-2L29-4.906q-6 6-11.797 6-7 0-10.703-6.297Q4-9.297 4-14.906q0-10.688 7.5-19.891 6.906-8.5 15.203-9.297.703-.109 1.391-.109 6.406 0 9.312 7 2.094-3.594 5.391-6.203L43-43.5q.797-.594 1.203-.594 1 0 1 1zm-27.703 42q5.297 0 10.797-6.5 1.203-1.5 1.906-2.703.594-.797 5.391-20.906.406-1.797.406-2 0-2.203-1.797-5.094Q32-42 28.094-42q-4.891 0-9.297 6.094-1.797 2.5-3.094 5.5-2.797 7-4.203 16.109-.406 2.297-.406 3.797 0 6.5 3.5 8.594l.109.11q1.203.702 2.797.702z"/></defs><g stroke-linecap="square" stroke-miterlimit="10"><g fill="none" stroke="#c00" stroke-linecap="round" stroke-linejoin="round" stroke-opacity=".698" stroke-width="3.5" clip-path="url(#clip1)"><path d="M461.98 244.62v-1.6l.03-1.61.06-1.61.09-1.61.12-1.61.14-1.61.18-1.61.12-.98.09-.63.26-1.61.29-1.61.33-1.61.36-1.61.39-1.61.42-1.61.46-1.61.49-1.6.36-1.14.81-2.08.66-1.61.7-1.61.74-1.61.54-1.13 1.2-2.09.98-1.61 1.01-1.61 1.19-1.61 1.27-1.61 1.26-1.53 1.69-1.69 1.66-1.61 2.03-1.61 1.53-1.16.71-.45 2.63-1.6 3.33-1.61 3.69-1.39.77-.22 2.68-.74 3.45-.71 1.15-.16 2.31-.32 3.45-.32 3.45-.17 3.46-.09 3.45-.02h3.45l3.46-.02 3.45-.07 3.45-.15 3.45-.28 1.38-.17 2.08-.26 3.45-.62 3-.73 3.91-1.19 1.06-.42 2.39-.93 1.43-.68 2.02-.94 1.18-.67 2.28-1.26.53-.35 2.51-1.61 2.24-1.61 1.62-1.17.53-.44 1.97-1.61.96-.76.91-.85 1.79-1.6.75-.67.94-.94 1.64-1.61.87-.84.71-.77 1.51-1.61 1.23-1.3 1.67-1.92 1.42-1.61 1.34-1.61 1.32-1.61 1.16-1.39 1.41-1.83 1.25-1.61.79-.99.45-.62 1.17-1.61 1.2-1.61.64-.84.53-.77 1.12-1.6 1.15-1.61.65-.91.46-.7 1.08-1.61 1.1-1.61.81-1.19 1.31-2.03 1.05-1.61 1.06-1.61.99-1.61 1.01-1.61 1.02-1.61.47-.73.52-.88.97-1.61.98-1.61.98-1.58.95-1.63.94-1.61.96-1.61.61-1.02.33-.59.91-1.61.92-1.61.93-1.61.36-.61.55-1 .88-1.61.9-1.609.91-1.609.87-1.61.87-1.609.88-1.609.89-1.61.85-1.609.84-1.609.86-1.61.87-1.609.83-1.609.83-1.61.83-1.609.85-1.61.3-.571.52-1.038.81-1.609.82-1.61.82-1.609.49-.931.33-.679.79-1.609.8-1.609.81-1.61.72-1.428.86-1.79.78-1.61.79-1.609.8-1.609.77-1.61.76-1.609.78-1.61.77-1.609.59-1.21.94-2.009.75-1.609.77-1.61.76-1.609.75-1.609.74-1.61.74-1.609.75-1.609.71-1.5.77-1.719.73-1.609.74-1.61.74-1.609.47-1.022.26-.588.72-1.609.72-1.609.72-1.61.73-1.609.31-.662.41-.948.7-1.609.72-1.609.71-1.61.72-1.609.7-1.609.7-1.61.7-1.61.7-1.608.72-1.61.68-1.61.69-1.609.69-1.609M461.98 244.62l.03 1.61.05 1.61.09 1.61.11 1.61.14 1.61.17 1.61.15 1.17.32 2.05.29 1.61.32 1.61.36 1.61.38 1.61.42 1.61.45 1.61.49 1.61.42 1.31.73 1.9.66 1.61.7 1.61.74 1.61.62 1.31 1.1 1.91.97 1.61 1.01 1.61.38.58.78 1.03 1.27 1.61 1.32 1.61 3.24 3.22 1.99 1.61 1.76 1.34 3.04 1.87 3.24 1.61.62.29 3.46 1.29 3.45.95 3.36.69 3.55.5 3.45.32 3.45.18 3.46.08 3.45.02 3.45.01 3.46.01 3.45.07 3.45.15 3.34.27 3.57.44 5.7 1.17 1.2.29 3.46 1.08.6.24 2.85 1.11 3.45 1.63 3.46 1.92 2.75 1.78.7.44 1.58 1.17 1.87 1.35 2.27 1.87 1.19.95 2.5 2.27.95.84 2.39 2.37 1.06 1.03.54.58 1.5 1.61 1.41 1.48 1.51 1.74 1.42 1.61.53.59.82 1.02 1.32 1.61 1.31 1.57 1.26 1.65 1.26 1.61.93 1.18 1.49 2.04 1.2 1.61.77 1.02 1.53 2.19 1.14 1.61.78 1.09 1.42 2.13 1.09 1.61.94 1.37 1.19 1.85 1.05 1.61 1.06 1.61 1 1.61 1.01 1.61 1.02 1.61.58.91 1.38 2.31.98 1.61.99 1.61 1.88 3.21.96 1.61.72 1.2 1.14 2.02.92 1.61.93 1.61.46.79.45.82.88 1.61.9 1.61.91 1.61.31.55.57 1.06.86 1.61.88 1.61.89 1.61.85 1.61.85 1.6.85 1.61.87 1.61.29.54 1.37 2.68.84 1.61.84 1.61.4.75.43.86.81 1.61.81 1.61.83 1.61.58 1.11 1.03 2.11.8 1.61.8 1.61.82 1.61 1.55 3.21.79 1.61.8 1.61.31.63 1.23 2.59.77 1.61.78 1.61.67 1.39.85 1.83.76 1.61.76 1.61.77 1.61.32.67 1.16 2.55.75 1.61.75 1.6.76 1.61 1.45 3.22.74 1.61.74 1.61.55 1.2.9 2.02.72 1.61.72 1.61.73 1.61.39.84.33.77.71 1.61.71 1.61.71 1.61.72 1.61.27.59 1.13 2.62.7 1.61.71 1.61.71 1.61.69 1.61.68 1.61.69 1.61.7 1.61.7 1.61.68 1.61.68 1.61.68 1.61.69 1.61.69 1.61.23.53.44 1.08.67 1.6.67 1.61.68 1.61.68 1.61.31.73.36.88.66 1.61.66 1.61.67 1.61.67 1.61"/></g><g fill="none" stroke="#33f" stroke-linecap="round" stroke-linejoin="round" stroke-opacity=".698" stroke-width="3.5" clip-path="url(#clip2)"><path d="m185.85 520 525-525"/></g><g fill="none" stroke="#090" stroke-dasharray="7.5 4" stroke-linecap="butt" stroke-linejoin="round" stroke-opacity=".698" stroke-width="3.5" clip-path="url(#clip3)"><path d="m636.39 69.462.04 348.968"/></g><g fill="#7d7dff" clip-path="url(#clip4)"><use xlink:href="#a"/></g><g fill="none" stroke="#000" stroke-linecap="round" stroke-linejoin="round" clip-path="url(#clip5)"><use xlink:href="#a"/></g><g fill="#7d7dff" clip-path="url(#clip6)"><use xlink:href="#b"/></g><g fill="none" stroke="#000" stroke-linecap="round" stroke-linejoin="round" clip-path="url(#clip7)"><use xlink:href="#b"/></g><g fill="#7d7dff" clip-path="url(#clip8)"><use xlink:href="#c"/></g><g fill="none" stroke="#000" stroke-linecap="round" stroke-linejoin="round" clip-path="url(#clip9)"><use xlink:href="#c"/></g><g fill="#7d7dff" clip-path="url(#clip10)"><use xlink:href="#d"/></g><g fill="none" stroke="#000" stroke-linecap="round" stroke-linejoin="round" clip-path="url(#clip11)"><use xlink:href="#d"/></g><g clip-path="url(#clip12)" transform="matrix(.25 0 0 .25 673 419.75)"><path d="M37.5-61.406 31-35.297h11.203q11.094 0 16.891-5.797Q63.5-45.5 64.5-53.297v-.109q.094-1.094.094-1.891 0-8.906-12.594-9.797h-.203q-1.891-.109-5.391-.109-5.203 0-6.109.109-1.797.297-2.391 2.188-.109.5-.406 1.5zM51.906-34q8.594 3.203 9.297 10.5.094.594.094 1.297 0 1.906-.391 4.703-1 8-1 11.406 0 5.188 2.594 5.89h.094Q63.203 0 63.906 0q4.297 0 7.297-5.203Q72.297-6.906 73-9.093q.406-1.407 1.297-1.407 1.203 0 1.203 1.203 0 2-2.406 5.594-1.891 2.906-4.391 4.5-2.406 1.406-5.203 1.406-8.297 0-11.594-4.906-1.703-2.39-1.703-5.89 0-2.11 1.594-8.501Q53.203-22.5 53.203-24q0-6.203-5.609-8.203v-.094q-2.297-.797-5.297-.797H30.406l-6.609 26.5-.297 1.688q0 1.703 4.594 1.812H30q2.594 0 2.797 1.094 0 2-2 2L18.203-.297h-.109L5.594 0H5.5Q4.094 0 4.094-1.094q0-1.812 1.5-2h1.203q6.5 0 7.797-1.406.609-.703 1.203-2.797 0-.11.109-.5L29.297-61.5q.406-1.594.406-1.906 0-1.188-1.609-1.5h-.188q-.312 0-.906-.094-1.703-.203-3.797-.203-2.609 0-2.797-1.094 0-1.797 1.5-2h29.891q12.5 0 18.609 6.594 3.5 3.609 3.5 8.406 0 8.703-10.703 14.891Q58-35.297 51.906-34z"/></g><g clip-path="url(#clip13)" transform="matrix(.25 0 0 .25 699.12 419.75)"><use xlink:href="#e"/></g><g clip-path="url(#clip14)" transform="matrix(.25 0 0 .25 725.51 419.75)"><use xlink:href="#f"/></g><g clip-path="url(#clip15)" transform="matrix(.25 0 0 .25 750.59 419.75)"><path d="M72.094-25q0 13.5-9.391 23.203Q52.406 8 38.797 8.297q-13.297 0-23-9.297Q6-10.406 5.594-23.906V-25q0-13.5 9.406-23.203Q25.297-58 38.906-58.297q13.297 0 23 9.297 9.797 9.406 10.188 22.906V-25zm-64-1.297h29.5v-29.5q-13.688.797-22.297 11-6.703 7.891-7.203 18.5zm32-29.5v29.5h29.5Q68.906-39 59.797-47.594q-8.203-7.5-19.703-8.203zm-2.5 61.594v-29.594h-29.5q.703 13 10.109 21.594 8.094 7.297 19.391 8zm32-29.594h-29.5V5.797Q53.703 5 62.203-5q6.891-8.094 7.391-18.797z"/></g><g clip-path="url(#clip16)" transform="matrix(.25 0 0 .25 775.6 419.75)"><use xlink:href="#g"/></g><g clip-path="url(#clip17)" transform="matrix(.25 0 0 .25 802.32 419.75)"><use xlink:href="#e"/></g><g clip-path="url(#clip18)" transform="matrix(.25 0 0 .25 828.71 419.75)"><use xlink:href="#h"/></g><g clip-path="url(#clip19)" transform="matrix(.25 0 0 .25 838.44 419.75)"><use xlink:href="#i"/></g><g clip-path="url(#clip20)" transform="matrix(.25 0 0 .25 850.94 419.75)"><use xlink:href="#j"/></g><g clip-path="url(#clip21)" transform="matrix(.25 0 0 .25 862.06 419.75)"><use xlink:href="#k"/></g><g clip-path="url(#clip22)" transform="matrix(.25 0 0 .25 881.51 419.75)"><use xlink:href="#l"/></g><g clip-path="url(#clip23)" transform="matrix(.25 0 0 .25 894.01 419.75)"><use xlink:href="#m"/></g><g clip-path="url(#clip24)" transform="matrix(.25 0 0 .25 473 268.75)"><use xlink:href="#g"/></g><g clip-path="url(#clip25)" transform="matrix(.25 0 0 .25 499.72 268.75)"><use xlink:href="#e"/></g><g clip-path="url(#clip26)" transform="matrix(.25 0 0 .25 526.11 268.75)"><use xlink:href="#h"/></g><g clip-path="url(#clip27)" transform="matrix(.25 0 0 .25 535.84 268.75)"><use xlink:href="#n"/></g><g clip-path="url(#clip28)" transform="matrix(.25 0 0 .25 548.34 268.75)"><use xlink:href="#j"/></g><g clip-path="url(#clip29)" transform="matrix(.25 0 0 .25 559.46 268.75)"><use xlink:href="#o"/></g><g clip-path="url(#clip30)" transform="matrix(.25 0 0 .25 571.96 268.75)"><use xlink:href="#m"/></g><g clip-path="url(#clip31)" transform="matrix(.25 0 0 .25 238 165.59)"><use xlink:href="#p" fill="#03c"/></g><g clip-path="url(#clip32)" transform="matrix(.175 0 0 .175 251.15 155.27)"><use xlink:href="#i" fill="#03c"/></g><g clip-path="url(#clip33)" transform="matrix(.25 0 0 .25 267.34 165.59)"><use xlink:href="#e" fill="#03c"/></g><g clip-path="url(#clip34)" transform="matrix(.25 0 0 .25 293.74 165.59)"><use xlink:href="#q" fill="#03c"/></g><g clip-path="url(#clip35)" transform="matrix(.175 0 0 .175 308.04 155.27)"><use xlink:href="#l" fill="#03c"/></g><g clip-path="url(#clip36)" transform="matrix(.25 0 0 .25 322.84 165.59)"><use xlink:href="#r" fill="#03c"/></g><g clip-path="url(#clip37)" transform="matrix(.25 0 0 .25 347.85 165.59)"><use xlink:href="#o" fill="#03c"/></g><g clip-path="url(#clip38)" transform="scale(25)"><path d="M20.6 4.88h1.572v.04H20.6v-.04z"/></g><g clip-path="url(#clip39)" transform="matrix(.25 0 0 .25 515 143.07)"><use xlink:href="#f"/></g><g clip-path="url(#clip40)" transform="matrix(.25 0 0 .25 534.52 143.07)"><use xlink:href="#g"/></g><g clip-path="url(#clip41)" transform="matrix(.14 0 0 .14 661 176.72)"><use xlink:href="#s" fill="#03c"/></g><g clip-path="url(#clip42)" transform="matrix(.14 0 0 .14 668.35 176.72)"><path fill="#03c" d="M4.297 14.312q0-2 1.344-3.25 1.343-1.25 3.25-1.25 1.906 0 3.187 1.25 1.297 1.25 1.297 3.25h-1.75q0 2 .875 2 3.219 0 5.531-2.453 2.328-2.437 3.547-5.953L24.219 0 9.906-36.625H5.422q-2.39-.297-2.828-2.781v-.875q.187-1.172.937-1.922.766-.766 1.89-.906h14.595q1.172.14 1.906.875.734.734.875 1.953v.875q-.281 2.484-2.781 2.781h-3.704q3.61 9.328 5.344 13.828 1.735 4.485 3.641 9.672 1.906 5.172 1.906 5.797.047-.484 1.5-5.188 1.469-4.718 3.375-10.5 1.906-5.796 4.547-13.609h-4q-2.547-.297-2.844-2.781v-.875q.297-2.547 2.844-2.828h14.594q1.125.14 1.875.906.765.75.906 1.922v.875q-.297 2.437-2.781 2.781h-4.297L27.875 7.906q-2.047 6.11-5.953 10.5-3.906 4.391-9.422 4.391-2.203 0-4.125-1.203-1.922-1.188-3-3.141t-1.078-4.141z"/></g><g clip-path="url(#clip43)" transform="matrix(.14 0 0 .14 675.7 176.72)"><use xlink:href="#t" fill="#03c"/></g><g clip-path="url(#clip44)" transform="matrix(.14 0 0 .14 683.05 176.72)"><use xlink:href="#u" fill="#03c"/></g><g clip-path="url(#clip45)" transform="matrix(.14 0 0 .14 699.72 176.72)"><path fill="#03c" d="M1.516-2.781v-.938q.296-2.484 2.78-2.781h2.485v-48.094H4.297q-2.484-.297-2.781-2.828v-.875q.296-2.5 2.78-2.781h8.298q1.468 0 2.609.812 1.156.797 1.594 2.157 1.953 5.906 4.141 12.671 2.203 6.766 3.734 11.829 1.547 5.047 1.547 5.921.047-.921 1.625-6.124 1.594-5.204 3.718-11.797l4.032-12.5q.437-1.36 1.578-2.157 1.156-.812 2.625-.812h8.297q2.5.281 2.781 2.781v.875q-.281 2.531-2.781 2.828h-2.485V-6.5h2.485q2.5.297 2.781 2.781v.938Q50.594-.297 48.094 0H37.109q-2.437-.297-2.828-2.781v-.938q.391-2.484 2.828-2.781h2.485v-47.312q-.094 2-9.422 30.421-.484 1.375-1.61 2.188-1.124.797-2.343.797-1.266 0-2.391-.797-1.125-.813-1.609-2.188-9.328-28.421-9.422-30.421V-6.5h2.484q1.219.156 1.953.844.735.672.875 1.937v.938q-.14 1.172-.875 1.906-.734.734-1.953.875H4.297Q1.813-.297 1.516-2.781z"/></g><g clip-path="url(#clip46)" transform="matrix(.14 0 0 .14 707.07 176.72)"><use xlink:href="#v" fill="#03c"/></g><g clip-path="url(#clip47)" transform="matrix(.14 0 0 .14 714.42 176.72)"><use xlink:href="#w" fill="#03c"/></g><g clip-path="url(#clip48)" transform="matrix(.14 0 0 .14 721.77 176.72)"><use xlink:href="#x" fill="#03c"/></g><g clip-path="url(#clip49)" transform="matrix(.14 0 0 .14 729.12 176.72)"><use xlink:href="#u" fill="#03c"/></g><g clip-path="url(#clip50)" transform="matrix(.14 0 0 .14 736.47 176.72)"><use xlink:href="#y" fill="#03c"/></g><g clip-path="url(#clip51)" transform="matrix(.14 0 0 .14 743.82 176.72)"><use xlink:href="#y" fill="#03c"/></g><g clip-path="url(#clip52)" transform="matrix(.14 0 0 .14 751.17 176.72)"><use xlink:href="#z" fill="#03c"/></g><g clip-path="url(#clip53)" transform="matrix(.14 0 0 .14 758.52 176.72)"><use xlink:href="#A" fill="#03c"/></g><g clip-path="url(#clip54)" transform="matrix(.14 0 0 .14 765.87 176.72)"><use xlink:href="#w" fill="#03c"/></g><g clip-path="url(#clip55)" transform="matrix(.14 0 0 .14 773.22 176.72)"><use xlink:href="#B" fill="#03c"/></g><g clip-path="url(#clip56)" transform="matrix(.14 0 0 .14 780.57 176.72)"><use xlink:href="#u" fill="#03c"/></g><g clip-path="url(#clip57)" transform="matrix(.14 0 0 .14 787.92 176.72)"><path fill="#03c" d="M2.39-2.781v-.938Q2.688-6.156 5.173-6.5h4.344v-48.094H5.172q-1.125-.14-1.875-.89-.75-.766-.906-1.938v-.875q.296-2.453 2.78-2.781H29.5q3.703 0 7.094 1.437 3.39 1.438 5.953 4 2.578 2.563 4.015 5.953Q48-46.297 48-42.578q0 4.937-2.516 9.187-2.515 4.235-6.765 6.75-4.25 2.516-9.219 2.516H16.797V-6.5h4.297q2.484.344 2.781 2.781v.938Q23.578-.344 21.094 0H5.172Q2.688-.344 2.39-2.781zM16.798-30.61h10.891q3.265 0 6.296-1.532 3.032-1.547 4.875-4.359 1.86-2.812 1.86-6.078 0-5.172-3.938-8.594-3.922-3.422-9.093-3.422H16.797v23.985z"/></g><g clip-path="url(#clip58)" transform="matrix(.14 0 0 .14 795.27 176.72)"><use xlink:href="#v" fill="#03c"/></g><g clip-path="url(#clip59)" transform="matrix(.14 0 0 .14 802.62 176.72)"><use xlink:href="#C" fill="#03c"/></g><g clip-path="url(#clip60)" transform="matrix(.14 0 0 .14 809.97 176.72)"><use xlink:href="#D" fill="#03c"/></g><g clip-path="url(#clip61)" transform="matrix(.14 0 0 .14 817.32 176.72)"><use xlink:href="#s" fill="#03c"/></g><g clip-path="url(#clip62)" transform="matrix(.14 0 0 .14 824.67 176.72)"><path fill="#03c" d="M7.172-2.094v-12.312q.39-2.391 2.734-2.688h1.906q2 .297 2.594 2.11 2.532 9.078 12.203 9.078 4.891 0 8.844-1.39 3.953-1.391 3.953-5.298 0-2.844-2.906-4.406-2.906-1.562-6.422-2.094l-8.781-1.515q-5.813-.922-9.969-3.657Q7.172-27 7.172-32.078q0-4.641 3.031-7.281Q13.234-42 17.703-43q4.469-1 8.906-1 6.203 0 10.11 2 .484-.875 1.047-1.359.562-.485 1.64-.641h.782q2.343.297 2.734 2.688v9.624q-.391 2.391-2.734 2.688h-1.907q-2.39-.297-2.687-2.688 0-5.812-9.172-5.812-2.594 0-5.453.391-2.86.39-5.063 1.64-2.187 1.235-2.187 3.485 0 3.859 8.687 5.078l8.891 1.515q3.562.532 6.937 2.094Q41.609-21.734 43.75-19q2.156 2.734 2.156 6.406 0 7.078-5.797 10.14Q34.328.595 26.609.595q-7.562 0-12.5-3.578-.297.546-.765 1.468-.453.922-1.047 1.438-.578.515-1.5.672h-.89Q7.561.297 7.171-2.094z"/></g><g clip-path="url(#clip63)" transform="matrix(.14 0 0 .14 836.69 176.72)"><use xlink:href="#E" fill="#03c"/></g><g clip-path="url(#clip64)" transform="matrix(.14 0 0 .14 848.7 176.72)"><use xlink:href="#F" fill="#03c"/></g><g clip-path="url(#clip65)" transform="matrix(.14 0 0 .14 670.32 194.41)"><path fill="#03c" d="M5.719 0Q3.172-.297 2.875-2.781v-.938Q3.172-6.203 5.719-6.5h5.265L23-22.219 11.719-36.625H6.297q-2.484-.297-2.781-2.781v-.875q.14-1.219.828-1.953.687-.735 1.953-.875h14.609q2.344.281 2.782 2.828v.875q-.438 2.484-2.782 2.781H19l6.875 9.328 6.844-9.328h-2.11q-2.39-.297-2.828-2.781v-.875q.203-1.172.953-1.922.766-.766 1.875-.906h14.61q1.172.14 1.906.875.734.734.875 1.953v.875q-.297 2.484-2.781 2.781h-5.328L28.906-22.219 41.219-6.5h5.359q1.219.156 1.953.844.735.672.891 1.937v.938q-.156 1.172-.891 1.906-.734.734-1.953.875H31.984q-2.296-.297-2.781-2.781v-.938q.438-2.484 2.781-2.781h2.204l-8.313-11.609L18.016-6.5h2.296q2.344.297 2.782 2.781v.938Q22.656-.297 20.312 0H5.719z"/></g><g clip-path="url(#clip66)" transform="matrix(.14 0 0 .14 677.67 194.41)"><use xlink:href="#z" fill="#03c"/></g><g clip-path="url(#clip67)" transform="matrix(.14 0 0 .14 685.02 194.41)"><use xlink:href="#v" fill="#03c"/></g><g clip-path="url(#clip68)" transform="matrix(.14 0 0 .14 692.37 194.41)"><use xlink:href="#v" fill="#03c"/></g><g clip-path="url(#clip69)" transform="matrix(.14 0 0 .14 699.72 194.41)"><use xlink:href="#w" fill="#03c"/></g><g clip-path="url(#clip70)" transform="matrix(.14 0 0 .14 707.07 194.41)"><use xlink:href="#x" fill="#03c"/></g><g clip-path="url(#clip71)" transform="matrix(.14 0 0 .14 714.42 194.41)"><use xlink:href="#C" fill="#03c"/></g><g clip-path="url(#clip72)" transform="matrix(.14 0 0 .14 721.77 194.41)"><use xlink:href="#D" fill="#03c"/></g><g clip-path="url(#clip73)" transform="matrix(.14 0 0 .14 729.12 194.41)"><use xlink:href="#G" fill="#03c"/></g><g clip-path="url(#clip74)" transform="matrix(.14 0 0 .14 736.47 194.41)"><use xlink:href="#s" fill="#03c"/></g><g clip-path="url(#clip75)" transform="matrix(.14 0 0 .14 743.82 194.41)"><use xlink:href="#u" fill="#03c"/></g><g clip-path="url(#clip76)" transform="matrix(.14 0 0 .14 751.17 194.41)"><use xlink:href="#H" fill="#03c"/></g><g clip-path="url(#clip77)" transform="matrix(.14 0 0 .14 763.19 194.41)"><use xlink:href="#I" fill="#03c"/></g><g clip-path="url(#clip78)" transform="matrix(.14 0 0 .14 770.54 194.41)"><use xlink:href="#C" fill="#03c"/></g><g clip-path="url(#clip79)" transform="matrix(.14 0 0 .14 777.89 194.41)"><use xlink:href="#J" fill="#03c"/></g><g clip-path="url(#clip80)" transform="matrix(.14 0 0 .14 785.24 194.41)"><use xlink:href="#C" fill="#03c"/></g><g clip-path="url(#clip81)" transform="matrix(.14 0 0 .14 792.59 194.41)"><use xlink:href="#D" fill="#03c"/></g><g clip-path="url(#clip82)" transform="matrix(.14 0 0 .14 799.94 194.41)"><use xlink:href="#s" fill="#03c"/></g><g clip-path="url(#clip83)" transform="matrix(.14 0 0 .14 807.29 194.41)"><use xlink:href="#j" fill="#03c"/></g><g clip-path="url(#clip84)" transform="matrix(.14 0 0 .14 670.32 212.11)"><path fill="#03c" d="M1.906-2.781v-.938Q2.203-6.203 4.687-6.5h6.11v-48.094h-6.11q-2.484-.297-2.78-2.828v-.875q.296-2.5 2.78-2.781h9.329q2.484.281 2.781 2.781v35.985l15.281-14.313h-4.594q-2.484-.297-2.781-2.781v-.875q.156-1.219.828-1.953.688-.735 1.953-.875h18.313q2.344.281 2.781 2.828v.875q-.437 2.484-2.781 2.781h-4.875L28.906-25.391 43.5-6.5H48q2.344.297 2.781 2.781v.938Q50.297-.297 48 0H33.297q-2.485-.297-2.781-2.781v-.938q.296-2.484 2.781-2.781h2.594L24.516-21.297l-7.719 7.188V-6.5h6.109q2.485.297 2.782 2.781v.938Q25.391-.297 22.906 0H4.688Q2.203-.297 1.905-2.781z"/></g><g clip-path="url(#clip85)" transform="matrix(.14 0 0 .14 677.67 212.11)"><use xlink:href="#H" fill="#03c"/></g><g clip-path="url(#clip86)" transform="matrix(.14 0 0 .14 689.69 212.11)"><use xlink:href="#I" fill="#03c"/></g><g clip-path="url(#clip87)" transform="matrix(.14 0 0 .14 697.04 212.11)"><use xlink:href="#C" fill="#03c"/></g><g clip-path="url(#clip88)" transform="matrix(.14 0 0 .14 704.39 212.11)"><use xlink:href="#J" fill="#03c"/></g><g clip-path="url(#clip89)" transform="matrix(.14 0 0 .14 711.74 212.11)"><use xlink:href="#C" fill="#03c"/></g><g clip-path="url(#clip90)" transform="matrix(.14 0 0 .14 719.09 212.11)"><use xlink:href="#D" fill="#03c"/></g><g clip-path="url(#clip91)" transform="matrix(.14 0 0 .14 726.44 212.11)"><use xlink:href="#s" fill="#03c"/></g><g clip-path="url(#clip92)" transform="matrix(.14 0 0 .14 661 230.97)"><use xlink:href="#K" fill="#03c"/></g><g clip-path="url(#clip93)" transform="matrix(.14 0 0 .14 673.01 230.97)"><use xlink:href="#E" fill="#03c"/></g><g clip-path="url(#clip94)" transform="matrix(.14 0 0 .14 680.36 230.97)"><use xlink:href="#L" fill="#03c"/></g><g clip-path="url(#clip95)" transform="matrix(.14 0 0 .14 695.92 230.97)"><use xlink:href="#M" fill="#03c"/></g><g clip-path="url(#clip96)" transform="matrix(.14 0 0 .14 703.27 230.97)"><use xlink:href="#u" fill="#03c"/></g><g clip-path="url(#clip97)" transform="matrix(.14 0 0 .14 710.62 230.97)"><use xlink:href="#D" fill="#03c"/></g><g clip-path="url(#clip98)" transform="matrix(.14 0 0 .14 717.97 230.97)"><use xlink:href="#u" fill="#03c"/></g><g clip-path="url(#clip99)" transform="matrix(.14 0 0 .14 725.32 230.97)"><use xlink:href="#w" fill="#03c"/></g><g clip-path="url(#clip100)" transform="matrix(.14 0 0 .14 732.67 230.97)"><use xlink:href="#G" fill="#03c"/></g><g clip-path="url(#clip101)" transform="matrix(.14 0 0 .14 740.02 230.97)"><use xlink:href="#s" fill="#03c"/></g><g clip-path="url(#clip102)" transform="matrix(.14 0 0 .14 747.37 230.97)"><use xlink:href="#v" fill="#03c"/></g><g clip-path="url(#clip103)" transform="matrix(.14 0 0 .14 754.72 230.97)"><use xlink:href="#w" fill="#03c"/></g><g clip-path="url(#clip104)" transform="matrix(.14 0 0 .14 762.07 230.97)"><use xlink:href="#N" fill="#03c"/></g><g clip-path="url(#clip105)" transform="matrix(.14 0 0 .14 772.96 230.97)"><path fill="#03c" d="M22.016 5.516V-66.61q.296-2.485 2.796-2.782h20.704q2.484.297 2.781 2.782v.89q-.297 2.531-2.781 2.828H29.297V1.812h16.219q2.484.282 2.781 2.782v.922q-.297 2.5-2.781 2.78H24.812q-2.5-.28-2.796-2.78z"/></g><g clip-path="url(#clip106)" transform="matrix(.14 0 0 .14 780.31 230.97)"><use xlink:href="#I" fill="#03c"/></g><g clip-path="url(#clip107)" transform="matrix(.14 0 0 .14 787.66 230.97)"><use xlink:href="#C" fill="#03c"/></g><g clip-path="url(#clip108)" transform="matrix(.14 0 0 .14 795.01 230.97)"><use xlink:href="#J" fill="#03c"/></g><g clip-path="url(#clip109)" transform="matrix(.14 0 0 .14 802.36 230.97)"><use xlink:href="#C" fill="#03c"/></g><g clip-path="url(#clip110)" transform="matrix(.14 0 0 .14 809.71 230.97)"><use xlink:href="#D" fill="#03c"/></g><g clip-path="url(#clip111)" transform="matrix(.14 0 0 .14 817.06 230.97)"><use xlink:href="#s" fill="#03c"/></g><g clip-path="url(#clip112)" transform="matrix(.14 0 0 .14 824.41 230.97)"><use xlink:href="#j" fill="#03c"/></g><g clip-path="url(#clip113)" transform="matrix(.14 0 0 .14 832.96 230.97)"><use xlink:href="#I" fill="#03c"/></g><g clip-path="url(#clip114)" transform="matrix(.14 0 0 .14 840.31 230.97)"><use xlink:href="#C" fill="#03c"/></g><g clip-path="url(#clip115)" transform="matrix(.14 0 0 .14 847.66 230.97)"><use xlink:href="#J" fill="#03c"/></g><g clip-path="url(#clip116)" transform="matrix(.14 0 0 .14 855.01 230.97)"><use xlink:href="#C" fill="#03c"/></g><g clip-path="url(#clip117)" transform="matrix(.14 0 0 .14 862.36 230.97)"><use xlink:href="#D" fill="#03c"/></g><g clip-path="url(#clip118)" transform="matrix(.14 0 0 .14 869.71 230.97)"><use xlink:href="#s" fill="#03c"/></g><g clip-path="url(#clip119)" transform="matrix(.14 0 0 .14 877.06 230.97)"><path fill="#03c" d="M4.11 5.516v-.922q.28-2.5 2.78-2.782h16.204V-62.89H6.891q-2.5-.297-2.782-2.828v-.89q.282-2.485 2.782-2.782h20.703q2.437.297 2.828 2.782V5.516q-.391 2.5-2.828 2.78H6.891q-1.172-.14-1.907-.874-.734-.734-.875-1.906z"/></g><g clip-path="url(#clip120)" transform="matrix(.14 0 0 .14 884.41 230.97)"><use xlink:href="#L" fill="#03c"/></g><g clip-path="url(#clip121)" transform="matrix(.14 0 0 .14 895.3 230.97)"><use xlink:href="#O" fill="#03c"/></g><g clip-path="url(#clip122)" transform="matrix(.14 0 0 .14 661 262.68)"><use xlink:href="#C" fill="#03c"/></g><g clip-path="url(#clip123)" transform="matrix(.14 0 0 .14 668.35 262.68)"><use xlink:href="#D" fill="#03c"/></g><g clip-path="url(#clip124)" transform="matrix(.14 0 0 .14 675.7 262.68)"><use xlink:href="#s" fill="#03c"/></g><g clip-path="url(#clip125)" transform="matrix(.14 0 0 .14 683.05 262.68)"><use xlink:href="#u" fill="#03c"/></g><g clip-path="url(#clip126)" transform="matrix(.14 0 0 .14 690.4 262.68)"><use xlink:href="#w" fill="#03c"/></g><g clip-path="url(#clip127)" transform="matrix(.14 0 0 .14 697.75 262.68)"><path fill="#03c" d="M4-2.781v-.938Q4.438-6.203 6.781-6.5H18.22v-30.125H7.079q-2.485-.297-2.782-2.781v-.875q.14-1.219.875-1.953.734-.735 1.906-.875H18.22v-6.016q0-3.703 2.359-6.609 2.375-2.907 6.031-4.438 3.672-1.547 7.375-1.547 3.813 0 6.766 1.391 2.953 1.39 2.953 4.719 0 1.953-1.25 3.343-1.234 1.391-3.141 1.391-1.718 0-3.109-1.266-1.391-1.281-1.391-3.031h-1.515q-3.078 0-5.453 1.813-2.36 1.797-2.36 4.671v5.579H38.72q1.172.14 1.906.875.734.734.875 1.953v.875q-.281 2.484-2.781 2.781H25.484V-6.5h11.438q2.344.297 2.781 2.781v.938Q39.266-.297 36.922 0H6.782Q4.5-.297 4-2.781z"/></g><g clip-path="url(#clip128)" transform="matrix(.14 0 0 .14 705.1 262.68)"><use xlink:href="#G" fill="#03c"/></g><g clip-path="url(#clip129)" transform="matrix(.14 0 0 .14 712.45 262.68)"><use xlink:href="#P" fill="#03c"/></g><g clip-path="url(#clip130)" transform="matrix(.14 0 0 .14 719.8 262.68)"><use xlink:href="#u" fill="#03c"/></g><g clip-path="url(#clip131)" transform="matrix(.14 0 0 .14 731.81 262.68)"><use xlink:href="#Q" fill="#03c"/></g><g clip-path="url(#clip132)" transform="matrix(.14 0 0 .14 739.16 262.68)"><use xlink:href="#y" fill="#03c"/></g><g clip-path="url(#clip133)" transform="matrix(.14 0 0 .14 746.51 262.68)"><use xlink:href="#y" fill="#03c"/></g><g clip-path="url(#clip134)" transform="matrix(.14 0 0 .14 753.86 262.68)"><use xlink:href="#C" fill="#03c"/></g><g clip-path="url(#clip135)" transform="matrix(.14 0 0 .14 761.21 262.68)"><use xlink:href="#t" fill="#03c"/></g><g clip-path="url(#clip136)" transform="matrix(.14 0 0 .14 768.56 262.68)"><use xlink:href="#s" fill="#03c"/></g><g clip-path="url(#clip137)" transform="matrix(.14 0 0 .14 775.91 262.68)"><use xlink:href="#C" fill="#03c"/></g><g clip-path="url(#clip138)" transform="matrix(.14 0 0 .14 783.26 262.68)"><use xlink:href="#P" fill="#03c"/></g><g clip-path="url(#clip139)" transform="matrix(.14 0 0 .14 790.61 262.68)"><use xlink:href="#z" fill="#03c"/></g><g clip-path="url(#clip140)" transform="matrix(.14 0 0 .14 797.96 262.68)"><use xlink:href="#A" fill="#03c"/></g><g clip-path="url(#clip141)" transform="matrix(.14 0 0 .14 805.31 262.68)"><use xlink:href="#w" fill="#03c"/></g><g clip-path="url(#clip142)" transform="matrix(.14 0 0 .14 812.66 262.68)"><use xlink:href="#B" fill="#03c"/></g><g clip-path="url(#clip143)" transform="matrix(.14 0 0 .14 820.01 262.68)"><use xlink:href="#u" fill="#03c"/></g><g clip-path="url(#clip144)" transform="matrix(.14 0 0 .14 827.36 262.68)"><use xlink:href="#N" fill="#03c"/></g><g clip-path="url(#clip145)" transform="matrix(.14 0 0 .14 838.25 262.68)"><use xlink:href="#R" fill="#03c"/></g><g clip-path="url(#clip146)" transform="matrix(.14 0 0 .14 845.6 262.68)"><use xlink:href="#Q" fill="#03c"/></g><g clip-path="url(#clip147)" transform="matrix(.14 0 0 .14 852.95 262.68)"><use xlink:href="#y" fill="#03c"/></g><g clip-path="url(#clip148)" transform="matrix(.14 0 0 .14 860.3 262.68)"><use xlink:href="#y" fill="#03c"/></g><g clip-path="url(#clip149)" transform="matrix(.14 0 0 .14 867.65 262.68)"><use xlink:href="#C" fill="#03c"/></g><g clip-path="url(#clip150)" transform="matrix(.14 0 0 .14 875 262.68)"><use xlink:href="#t" fill="#03c"/></g><g clip-path="url(#clip151)" transform="matrix(.14 0 0 .14 882.35 262.68)"><use xlink:href="#s" fill="#03c"/></g><g clip-path="url(#clip152)" transform="matrix(.14 0 0 .14 889.7 262.68)"><use xlink:href="#C" fill="#03c"/></g><g clip-path="url(#clip153)" transform="matrix(.14 0 0 .14 897.05 262.68)"><use xlink:href="#P" fill="#03c"/></g><g clip-path="url(#clip154)" transform="matrix(.14 0 0 .14 904.4 262.68)"><use xlink:href="#z" fill="#03c"/></g><g clip-path="url(#clip155)" transform="matrix(.14 0 0 .14 911.75 262.68)"><use xlink:href="#A" fill="#03c"/></g><g clip-path="url(#clip156)" transform="matrix(.14 0 0 .14 919.1 262.68)"><use xlink:href="#w" fill="#03c"/></g><g clip-path="url(#clip157)" transform="matrix(.14 0 0 .14 926.45 262.68)"><use xlink:href="#B" fill="#03c"/></g><g clip-path="url(#clip158)" transform="matrix(.14 0 0 .14 933.8 262.68)"><use xlink:href="#u" fill="#03c"/></g><g clip-path="url(#clip159)" transform="matrix(.14 0 0 .14 941.15 262.68)"><use xlink:href="#M" fill="#03c"/></g><g clip-path="url(#clip160)" transform="matrix(.14 0 0 .14 948.5 262.68)"><use xlink:href="#u" fill="#03c"/></g><g clip-path="url(#clip161)" transform="matrix(.14 0 0 .14 955.85 262.68)"><use xlink:href="#D" fill="#03c"/></g><g clip-path="url(#clip162)" transform="matrix(.14 0 0 .14 963.2 262.68)"><use xlink:href="#u" fill="#03c"/></g><g clip-path="url(#clip163)" transform="matrix(.14 0 0 .14 970.55 262.68)"><use xlink:href="#w" fill="#03c"/></g><g clip-path="url(#clip164)" transform="matrix(.14 0 0 .14 977.9 262.68)"><use xlink:href="#G" fill="#03c"/></g><g clip-path="url(#clip165)" transform="matrix(.14 0 0 .14 985.25 262.68)"><use xlink:href="#s" fill="#03c"/></g><g clip-path="url(#clip166)" transform="matrix(.14 0 0 .14 992.6 262.68)"><use xlink:href="#v" fill="#03c"/></g><g clip-path="url(#clip167)" transform="matrix(.14 0 0 .14 999.95 262.68)"><use xlink:href="#w" fill="#03c"/></g><g clip-path="url(#clip168)" transform="matrix(.14 0 0 .14 1007.3 262.68)"><use xlink:href="#L" fill="#03c"/></g><g clip-path="url(#clip169)" transform="matrix(.14 0 0 .14 1022.9 262.68)"><path fill="#03c" d="M28.297-56.297v18q0 7.703-6.891 11.297-2.109 1.203-4.906 2 10.094 2.906 11.594 10.297.203 1 .203 9.11v15q0 3.687.297 4.796 1.312 5 6.812 7.297 2.594 1.094 5.688 1.297 1.5.109 1.609 1.109 0 1.094-2 1.094Q33 25 27.594 21.703q-.391-.203-.797-.5-4.5-3.203-5-8-.203-1.5-.203-4.906V-11.5q0-9.406-9.391-11.797-1.609-.5-3.406-.609Q7.297-24 7.203-25q0-1.094 1.39-1.094 6.313-.406 10.407-4.5 2.094-2.312 2.406-5.812.188-1.797.188-8v-18.297q.203-6.094 7.609-9.797 5.094-2.5 11.5-2.5 1.797 0 2 1.094 0 .906-.906 1.109-6.797.391-10.594 4.094l-.109.109-.391.391q-2.109 2.203-2.297 6.5v.109q-.109 1.391-.109 5.297z"/></g><g clip-path="url(#clip170)" transform="matrix(.14 0 0 .14 670.32 281.93)"><use xlink:href="#P" fill="#03c"/></g><g clip-path="url(#clip171)" transform="matrix(.14 0 0 .14 677.67 281.93)"><use xlink:href="#w" fill="#03c"/></g><g clip-path="url(#clip172)" transform="matrix(.14 0 0 .14 685.02 281.93)"><use xlink:href="#u" fill="#03c"/></g><g clip-path="url(#clip173)" transform="matrix(.14 0 0 .14 692.37 281.93)"><use xlink:href="#G" fill="#03c"/></g><g clip-path="url(#clip174)" transform="matrix(.14 0 0 .14 699.72 281.93)"><use xlink:href="#s" fill="#03c"/></g><g clip-path="url(#clip175)" transform="matrix(.14 0 0 .14 707.07 281.93)"><use xlink:href="#u" fill="#03c"/></g><g clip-path="url(#clip176)" transform="matrix(.14 0 0 .14 714.42 281.93)"><use xlink:href="#Q" fill="#03c"/></g><g clip-path="url(#clip177)" transform="matrix(.14 0 0 .14 721.77 281.93)"><use xlink:href="#y" fill="#03c"/></g><g clip-path="url(#clip178)" transform="matrix(.14 0 0 .14 729.12 281.93)"><use xlink:href="#y" fill="#03c"/></g><g clip-path="url(#clip179)" transform="matrix(.14 0 0 .14 736.47 281.93)"><use xlink:href="#C" fill="#03c"/></g><g clip-path="url(#clip180)" transform="matrix(.14 0 0 .14 743.82 281.93)"><use xlink:href="#t" fill="#03c"/></g><g clip-path="url(#clip181)" transform="matrix(.14 0 0 .14 751.17 281.93)"><use xlink:href="#s" fill="#03c"/></g><g clip-path="url(#clip182)" transform="matrix(.14 0 0 .14 758.52 281.93)"><use xlink:href="#C" fill="#03c"/></g><g clip-path="url(#clip183)" transform="matrix(.14 0 0 .14 765.87 281.93)"><use xlink:href="#P" fill="#03c"/></g><g clip-path="url(#clip184)" transform="matrix(.14 0 0 .14 773.22 281.93)"><use xlink:href="#z" fill="#03c"/></g><g clip-path="url(#clip185)" transform="matrix(.14 0 0 .14 780.57 281.93)"><use xlink:href="#A" fill="#03c"/></g><g clip-path="url(#clip186)" transform="matrix(.14 0 0 .14 787.92 281.93)"><use xlink:href="#w" fill="#03c"/></g><g clip-path="url(#clip187)" transform="matrix(.14 0 0 .14 795.27 281.93)"><use xlink:href="#B" fill="#03c"/></g><g clip-path="url(#clip188)" transform="matrix(.14 0 0 .14 802.62 281.93)"><use xlink:href="#u" fill="#03c"/></g><g clip-path="url(#clip189)" transform="matrix(.14 0 0 .14 809.97 281.93)"><use xlink:href="#H" fill="#03c"/></g><g clip-path="url(#clip190)" transform="matrix(.14 0 0 .14 821.99 281.93)"><use xlink:href="#F" fill="#03c"/></g><g clip-path="url(#clip191)" transform="matrix(.14 0 0 .14 829.34 281.93)"><use xlink:href="#K" fill="#03c"/></g><g clip-path="url(#clip192)" transform="matrix(.14 0 0 .14 841.35 281.93)"><use xlink:href="#E" fill="#03c"/></g><g clip-path="url(#clip193)" transform="matrix(.14 0 0 .14 848.7 281.93)"><use xlink:href="#L" fill="#03c"/></g><g clip-path="url(#clip194)" transform="matrix(.14 0 0 .14 864.25 281.93)"><use xlink:href="#R" fill="#03c"/></g><g clip-path="url(#clip195)" transform="matrix(.14 0 0 .14 871.6 281.93)"><use xlink:href="#Q" fill="#03c"/></g><g clip-path="url(#clip196)" transform="matrix(.14 0 0 .14 878.95 281.93)"><use xlink:href="#y" fill="#03c"/></g><g clip-path="url(#clip197)" transform="matrix(.14 0 0 .14 886.3 281.93)"><use xlink:href="#y" fill="#03c"/></g><g clip-path="url(#clip198)" transform="matrix(.14 0 0 .14 893.65 281.93)"><use xlink:href="#C" fill="#03c"/></g><g clip-path="url(#clip199)" transform="matrix(.14 0 0 .14 901 281.93)"><use xlink:href="#t" fill="#03c"/></g><g clip-path="url(#clip200)" transform="matrix(.14 0 0 .14 908.35 281.93)"><use xlink:href="#s" fill="#03c"/></g><g clip-path="url(#clip201)" transform="matrix(.14 0 0 .14 915.7 281.93)"><use xlink:href="#C" fill="#03c"/></g><g clip-path="url(#clip202)" transform="matrix(.14 0 0 .14 923.05 281.93)"><use xlink:href="#P" fill="#03c"/></g><g clip-path="url(#clip203)" transform="matrix(.14 0 0 .14 930.4 281.93)"><use xlink:href="#z" fill="#03c"/></g><g clip-path="url(#clip204)" transform="matrix(.14 0 0 .14 937.75 281.93)"><use xlink:href="#A" fill="#03c"/></g><g clip-path="url(#clip205)" transform="matrix(.14 0 0 .14 945.1 281.93)"><use xlink:href="#w" fill="#03c"/></g><g clip-path="url(#clip206)" transform="matrix(.14 0 0 .14 952.45 281.93)"><use xlink:href="#B" fill="#03c"/></g><g clip-path="url(#clip207)" transform="matrix(.14 0 0 .14 959.8 281.93)"><use xlink:href="#u" fill="#03c"/></g><g clip-path="url(#clip208)" transform="matrix(.14 0 0 .14 967.15 281.93)"><use xlink:href="#M" fill="#03c"/></g><g clip-path="url(#clip209)" transform="matrix(.14 0 0 .14 974.5 281.93)"><use xlink:href="#u" fill="#03c"/></g><g clip-path="url(#clip210)" transform="matrix(.14 0 0 .14 981.85 281.93)"><use xlink:href="#D" fill="#03c"/></g><g clip-path="url(#clip211)" transform="matrix(.14 0 0 .14 989.2 281.93)"><use xlink:href="#u" fill="#03c"/></g><g clip-path="url(#clip212)" transform="matrix(.14 0 0 .14 996.55 281.93)"><use xlink:href="#w" fill="#03c"/></g><g clip-path="url(#clip213)" transform="matrix(.14 0 0 .14 1003.9 281.93)"><use xlink:href="#G" fill="#03c"/></g><g clip-path="url(#clip214)" transform="matrix(.14 0 0 .14 1011.3 281.93)"><use xlink:href="#s" fill="#03c"/></g><g clip-path="url(#clip215)" transform="matrix(.14 0 0 .14 1018.6 281.93)"><use xlink:href="#v" fill="#03c"/></g><g clip-path="url(#clip216)" transform="matrix(.14 0 0 .14 1026 281.93)"><use xlink:href="#w" fill="#03c"/></g><g clip-path="url(#clip217)" transform="matrix(.14 0 0 .14 1033.3 281.93)"><use xlink:href="#O" fill="#03c"/></g><g clip-path="url(#clip218)" transform="matrix(.14 0 0 .14 661 301.57)"><path fill="#03c" d="M28.297-58.297V-38.5q0 9.406 9.406 11.797 1.594.5 3.391.609 1.5.094 1.609 1.094 0 1.094-1.406 1.094-6.297.406-10.391 4.5-2.109 2.312-2.406 5.812-.203 1.797-.203 8v18.297q-.203 6.094-7.594 9.797-5.109 2.5-11.5 2.5-2 0-2-1.094 0-.906.89-1.109 6.813-.391 10.61-4.094l.5-.5q2.094-2.203 2.297-6.5.094-1.406.094-5.406v-18q0-7.703 6.906-11.297 2.094-1.203 4.906-2-10.109-2.906-11.609-10.297-.203-1-.203-9.109v-15q0-3.688-.297-4.797-1.297-5-6.797-7.297-2.594-1.094-5.703-1.297-1.5-.109-1.594-1.109 0-1.094 2-1.094 7.297 0 12.891 3.203l1 .594q4.5 3.203 5 8v.109l.109.094q.094 1.406.094 4.703z"/></g><g clip-path="url(#clip219)" transform="matrix(.25 0 0 .25 44 265.76)"><path d="m37.406-60.5-13.5 54q-.5 1.797-.5 2.297 0 .797.891 1h.406q.594.11 2.203.11h9.391q14.609 0 21.203-11.61 1.703-3 3.906-9 .797-1.891 1.297-2l.094-.094h.297q1.109 0 1.203 1.094 0 .297-.391 1.406L56-1.703q-.5 1.5-1.297 1.61h-.109Q54.203 0 52.906 0H6.594q-2.5 0-2.688-1.094 0-1.812 1.5-2h1.188q6.5 0 7.812-1.406.594-.703 1.188-2.797 0-.11.109-.5L29.094-61.5q.406-1.594.406-1.906 0-1.188-1.594-1.5h-.203q-.297 0-.906-.094-1.703-.203-3.797-.203-2.594 0-2.797-1.094 0-2 1.891-2L35.297-68h.109l14.688-.297h.109q1.594 0 1.594 1.203 0 1.594-1.297 1.797-.594.094-2.5.094-7.906 0-9.406 1.703-.594.703-1.188 3z"/></g><g clip-path="url(#clip220)" transform="matrix(.25 0 0 .25 61.025 265.76)"><use xlink:href="#h"/></g><g clip-path="url(#clip221)" transform="matrix(.25 0 0 .25 70.75 265.76)"><use xlink:href="#S"/></g><g clip-path="url(#clip222)" transform="matrix(.25 0 0 .25 90.65 265.76)"><use xlink:href="#j"/></g><g clip-path="url(#clip223)" transform="matrix(.25 0 0 .25 101.77 265.76)"><use xlink:href="#T"/></g><g clip-path="url(#clip224)" transform="matrix(.25 0 0 .25 113.49 265.76)"><use xlink:href="#m"/></g><g clip-path="url(#clip225)" transform="matrix(.25 0 0 .25 130.16 265.76)"><use xlink:href="#e"/></g><g clip-path="url(#clip226)" transform="matrix(.25 0 0 .25 169.8 239.51)"><use xlink:href="#U"/></g><g clip-path="url(#clip227)" transform="matrix(.175 0 0 .175 156.56 292.87)"><use xlink:href="#V"/></g><g clip-path="url(#clip228)" transform="matrix(.175 0 0 .175 171.19 292.87)"><path d="M17.5-33.703v22.297q0 2 .797 3.312l.609.89q4 6.11 10.5 6.11 6.297 0 10.594-6.61 3.797-5.796 3.797-13.89 0-10.312-5.594-16.312-3.5-3.797-7.797-3.797-7.203 0-11.812 6.297-.594.812-1.094 1.703zm0 27.797v17.703q0 3.406 1.594 4 1.109.5 6.203.5v3.109q-10.5-.312-11.297-.312-1 0-11.203.312v-3.109q5.906 0 6.906-.891l.203-.203q.688-.906.688-3.406V-35q0-3.5-1.39-4.297Q7.905-40 2.796-40v-3.094l14.406-1.109v6.609q6-6.609 14-6.609 9.094 0 15.297 7.297 5.594 6.5 5.594 15.312 0 10.391-7.688 17.188-6.406 5.5-14.609 5.5-7 0-11.203-5.094-.891-1.094-1.094-1.906z"/></g><g clip-path="url(#clip229)" transform="matrix(.175 0 0 .175 180.92 292.87)"><path d="M17.203-7.797q0 3.094 1.203 3.797l.094.094q1.406.812 6.297.812h2.109V0q-4-.297-12.703-.297.297 0-11.406.297v-3.094q5.906 0 6.906-.906l.203-.203q.688-.797.688-3.39v-26.813q0-3.891-1.5-4.797-1.188-.703-4.297-.797h-2v-3.094l13.906-1.109v11q2.703-8.391 8.891-10.5 1.609-.5 3.406-.5 4.703 0 6.703 3.5.703 1.203.703 2.609 0 3.5-3.312 4.297-.5.094-1 .094-3.094 0-4-2.703-.297-.688-.297-1.594 0-2.703 2.297-3.906Q29.906-42 29-42q-6.703 0-9.906 8.203-1.891 4.703-1.891 10.594v15.406z"/></g><g clip-path="url(#clip230)" transform="matrix(.175 0 0 .175 187.78 292.87)"><path d="M17.703-44.203V-7.5q0 3.094 1.203 3.797 1.188.61 5.797.61V0Q14.5-.297 14.297-.297q-1.391 0-11 .297v-3.094q5.906 0 6.906-.906l.203-.203q.688-.797.688-3.39V-34.5q0-4-1.594-4.797h-.094l-.11-.109Q8-40 3.704-40v-3.094l14-1.109zm.391-17.391q0 3.688-3.297 4.891-1 .406-2 .406-3.5 0-4.89-3.203v-.094q-.407-1-.407-2 0-3.109 2.797-4.609 1.109-.703 2.5-.703 3.406 0 4.797 3 .5 1.109.5 2.312z"/></g><g clip-path="url(#clip231)" transform="matrix(.175 0 0 .175 192.64 292.87)"><path d="M11-34.406q0-3.891-1.5-4.797-1.203-.703-4.297-.797h-2v-3.094l14.094-1.109v10.5q4.703-10.5 14.797-10.5 11.703 0 13.312 9.797 3-6.797 9.391-9 2.406-.797 5.109-.797 7.5 0 10.5 3.703 2.688 3.094 3 8.5.094 1.906.094 6.797v19.11q.094 2.39 2.906 2.796 1.188.203 4.891.203V0Q71.094-.297 70.094-.297q-.797 0-11.297.297v-3.094q5.906 0 6.906-.906l.203-.203q.688-.797.688-3.39v-23.313q0-9.891-5.688-10.891Q60.094-42 59.203-42 53.094-42 49-36.703 45.703-32.406 45.703-26v18.406q0 3.39 1.594 4 1.109.5 6.203.5V0Q43.297-.297 42.297-.297 41.5-.297 31 0v-3.094q5.906 0 6.906-.906l.188-.203q.703-.797.703-3.39v-23.313q0-9.891-5.703-10.891Q32.297-42 31.406-42q-6.109 0-10.203 5.297Q17.906-32.406 17.906-26v18.406q0 3.39 1.594 4 1.094.5 6.203.5V0Q15.5-.297 14.5-.297q-.797 0-11.297.297v-3.094q5.89 0 6.891-.906l.203-.203Q11-5 11-7.593v-26.813z"/></g><g clip-path="url(#clip232)" transform="matrix(.175 0 0 .175 207.22 292.87)"><path d="M39-23.094H11.094q0 10.188 3 15 4.812 6.188 11.312 6.688Q32.297-1.406 36.5-7q1.5-2 2.406-4.703.297-1.391 1.297-1.391 1.297 0 1.297 1.188 0 2.203-2.797 6Q34.594-.296 27.906.797q-1.5.297-3.109.297-9.391 0-16-7.188-6-6.609-6-15.906 0-10.406 7.203-17.203 5.797-5.594 13.594-5.594 11.312 0 15.812 9.594 2.094 4.5 2.094 10 0 1.703-.703 2-.297.109-1.797.109zm-27.797-2.109h23.703q0-9.5-4.203-14.297-2.797-3.094-7.109-3.094-5.094 0-8.594 4.688-3.5 4.5-3.797 12.703z"/></g><g clip-path="url(#clip233)" transform="matrix(.25 0 0 .25 214.99 230.51)"><path d="M66.219 235.69q-12.313-10.88-21.11-24.8Q36.328 196.97 31 181.48q-5.312-15.46-7.766-32-2.437-16.53-2.437-33.46 0-17.051 2.437-33.629 2.454-16.563 7.75-32 5.297-15.422 14.11-29.375Q53.906 7.078 66.219-3.812q0-.188.484-.188h2.578q.297 0 .563.297.281.281.281.625 0 .39-.203.594Q58.5 8.796 50.609 22.609q-7.89 13.813-12.531 29.094Q33.453 67 31.469 83.109 29.5 99.219 29.5 116.02q0 16.75 1.953 32.64t6.641 31.37q4.687 15.49 12.594 29.3 7.906 13.81 19.234 25.09.203.2.203.6 0 .28-.297.57-.297.3-.547.3h-2.578q-.484 0-.484-.2z"/></g><g clip-path="url(#clip234)" transform="matrix(.25 0 0 .25 233.39 265.76)"><use xlink:href="#o"/></g><g clip-path="url(#clip235)" transform="matrix(.25 0 0 .25 251.44 265.76)"><use xlink:href="#k"/></g><g clip-path="url(#clip236)" transform="matrix(.25 0 0 .25 283.21 248.85)"><use xlink:href="#W"/></g><g clip-path="url(#clip237)" transform="scale(25)"><path d="M11.106 10.361h.851v.04h-.851v-.04z"/></g><g clip-path="url(#clip238)" transform="matrix(.25 0 0 .25 277.64 282.91)"><use xlink:href="#V"/></g><g clip-path="url(#clip239)" transform="matrix(.175 0 0 .175 290.22 275.69)"><use xlink:href="#T"/></g><g clip-path="url(#clip240)" transform="matrix(.25 0 0 .25 305.68 265.76)"><use xlink:href="#r"/></g><g clip-path="url(#clip241)" transform="matrix(.25 0 0 .25 351.83 248.85)"><use xlink:href="#o"/></g><g clip-path="url(#clip242)" transform="scale(25)"><path d="M13.275 10.361h2.096v.04h-2.096v-.04z"/></g><g clip-path="url(#clip243)" transform="matrix(.25 0 0 .25 331.88 282.91)"><use xlink:href="#V"/></g><g clip-path="url(#clip244)" transform="matrix(.175 0 0 .175 344.45 275.69)"><use xlink:href="#i"/></g><g clip-path="url(#clip245)" transform="matrix(.175 0 0 .175 353.2 275.69)"><use xlink:href="#T"/></g><g clip-path="url(#clip246)" transform="matrix(.175 0 0 .175 361.41 275.69)"><use xlink:href="#k"/></g><g clip-path="url(#clip247)" transform="matrix(.175 0 0 .175 375.02 275.69)"><use xlink:href="#o"/></g><g clip-path="url(#clip248)" transform="matrix(.25 0 0 .25 385.47 230.51)"><path d="M4.297 235.89q-.875 0-.875-.87 0-.4.187-.6 11.438-11.28 19.297-25.12 7.86-13.85 12.5-29.11 4.641-15.25 6.61-31.19Q44 133.06 44 115.92q0-17.342-1.984-33.17-1.969-15.812-6.563-31-4.594-15.172-12.562-29.125Q14.938 8.687 3.609-2.485q-.187-.203-.187-.593 0-.922.875-.922H6.89q.343 0 .53.188Q19.78 7.125 28.561 21.062q8.797 13.954 14.063 29.422 5.281 15.485 7.672 31.985t2.391 33.551q0 16.93-2.391 33.39-2.391 16.47-7.672 31.97-5.266 15.5-14.063 29.43-8.781 13.94-21.14 24.88-.188.2-.531.2H4.297z"/></g><g clip-path="url(#clip249)" transform="matrix(.175 0 0 .175 403.87 236.27)"><use xlink:href="#k"/></g><g clip-path="url(#clip250)" transform="matrix(.175 0 0 .175 417.48 236.27)"><use xlink:href="#o"/></g><g clip-path="url(#clip251)" transform="matrix(.25 0 0 .25 701 135.59)"><use xlink:href="#p" fill="#03c"/></g><g clip-path="url(#clip252)" transform="matrix(.175 0 0 .175 714.15 125.27)"><use xlink:href="#i" fill="#03c"/></g><g clip-path="url(#clip253)" transform="matrix(.25 0 0 .25 730.34 135.59)"><use xlink:href="#e" fill="#03c"/></g><g clip-path="url(#clip254)" transform="matrix(.25 0 0 .25 756.74 135.59)"><use xlink:href="#q" fill="#03c"/></g><g clip-path="url(#clip255)" transform="matrix(.175 0 0 .175 771.04 125.27)"><use xlink:href="#l" fill="#03c"/></g><g clip-path="url(#clip256)" transform="matrix(.25 0 0 .25 785.84 135.59)"><use xlink:href="#r" fill="#03c"/></g><g clip-path="url(#clip257)" transform="matrix(.25 0 0 .25 810.85 135.59)"><path fill="#03c" d="M28.703-68.297 18.297-26.094q4.297-1.703 11.109-9.312Q37.297-44.203 44-44.203q4.797 0 6.406 4 .391 1.109.391 2.297 0 4.109-3.391 5.703-1.109.406-2.109.406-3.094 0-3.703-2.703-.094-.406-.094-.797 0-2.797 2.5-4.406l.094-.094q1.312-.797 3.109-.906l-.406-.391q-.797-.609-2.094-.812Q44.5-42 43.797-42q-5.297 0-12.891 8.094-.406.406-.812.906l-.594.594Q24.297-27 20.906-25q14.797 1.906 14.797 10.5 0 1.406-.406 3.094-.797 3.203-.797 5.61 0 4.702 3.203 4.702 4.594 0 7.391-8.312.703-1.688 1.312-4.094.797-1.703 1.391-1.797 1.203 0 1.203 1 0 1.594-1.906 6.5-.797 2-1.688 3.594-3.203 5.297-7.906 5.297-5.5 0-8-4.797Q28.297-6 28.297-8.797q0-1.11.406-3.5.297-1 .297-2.109 0-6.297-9-8.094-1.297-.297-2.594-.406-5 20.812-5.609 21.906-1 1.906-3.39 2.094Q6 1.094 5.593-1 5.5-1.406 5.5-1.703q0-.797.406-2.203l14.5-57.594.297-2q0-1.094-1.406-1.406-1.203-.297-3.594-.297-2.203 0-2.406-1.203 0-1.688 1.906-2l12.203-1q1.297 0 1.297 1.109z"/></g><g clip-path="url(#clip258)" transform="matrix(.25 0 0 .25 499 223.75)"><use xlink:href="#f"/></g><g clip-path="url(#clip259)" transform="matrix(.25 0 0 .25 525.47 223.75)"><use xlink:href="#e"/></g><g clip-path="url(#clip260)" transform="matrix(.25 0 0 .25 551.86 223.75)"><use xlink:href="#h"/></g><g clip-path="url(#clip261)" transform="matrix(.25 0 0 .25 561.59 223.75)"><use xlink:href="#k"/></g><g clip-path="url(#clip262)" transform="matrix(.25 0 0 .25 581.04 223.75)"><use xlink:href="#o"/></g><g clip-path="url(#clip263)" transform="matrix(.25 0 0 .25 593.54 223.75)"><use xlink:href="#j"/></g><g clip-path="url(#clip264)" transform="matrix(.25 0 0 .25 604.66 223.75)"><use xlink:href="#n"/></g><g clip-path="url(#clip265)" transform="matrix(.25 0 0 .25 617.16 223.75)"><use xlink:href="#m"/></g><g clip-path="url(#clip266)" transform="matrix(.25 0 0 .25 88 399.75)"><path d="M3.297 17.297 13.094-22q2.609-10.406 10.812-17.203 6.094-5 12.391-5 7.203 0 11.109 6Q50.203-34 50.203-27.906q0 10.906-7.797 20Q35.297.297 27 1q-.703.094-1.406.094-6.594 0-9.891-6.688Q9.5 19.094 9.297 19.5q-1.39 2.094-3.5 2.094-2.297 0-2.703-2.094Q3 19.203 3 18.906q0-.406.297-1.609zM25.5-1.093q5.203 0 9.703-6.11 1.203-1.5 2.203-3.391 3.297-6 5.094-16.406.5-3.094.5-5.203 0-8.094-5.094-9.594Q37-42 36.094-42q-5.391 0-10.391 6.5-1 1.406-2 3Q21.406-28.297 18.5-17q-.297 1.297-.797 3.297-.797 3.5-.797 3.703 0 2.297 1.891 5.094 2.5 3.812 6.703 3.812z"/></g><g clip-path="url(#clip267)" transform="matrix(.175 0 0 .175 100.92 405.48)"><use xlink:href="#X"/></g><g clip-path="url(#clip268)" transform="matrix(.25 0 0 .25 118.37 399.75)"><path d="M19.203-37.797q0 3.297-3 4.797-1.109.5-2.297.5-3.312 0-4.812-3-.5-1.094-.5-2.297 0-3.297 3-4.797 1.109-.5 2.312-.5 3.297 0 4.797 3 .5 1.094.5 2.297zm0 32.5q0 3.297-3 4.797-1.109.5-2.297.5-3.312 0-4.812-3-.5-1.094-.5-2.297 0-3.297 3-4.797 1.109-.5 2.312-.5 3.297 0 4.797 3 .5 1.094.5 2.297z"/></g><g clip-path="url(#clip269)" transform="matrix(.25 0 0 .25 132.26 399.75)"><use xlink:href="#Y"/></g><g clip-path="url(#clip270)" transform="matrix(.25 0 0 .25 151.89 399.75)"><path d="M33.297-7.594Q30.797-1.406 24.5.5q-2 .594-4.297.594-8.5 0-13.11-4.094-2.89-2.594-2.89-6.5 0-7.703 8.5-12.297.703-.406 1.5-.703 6.094-2.906 17.891-3.594h.5v-3.703q0-8.5-6.094-11.703-2.094-1.094-4.5-1.094-6.594 0-10.203 3.891-.297.406-.594.703 4.703.594 5.094 4.594 0 3.406-3.094 4.406-.703.203-1.5.203-3.61 0-4.406-3.297-.203-.5-.203-1.406 0-6 6.312-9.203 3.891-2.094 8.797-2.094 8.203 0 13.703 5.5 3.5 3.594 3.594 10V-7.5q0 2.906 1.797 4.297.797.703 1.906.703 3.5 0 3.594-6.406V-14.5h2.5v5.594q0 7.312-6 9.11-1.203.39-2.203.39-4.891 0-7-5.188-.594-1.406-.797-3zM32.594-24Q17.203-23.406 13-14.594q-1.094 2.391-1.094 5 0 5.094 4.594 7.5 2 1 4.406 1 5.188 0 8.688-4.11 3-3.39 3-8.796v-10z"/></g><g clip-path="url(#clip271)" transform="matrix(.25 0 0 .25 164.39 399.75)"><path d="M17.703-69.406v61.812q0 3.39 1.594 4 1.109.5 6.203.5V0L14.406-.297q-1.203 0-11.11.297v-3.094q5.907 0 6.907-.906l.203-.203q.688-.797.688-3.39v-52.001q0-3.906-1.39-4.812h-.11Q8.5-65 5.797-65.203h-2.5v-3.094l14.406-1.109z"/></g><g clip-path="url(#clip272)" transform="matrix(.25 0 0 .25 171.34 399.75)"><use xlink:href="#h"/></g><g clip-path="url(#clip273)" transform="matrix(.25 0 0 .25 181.06 399.75)"><use xlink:href="#Z"/></g><g clip-path="url(#clip274)" transform="matrix(.25 0 0 .25 200.51 399.75)"><use xlink:href="#h"/></g><g clip-path="url(#clip275)" transform="matrix(.25 0 0 .25 210.24 399.75)"><use xlink:href="#S"/></g><g clip-path="url(#clip276)" transform="matrix(.25 0 0 .25 230.14 399.75)"><path d="M25.5 25H11.797V-75H25.5v4h-9.703v92H25.5v4z"/></g><g clip-path="url(#clip277)" transform="matrix(.25 0 0 .25 237.09 399.75)"><use xlink:href="#X"/></g><g clip-path="url(#clip278)" transform="matrix(.25 0 0 .25 252.09 399.75)"><path d="M15.906-75V25H2.203v-4h9.703v-92H2.203v-4h13.703z"/></g><g clip-path="url(#clip279)" transform="matrix(.25 0 0 .25 259.04 399.75)"><use xlink:href="#aa"/></g><g clip-path="url(#clip280)" transform="matrix(.25 0 0 .25 271.54 399.75)"><use xlink:href="#Z"/></g><g clip-path="url(#clip281)" transform="matrix(.25 0 0 .25 290.99 399.75)"><use xlink:href="#m"/></g><g clip-path="url(#clip282)" transform="matrix(25 0 0 25 307.66 399.75)"><path d="M1.337-.428q-.015 0-.015.012l.005.016q.035.08.103.13H.116q-.033 0-.033.02.001.02.033.02H1.43q-.046.034-.079.086-.029.045-.029.06 0 .012.015.012.01 0 .016-.01l.002-.004q.046-.103.145-.15l.005-.002q.009-.005.009-.012-.003-.01-.007-.01l-.014-.007h-.001v-.001H1.49q-.092-.047-.136-.146-.006-.014-.017-.014z"/></g><g clip-path="url(#clip283)" transform="matrix(.25 0 0 .25 353.9 399.75)"><use xlink:href="#Y"/></g><g clip-path="url(#clip284)" transform="matrix(.25 0 0 .25 373.53 399.75)"><path d="M58.203-25.797 55.406 0H3.296v-3.094h2.407q6.5 0 7.5-1.703.391-.703.391-3V-60.5q0-3-1.188-3.797-1.406-.906-6.703-.906H3.297v-3.094Q6.797-68 18.5-68q13.203 0 16.797-.297v3.094H32q-8 0-9.094 2-.406.703-.406 2.797v53.312q0 3 1.094 3.5h.109q.891.5 3.703.5h8.188q14.109 0 18-11.312 1.312-3.688 2.109-11.391h2.5z"/></g><g clip-path="url(#clip285)" transform="matrix(.175 0 0 .175 389.15 403.5)"><use xlink:href="#i"/></g><g clip-path="url(#clip286)" transform="matrix(.25 0 0 .25 397.9 399.75)"><use xlink:href="#h"/></g><g clip-path="url(#clip287)" transform="matrix(.25 0 0 .25 407.63 399.75)"><use xlink:href="#ab"/></g><g clip-path="url(#clip288)" transform="matrix(.25 0 0 .25 424.3 399.75)"><use xlink:href="#aa"/></g><g clip-path="url(#clip289)" transform="matrix(.25 0 0 .25 436.8 399.75)"><use xlink:href="#X"/></g><g clip-path="url(#clip290)" transform="matrix(.25 0 0 .25 451.8 399.75)"><use xlink:href="#ab"/></g><g clip-path="url(#clip291)" transform="matrix(.25 0 0 .25 468.48 399.75)"><use xlink:href="#m"/></g><g clip-path="url(#clip292)" transform="matrix(.25 0 0 .25 684 338.79)"><path d="m36.703-40-6 31.703q-.906 6.203-3.609 14.203-1 2.89-2 4.891-3.5 7.406-8.688 9.203-1.312.5-2.609.5-5 0-7.39-3.406-1.11-1.5-1.11-3.5 0-4 3.406-5.5 1-.5 2.094-.5 2.906 0 3.609 2.5.094.5.094 1 0 3.406-3 4.812-1.094.5-2.5.594 1.906 1.797 4.797 1.797 4.406 0 6.906-9.797.5-2.297 1.203-6l.594-3L30-40h-6.594q-2.5 0-2.703-.797h-.109v-.406q0-1.703 1.703-1.891H30.5q2.406-12.5 3.297-15.703 3-10 10.609-11.5Q45.5-70.5 46.5-70.5q5.203 0 7.594 3.406 1.109 1.5 1.109 3.5 0 4-3.406 5.5-1 .5-2.094.5-2.906 0-3.609-2.5-.094-.5-.094-1 0-3.109 2.797-4.609 1.109-.703 2.609-.797-1.906-1.797-4.906-1.797-3.094 0-4.703 3.391-.703 1.406-2.391 10.406l-2.109 11.406h8.297q2.5 0 2.703 1.094 0 1.797-1.594 2h-10z"/></g><g clip-path="url(#clip293)" transform="matrix(.175 0 0 .175 696.25 342.54)"><use xlink:href="#S"/></g><g clip-path="url(#clip294)" transform="matrix(.25 0 0 .25 710.18 338.79)"><use xlink:href="#h"/></g><g clip-path="url(#clip295)" transform="matrix(.25 0 0 .25 719.9 338.79)"><use xlink:href="#ac"/></g><g clip-path="url(#clip296)" transform="matrix(.25 0 0 .25 732.63 338.79)"><use xlink:href="#m"/></g><g clip-path="url(#clip297)" transform="matrix(.25 0 0 .25 749.3 338.79)"><use xlink:href="#e"/></g><g clip-path="url(#clip298)" transform="matrix(.175 0 0 .175 784.99 305.04)"><use xlink:href="#ad"/></g><g clip-path="url(#clip299)" transform="matrix(.25 0 0 .25 775.69 312.54)"><use xlink:href="#ae"/></g><g clip-path="url(#clip300)" transform="matrix(.175 0 0 .175 777.31 365.48)"><use xlink:href="#X"/></g><g clip-path="url(#clip301)" transform="matrix(.175 0 0 .175 787.81 365.48)"><use xlink:href="#e"/></g><g clip-path="url(#clip302)" transform="matrix(.175 0 0 .175 801.43 365.48)"><use xlink:href="#o"/></g><g clip-path="url(#clip303)" transform="matrix(.25 0 0 .25 815.96 338.79)"><use xlink:href="#W"/></g><g clip-path="url(#clip304)" transform="matrix(.175 0 0 .175 826.11 342.54)"><use xlink:href="#X"/></g><g clip-path="url(#clip305)" transform="matrix(.25 0 0 .25 836.61 338.79)"><use xlink:href="#af"/></g><g clip-path="url(#clip306)" transform="matrix(.175 0 0 .175 848.26 328.47)"><use xlink:href="#i"/></g><g clip-path="url(#clip307)" transform="matrix(.175 0 0 .175 857.01 328.47)"><use xlink:href="#ag"/></g><g clip-path="url(#clip308)" transform="matrix(.175 0 0 .175 867.62 328.47)"><use xlink:href="#ah"/></g><g clip-path="url(#clip309)" transform="matrix(.175 0 0 .175 873.65 328.47)"><use xlink:href="#X"/></g><g clip-path="url(#clip310)" transform="matrix(.175 0 0 .175 884.15 328.47)"><use xlink:href="#ac"/></g><g clip-path="url(#clip311)" transform="matrix(.25 0 0 .25 702 63.793)"><use xlink:href="#S"/></g><g clip-path="url(#clip312)" transform="matrix(.175 0 0 .175 720.45 67.543)"><use xlink:href="#ai"/></g><g clip-path="url(#clip313)" transform="matrix(.25 0 0 .25 729.2 63.793)"><use xlink:href="#h"/></g><g clip-path="url(#clip314)" transform="matrix(.25 0 0 .25 738.92 63.793)"><use xlink:href="#aj"/></g><g clip-path="url(#clip315)" transform="matrix(.25 0 0 .25 752.67 63.793)"><use xlink:href="#m"/></g><g clip-path="url(#clip316)" transform="matrix(.25 0 0 .25 769.34 63.793)"><use xlink:href="#e"/></g><g clip-path="url(#clip317)" transform="matrix(.25 0 0 .25 795.74 63.793)"><use xlink:href="#o"/></g><g clip-path="url(#clip318)" transform="matrix(.25 0 0 .25 813.79 63.793)"><use xlink:href="#r"/></g><g clip-path="url(#clip319)" transform="matrix(.25 0 0 .25 838.8 63.793)"><use xlink:href="#i"/></g><g clip-path="url(#clip320)" transform="matrix(.25 0 0 .25 851.3 63.793)"><use xlink:href="#ai"/></g><g clip-path="url(#clip321)" transform="matrix(.25 0 0 .25 863.8 63.793)"><use xlink:href="#n"/></g><g clip-path="url(#clip322)" transform="matrix(.175 0 0 .175 889.77 30.043)"><use xlink:href="#ad"/></g><g clip-path="url(#clip323)" transform="matrix(.25 0 0 .25 880.47 37.543)"><use xlink:href="#ae"/></g><g clip-path="url(#clip324)" transform="matrix(.175 0 0 .175 882.08 90.479)"><use xlink:href="#X"/></g><g clip-path="url(#clip325)" transform="matrix(.175 0 0 .175 892.58 90.479)"><use xlink:href="#e"/></g><g clip-path="url(#clip326)" transform="matrix(.175 0 0 .175 906.2 90.479)"><use xlink:href="#o"/></g><g clip-path="url(#clip327)" transform="matrix(.25 0 0 .25 920.73 63.793)"><path d="M51.797-37.297h-11q3.109 4.391 3.109 10.891 0 11.406-8.5 19.906Q27.594.906 18.797 1.094q-8.391 0-12.594-6.797-2.406-4-2.406-9 0-8.891 6.5-17.5 7.5-9.891 17.906-10.797.891-.094 1.797-.094h22.797q3.406 0 3.797 1.594.109.406.109.797 0 3.406-4.906 3.406zM18.906-1.094q5.797 0 10.891-5.61Q31.094-8 32.094-9.593q4.203-6.203 5.203-15.312.203-1.5.203-2.688 0-9-8-9.609l-.094-.094h-1.109q-7.594 0-12.5 6.703-.594.797-1.094 1.594-4 6.703-4.609 15.797Q10-12.5 10-11.906 10-4 15.594-1.703q1.5.61 3.312.61z"/></g><g clip-path="url(#clip328)" transform="matrix(.175 0 0 .175 935.01 67.543)"><use xlink:href="#l"/></g><g clip-path="url(#clip329)" transform="matrix(.25 0 0 .25 943.76 63.793)"><use xlink:href="#h"/></g><g clip-path="url(#clip330)" transform="matrix(.25 0 0 .25 953.48 63.793)"><use xlink:href="#X"/></g><g clip-path="url(#clip331)" transform="matrix(.25 0 0 .25 968.48 63.793)"><use xlink:href="#m"/></g><g clip-path="url(#clip332)" transform="matrix(.25 0 0 .25 978.21 63.793)"><use xlink:href="#ak"/></g><g clip-path="url(#clip333)" transform="matrix(.175 0 0 .175 990.26 53.47)"><use xlink:href="#X"/></g><g clip-path="url(#clip334)" transform="matrix(.25 0 0 .25 69 70.793)"><path d="M48.797-27.703 37.406 17.594q-1.109 3.906-4.109 4-2.297 0-2.703-2.094-.094-.297-.094-.594 0-.406.297-1.609l11.406-46q1-4 1-6.297 0-7-5.406-7-4.797 0-9.594 3.5-3.703 2.906-6.5 8.594l-.297.609q-.406 2.391-1.109 4.5-.5 2.297-1.703 6.703l-2.188 9q-1.703 6.89-1.906 7.39-.906 2.61-3.703 2.798-2.5-.5-2.89-2.688 0 .188.89-4.312L14.594-29q1.609-6.406 1.609-8.406 0-4.594-3.109-4.594Q9-42 6.406-32.5q-.312 1.094-.61 2.406-1.093 2.188-1.702 2.297-1.188 0-1.188-1 0-1.609 1.797-6.703.703-1.797 1.297-3 2.406-4.906 6-5.594.703-.109 1.406-.109 5.391 0 8 4.5 1 1.906 1.188 4.203 5.109-7.406 13-8.5 1.203-.203 2.5-.203 8.906 0 11 6.906v.094q.5 1.703.5 3.703 0 2.906-.797 5.797z"/></g><g clip-path="url(#clip335)" transform="matrix(.25 0 0 .25 82.325 70.793)"><use xlink:href="#h"/></g><g clip-path="url(#clip336)" transform="matrix(.25 0 0 .25 92.05 70.793)"><use xlink:href="#aj"/></g><g clip-path="url(#clip337)" transform="matrix(.25 0 0 .25 105.8 70.793)"><use xlink:href="#m"/></g><g clip-path="url(#clip338)" transform="matrix(.25 0 0 .25 122.47 70.793)"><use xlink:href="#e"/></g><g clip-path="url(#clip339)" transform="matrix(.25 0 0 .25 148.86 70.793)"><use xlink:href="#af"/></g><g clip-path="url(#clip340)" transform="matrix(.175 0 0 .175 160.51 60.47)"><use xlink:href="#ag"/></g><g clip-path="url(#clip341)" transform="matrix(.175 0 0 .175 171.12 60.47)"><use xlink:href="#ah"/></g><g clip-path="url(#clip342)" transform="matrix(.175 0 0 .175 177.16 60.47)"><use xlink:href="#aj"/></g><g clip-path="url(#clip343)" transform="matrix(.175 0 0 .175 186.78 60.47)"><use xlink:href="#aa"/></g><g clip-path="url(#clip344)" transform="matrix(.175 0 0 .175 195.53 60.47)"><use xlink:href="#o"/></g><g clip-path="url(#clip345)" transform="matrix(.175 0 0 .175 204.28 60.47)"><use xlink:href="#i"/></g><g clip-path="url(#clip346)" transform="matrix(.175 0 0 .175 225.38 37.043)"><use xlink:href="#ad"/></g><g clip-path="url(#clip347)" transform="matrix(.25 0 0 .25 218.15 44.543)"><use xlink:href="#U"/></g><g clip-path="url(#clip348)" transform="matrix(.175 0 0 .175 217.7 97.479)"><use xlink:href="#X"/></g><g clip-path="url(#clip349)" transform="matrix(.175 0 0 .175 228.2 97.479)"><use xlink:href="#e"/></g><g clip-path="url(#clip350)" transform="matrix(.175 0 0 .175 241.81 97.479)"><use xlink:href="#o"/></g><g clip-path="url(#clip351)" transform="matrix(.25 0 0 .25 250.56 70.793)"><use xlink:href="#h"/></g><g clip-path="url(#clip352)" transform="matrix(.25 0 0 .25 260.29 70.793)"><use xlink:href="#o"/></g><g clip-path="url(#clip353)" transform="matrix(.25 0 0 .25 278.34 70.793)"><use xlink:href="#k"/></g><g clip-path="url(#clip354)" transform="matrix(.25 0 0 .25 303.35 70.793)"><use xlink:href="#af"/></g><g clip-path="url(#clip355)" transform="matrix(.175 0 0 .175 315 60.47)"><use xlink:href="#i"/></g><g clip-path="url(#clip356)" transform="matrix(.175 0 0 .175 323.75 60.47)"><use xlink:href="#ag"/></g><g clip-path="url(#clip357)" transform="matrix(.175 0 0 .175 334.35 60.47)"><use xlink:href="#ah"/></g><g clip-path="url(#clip358)" transform="matrix(.175 0 0 .175 340.39 60.47)"><use xlink:href="#X"/></g><g clip-path="url(#clip359)" transform="matrix(.175 0 0 .175 350.89 60.47)"><use xlink:href="#aj"/></g><g clip-path="url(#clip360)" transform="matrix(.25 0 0 .25 361.01 70.793)"><use xlink:href="#m"/></g><g clip-path="url(#clip361)" transform="matrix(.25 0 0 .25 377.68 70.793)"><use xlink:href="#e"/></g><g clip-path="url(#clip362)" transform="matrix(.25 0 0 .25 404.08 70.793)"><use xlink:href="#ak"/></g><g clip-path="url(#clip363)" transform="matrix(.175 0 0 .175 416.13 60.47)"><use xlink:href="#o"/></g><g clip-path="url(#clip364)" transform="matrix(.175 0 0 .175 424.88 60.47)"><use xlink:href="#aa"/></g><g clip-path="url(#clip365)" transform="matrix(.175 0 0 .175 433.63 60.47)"><use xlink:href="#i"/></g><g clip-path="url(#clip366)" transform="matrix(.175 0 0 .175 442.38 60.47)"><use xlink:href="#ai"/></g><g clip-path="url(#clip367)" transform="matrix(.175 0 0 .175 463.47 37.043)"><use xlink:href="#ad"/></g><g clip-path="url(#clip368)" transform="matrix(.25 0 0 .25 456.25 44.543)"><use xlink:href="#U"/></g><g clip-path="url(#clip369)" transform="matrix(.175 0 0 .175 455.79 97.479)"><use xlink:href="#X"/></g><g clip-path="url(#clip370)" transform="matrix(.175 0 0 .175 466.29 97.479)"><use xlink:href="#e"/></g><g clip-path="url(#clip371)" transform="matrix(.175 0 0 .175 479.91 97.479)"><use xlink:href="#o"/></g><g clip-path="url(#clip372)" transform="matrix(.25 0 0 .25 488.66 70.793)"><use xlink:href="#h"/></g><g clip-path="url(#clip373)" transform="matrix(.25 0 0 .25 498.38 70.793)"><use xlink:href="#o"/></g><g clip-path="url(#clip374)" transform="matrix(.25 0 0 .25 516.44 70.793)"><use xlink:href="#k"/></g><g clip-path="url(#clip375)" transform="matrix(.25 0 0 .25 541.44 70.793)"><use xlink:href="#ak"/></g><g clip-path="url(#clip376)" transform="matrix(.175 0 0 .175 553.49 60.47)"><use xlink:href="#X"/></g><g clip-path="url(#clip377)" transform="matrix(.25 0 0 .25 564.49 70.793)"><use xlink:href="#m"/></g></g></svg>