<svg xmlns="http://www.w3.org/2000/svg" width="499.914" height="272.651" viewBox="0 0 132.269 72.139" xmlns:v="https://vecta.io/nano"><style><![CDATA[.B{fill:none}.C{stroke-linejoin:round}.D{stroke-miterlimit:10}.E{stroke-linecap:round}.F{stroke-opacity:.698}.G{stroke-width:2.5}.H{stroke:#000}.I{fill:#fff}.J{fill-rule:evenodd}.K{stroke:#930}.L{fill-opacity:.098}.M{stroke:#09c}.N{fill:#e0e0e0}.O{stroke:#006400}.P{stroke-linejoin:bevel}.Q{fill-opacity:.149}]]></style><g class="B H P"><g stroke-width=".193"><use href="#B"/><use href="#B" y="1.75"/><use href="#B" y="3.5"/><use href="#B" y="5.25"/><use href="#B" y="7"/></g><path d="M89.599 41.247v7.192" stroke-width=".315"/><path d="M90.885 41.247v7.192" stroke-width=".962"/></g><path d="M74.559 48.063c0 .553-.288.846-.693 1.169l.021-1.365c.014-.063.119-.266.399-.266.253 0 .273.237.273.385v.077m-.084-.805c-.35 0-.553.217-.588.259l.028-2.247c0-.056-.042-.097-.098-.097h-.083c-.057 0-.098.042-.098.097l.035 4.207c0 .056.042.097.098.097a.18.18 0 0 0 .056-.013c.601-.302 1.231-.875 1.231-1.597 0-.363-.167-.706-.581-.706"/><path d="M74.916 50.092h3.765" stroke-width=".28" class="B H P"/><use href="#C"/><use href="#C" x="2.436" y="-0.874"/><use href="#C" y="-1.749"/><use href="#C" x="2.436" y="-2.624"/><path d="M64.727 48.034c-.14.028-.272.043-.406.043-1.001 0-1.855-.7-1.855-1.757 0-.853.601-1.616 1.218-2.149l.336-.307.161.994c-.638.189-1.071.861-1.071 1.519 0 .49.385 1.161.945 1.161.056 0 .119-.028.119-.091s-.07-.098-.154-.154c-.273-.168-.428-.35-.428-.693 0-.427.315-.77.728-.867l.406 2.302m-.616-7.195c.063-.28.385-1.015.749-1.015.105 0 .272.342.272.826 0 .728-.538 1.274-1.021 1.75a5.65 5.65 0 0 1-.077-.846c0-.259.021-.498.077-.714m1.61 5.9c0 .498-.203 1.008-.7 1.212l-.385-2.262c.63 0 1.085.428 1.085 1.05m-3.08 3.444c0 .463.357 1.072 1.301 1.072.329 0 .617-.084.868-.238.378-.266.476-.728.476-1.169 0-.272-.042-.587-.112-.986l-.105-.623a1.81 1.81 0 0 0 1.196-1.659c0-1.056-.749-1.771-1.771-1.771l-.203-1.225c.743-.778 1.253-1.652 1.253-2.765 0-.638-.196-1.155-.308-1.407-.167-.357-.371-.602-.497-.602-.049 0-.266.084-.496.357-.448.533-.574 1.428-.574 2.016 0 .378.035.722.154 1.506-.008.007-.372.377-.518.497-.638.595-1.519 1.441-1.519 2.842 0 1.308 1.141 2.337 2.443 2.337a3.2 3.2 0 0 0 .552-.049c.133.673.21 1.163.21 1.533 0 .728-.371 1.113-1.077 1.113-.168 0-.315-.035-.329-.035-.007-.008-.021-.014-.021-.021 0-.014.014-.022.035-.028a.77.77 0 0 0 .657-.776c0-.378-.287-.778-.811-.778-.49 0-.805.399-.805.861"/><use href="#D"/><use href="#D" y="3.5"/><g transform="matrix(.152871 0 0 .152871 -4.060028 -3.57884)"><g clip-path="url(#clip1)" class="J L"><g fill="#930"><path d="M164.17 292.13l196.67 65.56-65.56-196.67z"/></g></g><g clip-path="url(#clip2)" class="J L"><g fill="#09c"><path d="M295.28 161.02l65.56 65.56v131.11z"/></g></g><g clip-path="url(#clip3)" class="J L"><g fill="#930"><path d="M623.07 161.02l131.11 131.11V161.02z"/></g></g><g clip-path="url(#clip4)" class="J Q"><g fill="#039"><path d="M754.18 161.02h131.11L753.52 31.008z"/></g></g><g clip-path="url(#clip5)" class="J Q"><g fill="#03c"><path d="M754.18 292.13l131.11-131.11H754.18z"/></g></g><g clip-path="url(#clip6)" class="J L"><g fill="#063"><path d="M754.18 292.13l131.11 131.12-131.77 1.1z"/></g></g><g clip-path="url(#clip7)" class="J L"><g fill="#930"><path d="M754.18 292.13h131.11V161.02z"/></g></g><g clip-path="url(#clip8)" class="J L"><g fill="#006400"><path d="M491.95 29.908l65.56 65.556 65.56-65.556z"/></g></g><g clip-path="url(#clip9)" class="J L"><g fill="#09c"><path d="M33.059 357.69L98.615 488.8l65.555-65.55z"/></g></g><g clip-path="url(#clip10)" class="B K C D E F G"><path d="M164.17 292.13l196.67 65.56"/></g><g clip-path="url(#clip11)" class="B K C D E F G"><use href="#E"/></g><g clip-path="url(#clip12)" class="B K C D E F G"><path d="M295.28 161.02L164.17 292.13"/></g><g clip-path="url(#clip13)" class="B H C D E F G"><path d="M295.28 161.02l65.56 65.56"/></g><g clip-path="url(#clip14)" class="B H C D E F G"><path d="M360.84 226.58v131.11"/></g><g clip-path="url(#clip15)" class="B M C D E F G"><path d="M295.28 161.02l65.56 65.56"/></g><g clip-path="url(#clip16)" class="B M C D E F G"><path d="M360.84 226.58v131.11"/></g><g clip-path="url(#clip17)" class="B M C D E F G"><use href="#E"/></g><g clip-path="url(#clip18)" class="B K C D E F G"><path d="M623.07 161.02l131.11 131.11"/></g><g clip-path="url(#clip19)" class="B K C D E F G"><path d="M754.18 292.13V161.02"/></g><g clip-path="url(#clip20)" class="B K C D E F G"><path d="M754.18 161.02H623.07"/></g><g clip-path="url(#clip21)" class="B C D E F G"><g stroke="#039"><path d="M754.18 161.02h131.11"/></g></g><g clip-path="url(#clip22)" class="B C D E F G"><g stroke="#039"><path d="M885.29 161.02L753.52 31.008"/></g></g><g clip-path="url(#clip23)" class="B C D E F G"><g stroke="#039"><path d="M753.52 31.008l.66 130.012"/></g></g><g clip-path="url(#clip24)" class="B C D E F G"><g stroke="#03c"><path d="M754.18 292.13l131.11-131.11"/></g></g><g clip-path="url(#clip25)" class="B C D E F G"><g stroke="#03c"><path d="M885.29 161.02H754.18"/></g></g><g clip-path="url(#clip26)" class="B C D E F G"><g stroke="#03c"><path d="M754.18 161.02v131.11"/></g></g><g clip-path="url(#clip27)" class="B C D E F G"><g stroke="#063"><path d="M754.18 292.13l131.11 131.12"/></g></g><g clip-path="url(#clip28)" class="B C D E F G"><g stroke="#063"><path d="M885.29 423.25l-131.77 1.1"/></g></g><g clip-path="url(#clip29)" class="B C D E F G"><g stroke="#063"><path d="M753.52 424.35l.66-132.22"/></g></g><g clip-path="url(#clip30)" class="B K C D E F G"><path d="M754.18 292.13h131.11"/></g><g clip-path="url(#clip31)" class="B K C D E F G"><path d="M885.29 292.13V161.02"/></g><g clip-path="url(#clip32)" class="B K C D E F G"><path d="M885.29 161.02L754.18 292.13"/></g><g clip-path="url(#clip33)" class="B M C D E F"><path d="M426.4 95.464l65.55 131.116" stroke-width="3.5"/></g><g clip-path="url(#clip34)" class="B O C D E F G"><path d="M491.95 29.908l65.56 65.556"/></g><g clip-path="url(#clip35)" class="B O C D E F G"><path d="M557.51 95.464l65.56-65.556"/></g><g clip-path="url(#clip36)" class="B O C D E F G"><path d="M623.07 29.908H491.95"/></g><g clip-path="url(#clip37)" class="B M C D E F G"><path d="M33.059 357.69L98.615 488.8"/></g><g clip-path="url(#clip38)" class="B M C D E F G"><path d="M98.615 488.8l65.555-65.55"/></g><g clip-path="url(#clip39)" class="B M C D E F G"><path d="M164.17 423.25L33.059 357.69"/></g><g clip-path="url(#clip40)" class="N"><use href="#F"/></g><g clip-path="url(#clip41)" class="B H C D"><use href="#F"/></g><g clip-path="url(#clip42)" class="N"><use href="#G"/></g><g clip-path="url(#clip43)" class="B H C D"><use href="#G"/></g><g clip-path="url(#clip44)" class="N"><use href="#H"/></g><g clip-path="url(#clip45)" class="B H C D"><use href="#H"/></g><g clip-path="url(#clip46)" class="N"><use href="#I"/></g><g clip-path="url(#clip47)" class="B H C D"><use href="#I"/></g><g clip-path="url(#clip48)" class="I"><use href="#J"/></g><g clip-path="url(#clip49)" class="B H C D"><use href="#J"/></g><g clip-path="url(#clip50)" class="I"><use href="#K"/></g><g clip-path="url(#clip51)" class="B H C D"><use href="#K"/></g><g clip-path="url(#clip52)" class="I"><path d="M760.18 161.02c0 3.31-2.69 6-6 6s-6-2.69-6-6 2.69-6 6-6 6 2.69 6 6z"/></g><g clip-path="url(#clip53)" class="B H C D"><path d="M760.18 161.02c0 3.31-2.69 6-6 6s-6-2.69-6-6 2.69-6 6-6 6 2.69 6 6z"/></g><g clip-path="url(#clip54)" class="I"><path d="M891.29 161.02a6 6 0 0 1-6 6c-3.31 0-6-2.69-6-6s2.69-6 6-6a6 6 0 0 1 6 6z"/></g><g clip-path="url(#clip55)" class="B H C D"><path d="M891.29 161.02a6 6 0 0 1-6 6c-3.31 0-6-2.69-6-6s2.69-6 6-6a6 6 0 0 1 6 6z"/></g><g clip-path="url(#clip56)" class="I"><use href="#L"/></g><g clip-path="url(#clip57)" class="B H C D"><use href="#L"/></g><g clip-path="url(#clip58)" class="I"><use href="#M"/></g><g clip-path="url(#clip59)" class="B H C D"><use href="#M"/></g><g clip-path="url(#clip60)" class="I"><path d="M759.52 424.35a6 6 0 0 1-6 6c-3.31 0-6-2.69-6-6a6 6 0 0 1 6-6c3.32 0 6 2.68 6 6z"/></g><g clip-path="url(#clip61)" class="B H C D"><path d="M759.52 424.35a6 6 0 0 1-6 6c-3.31 0-6-2.69-6-6a6 6 0 0 1 6-6c3.32 0 6 2.68 6 6z"/></g><g clip-path="url(#clip62)" class="I"><path d="M891.29 292.13c0 3.32-2.68 6-6 6a6 6 0 0 1-6-6c0-3.31 2.69-6 6-6a6 6 0 0 1 6 6z"/></g><g clip-path="url(#clip63)" class="B H C D"><path d="M891.29 292.13c0 3.32-2.68 6-6 6a6 6 0 0 1-6-6c0-3.31 2.69-6 6-6a6 6 0 0 1 6 6z"/></g><g clip-path="url(#clip64)" class="I"><use href="#N"/></g><g clip-path="url(#clip65)" class="B H C D"><use href="#N"/></g><g clip-path="url(#clip66)" class="I"><use href="#O"/></g><g clip-path="url(#clip67)" class="B H C D"><use href="#O"/></g><g clip-path="url(#clip68)" class="I"><path d="M497.95 226.58a6 6 0 0 1-6 6c-3.31 0-6-2.69-6-6a6 6 0 0 1 6-6c3.32 0 6 2.68 6 6z"/></g><g clip-path="url(#clip69)" class="B H C D"><path d="M497.95 226.58a6 6 0 0 1-6 6c-3.31 0-6-2.69-6-6a6 6 0 0 1 6-6c3.32 0 6 2.68 6 6z"/></g><g clip-path="url(#clip70)" class="I"><path d="M497.95 357.69a6 6 0 0 1-6 6c-3.31 0-6-2.69-6-6s2.69-6 6-6a6 6 0 0 1 6 6z"/></g><g clip-path="url(#clip71)" class="B H C D"><path d="M497.95 357.69a6 6 0 0 1-6 6c-3.31 0-6-2.69-6-6s2.69-6 6-6a6 6 0 0 1 6 6z"/></g><g clip-path="url(#clip72)" class="I"><use href="#P"/></g><g clip-path="url(#clip73)" class="B H C D"><use href="#P"/></g><g clip-path="url(#clip74)" class="I"><path d="M629.07 292.13a6 6 0 0 1-6 6c-3.32 0-6-2.68-6-6a6 6 0 0 1 6-6c3.31 0 6 2.69 6 6z"/></g><g clip-path="url(#clip75)" class="B H C D"><path d="M629.07 292.13a6 6 0 0 1-6 6c-3.32 0-6-2.68-6-6a6 6 0 0 1 6-6c3.31 0 6 2.69 6 6z"/></g><g clip-path="url(#clip76)" class="I"><path d="M497.95 29.908c0 3.314-2.68 6-6 6-3.31 0-6-2.686-6-6s2.69-6 6-6c3.32 0 6 2.686 6 6z"/></g><g clip-path="url(#clip77)" class="B H C D"><path d="M497.95 29.908c0 3.314-2.68 6-6 6-3.31 0-6-2.686-6-6s2.69-6 6-6c3.32 0 6 2.686 6 6z"/></g><g clip-path="url(#clip78)" class="I"><use href="#Q"/></g><g clip-path="url(#clip79)" class="B H C D"><use href="#Q"/></g><g clip-path="url(#clip80)" class="I"><use href="#R"/></g><g clip-path="url(#clip81)" class="B H C D"><use href="#R"/></g><g clip-path="url(#clip82)" class="I"><use href="#S"/></g><g clip-path="url(#clip83)" class="B H C D"><use href="#S"/></g><g clip-path="url(#clip84)" class="I"><use href="#T"/></g><g clip-path="url(#clip85)" class="B H C D"><use href="#T"/></g><g clip-path="url(#clip86)" class="I"><path d="M170.17 423.25a6 6 0 0 1-6 6c-3.31 0-6-2.69-6-6a6 6 0 0 1 6-6c3.32 0 6 2.68 6 6z"/></g><g clip-path="url(#clip87)" class="B H C D"><path d="M170.17 423.25a6 6 0 0 1-6 6c-3.31 0-6-2.69-6-6a6 6 0 0 1 6-6c3.32 0 6 2.68 6 6z"/></g><g clip-path="url(#clip88)" transform="matrix(.25 0 0 .25 271 145.07)"><path d="M66.5-68.094v23.688q0 2.109-.594 2.312h0q-.312.094-1 .094-1.312 0-1.5-.906 0-.188-.109-.797Q61.406-57.594 52.5-63.906q-5-3.5-11-3.5-8.594 0-15.297 5.609-1.609 1.391-3 3l-.109.094Q15.906-50 15.906-34.094q0 23 14.688 30.5Q36-.906 41.594-.906q9.703 0 16.203-7.094Q63.5-14.203 64-23.406q.094-1.5 1.203-1.594 1.297 0 1.297 1.703Q66.5-14 59.797-6.5q-7.703 8.703-19.391 8.703-13.5 0-23.5-9.609-10.5-10-11.203-24.797-.109-1-.109-2 0-14.797 10-25.391 9.5-10.109 22.812-10.812 1-.094 2-.094 9.188 0 16.688 6.906l1.703 1.688 5-7.391q.797-1.203 1.609-1.203 1 .906 1.094 2.406z"/></g><g clip-path="url(#clip89)" transform="matrix(.25 0 0 .25 147 325.75)"><use href="#U"/></g><g clip-path="url(#clip90)" transform="matrix(.25 0 0 .25 164.03 325.75)"><use href="#V"/></g><g clip-path="url(#clip91)" transform="matrix(.25 0 0 .25 367 391.08)"><use href="#W"/></g><g clip-path="url(#clip92)" transform="matrix(.25 0 0 .25 379 232.07)"><use href="#X"/></g><g clip-path="url(#clip93)" transform="matrix(.25 0 0 .25 254 468.42)"><path d="M3.813 1.609L2.688 0q2.438-4 5.516-7.297 3.078-3.297 6.203-3.297 3.563 0 9.078 5.266 3.125-1.703 5.047-3.719 1.938-2.031 3.172-4.734 1.25-2.719 1.985-6.047 1.515-6.781 1.515-16.891 0-6.156-1.562-12.015-1.563-5.86-5.375-9.657-3.797-3.812-10.157-3.812-1.843 0-3.828.922-1.969.922-3.312 2.515-1.344 1.594-1.344 3.438 0 1.953 1.141 3.734 1.156 1.782 3.64 4.813 4.782 5.469 4.782 9.078 0 3.969-3.719 7.437-3.703 3.454-8.485 5.844l-2.203-1.562q2.891-1.5 4.953-3.485 2.078-1.984 2.078-4.515 0-1.813-3.703-6.391Q2.688-46.969 2.688-50q0-4.641 3.656-8.984 3.672-4.344 9.14-6.985 5.469-2.64 10.11-2.64 3.562 0 6.797 1.375 3.25 1.359 5.593 3.75 3.469 3.375 4.594 8 1.125 4.609 1.125 10.812 0 9.563-1.687 17.625Q40.328-19 36.188-12.203l-17 14.891q-5.266-5.281-8.5-5.281-2.001 0-3.766 1.172Q5.172-.25 3.813 1.609zm35.594 0L38.375-.484q3.172-4.406 5.609-7.156 2.454-2.765 4.407-2.765 1.859 0 3.484.89 1.641.875 4.031 2.625 2.688-2.344 4-7.656 1.328-5.328 1.61-10.672.296-5.343.296-11.5 0-7.953-.828-12.703-.781-5.125-2.734-7.906-1.953-2.781-6.547-2.781-2.734 0-5 2.25-2.265 2.25-3.484 5.265l-1.125-4.297q3.078-3.953 7.437-6.531 4.375-2.594 9.063-2.594 9.125 0 11.078 12.797 1.125 6.735 1.125 9.61 0 16.015-6.391 30.812l-12.203 15q-2-1.812-3.797-3.047-1.781-1.25-3.094-1.25-1.312 0-2.64.953-1.313.937-3.266 2.75zm30.266-54.828l-.969-4.593q1.703-2.391 5.094-5.047 3.406-2.672 7.25-4.5 3.859-1.829 6.75-1.829 3.219 0 4.734 2.079 1.516 2.062 2.781 5.921.829 2.641 1.797 3.922Q98.094-56 100.3-56q2.04 0 4.48-.891l-12.686 8.016q-.782-.203-1.516-.953-.734-.766-1.281-1.938-.531-1.172-.875-2.312-.328-1.141-.625-1.828-1.125-3.563-2.156-5.219-1.016-1.672-3.657-1.672-3.859 0-7.031 2.766-3.172 2.75-5.281 6.812zM88.375 2.688L82.516-8.016v-19.078q0-5.328 1.562-12.797 3.125-4.89 8.016-8.984l12.686-8.016v1.563q-6.139 3.031-11.077 8.016-1.375 2.734-2.109 6.031-.719 3.297-.922 6.625-.188 3.312-.188 6.968 0 3.266.063 5.688.078 2.422.297 4.547.218 2.125.765 3.641.438 1.562 1.891 3.984 1.469 2.406 2.406 2.406.875 0 3.094-.922 2.22-.937 3.69-1.765v2.093z"/></g><g clip-path="url(#clip94)" transform="matrix(.175 0 0 .175 280.25 472.17)"><path d="M26.5 1.906h0L12.297 6.297v12.5q0 2.406-.797 2.703-.203.094-.594.094-1.109-.891-1.109-2.688V7.094Q7.594 8 6.594 8 5.5 7.094 5.5 5.297v-2.5Q5.5.5 6.203.094h.094q.109-.094.5-.187.609-.312 3-.906v-35q-2.203.906-3.203.906Q5.5-36 5.5-37.797v-2.5q0-2.297.703-2.703h.094q.109-.094.5-.203.609-.297 3-.891V-63.5q0-2.406.797-2.703.203-.094.609-.094 1 0 1.094 1.594h0 0v.109 1V-45L26.5-49.406v-19.391q0-2.406.797-2.703h.109v-.094h.5Q29-70.703 29-68.906v18.703q2.203-.891 3.203-.891 1.094.891 1.094 2.688v2.5q0 2.312-.703 2.703H32.5q-.094.109-.5.203-.594.297-3 .906v35Q31.203-8 32.203-8q1.094.906 1.094 2.703v2.5q0 2.297-.703 2.703H32.5q-.094.094-.5.188-.594.313-3 .906v12.5q0 2.406-.797 2.703h-.109v.094h-.5q-1 0-1.094-1.594h0v-.109-1zm0-43.109l-14.203 4.406v34.891L26.5-6.297z"/></g><g clip-path="url(#clip95)" transform="matrix(.25 0 0 .25 294 461.88)"><path d="M72.094-33.406q0 8.812-5.391 14.906Q62-13.297 55.5-13.297q-6.703 0-14.5-6.703-.5-.5-1-.906Q32-28 28.594-29.594q-3.094-1.5-6.391-1.5Q16-31.094 12-26.203q-3.297 4.109-3.594 10.5 0 1.5-.906 2.109-.203.188-.5.188-1.406 0-1.406-3.188 0-8.812 5.406-14.906 4.703-5.203 11.203-5.203 6.703 0 14.5 6.703.5.5 1 .906 8 7.094 11.391 8.688 3.109 1.5 6.406 1.5 6.297 0 10.406-5.297Q69-28.094 69.297-34q.297-2.594 1.406-2.594 1.391 0 1.391 3.188z"/></g><g clip-path="url(#clip96)" transform="matrix(.25 0 0 .25 294 469.81)"><path d="M68.703-32.703H9q-3.203 0-3.406-2 0-2 3.312-2h59.891q3.203 0 3.297 2 0 2-3.391 2zm.094 19.406H8.906q-3.203 0-3.312-2 0-2 3.406-2h59.703q3.203 0 3.391 2 0 2-3.297 2z"/></g><g clip-path="url(#clip97)" transform="matrix(.25 0 0 .25 328.72 468.42)"><path d="M64.5-69.5h0l-5.406 21.906q-.891 1.891-1.5 2-1.188 0-1.188-1L56.797-52v-.203Q56.797-66 45.203-67.5q-1.297-.203-2.797-.203-7.812 0-13.312 6.297-4.188 4.812-4.188 10.312 0 6 4.891 8.594.609.297 1.203.5.5.094 6.703 1.797 9.203 2.406 11 3.609.797.5 1.703 1.391 4.891 4.609 4.891 11.703 0 9.203-7.203 17.094-8.188 8.312-18.188 8.609Q18.297 2.203 13-5L8.094.703q-1.297 1.5-1.797 1.5-1.094 0-1.094-1l5.703-22.5v-.203q.188-.703.297-.797.391-.406 1-.406 1.203 0 1.203 1.109l-.203.688q-.609 3.609-.609 5.406 0 11.297 11.5 13.906 2.812.688 6 .688 7.906 0 13.5-6.797 4.5-5.297 4.5-11.594 0-7.797-7.188-10.109l-2-.5-10.703-2.797q-6.609-1.891-9.203-8-1.203-2.891-1.203-6.203 0-9.094 7.609-16.391Q33-70.5 42.5-70.5q10.203 0 14.297 7.203L61.594-69q1.312-1.5 1.812-1.5 1.094 0 1.094 1z"/></g><g clip-path="url(#clip98)" transform="matrix(.175 0 0 .175 344.05 472.17)"><path d="M8.797-5.906h0L14.594-29q1.609-6.406 1.609-8.406 0-4.594-3.109-4.594Q9-42 6.406-32.5q-.312 1.094-.609 2.406-1.094 2.188-1.703 2.297-1.188 0-1.188-1 0-1.609 2-7.203v-.094q0-.109.094-.109v-.094-.109l.906-2.094q2.188-4 4.5-5 1.391-.703 3-.703 5.594 0 8.094 4.703.906 1.797 1.094 4Q29-44.203 38.203-44.203q8.594 0 10.891 6.609.609 1.797.609 4.094 0 5.094-6.109 22-1.797 4.406-1.797 7.094 0 3.312 2.406 3.312 6.594 0 10.203-12.406.5-1.594 1-1.703v-.094h.5q1.188 0 1.188 1Q57.094-12.594 55-8q-4.297 9.094-11 9.094-5.094 0-7.297-4.297-.906-1.797-.906-3.891 0-2 1-4.609 6.5-17.5 6.5-23.297 0-7-5.391-7-9 0-15.109 10-.703 1.094-1.203 2.203l-1.297 5q-.5 2.297-1.703 6.703l-2.188 9Q14.703-2.203 14.5-1.703q-.906 2.609-3.703 2.797-2.5-.5-2.891-2.688 0 .188.891-4.312z"/></g><g clip-path="url(#clip99)" transform="matrix(.25 0 0 .25 360.1 468.42)"><path d="M38.906-27.797l19.891-19.906q1.406-1.391 2.203-1.391 2 .594 2 3.5v41.188Q63-1.297 61.594-1q-.297.094-.594.094-1.094 0-1.406-.594L38.797-22.203 18.906-2.297Q17.5-.906 16.703-.906q-1.5 0-1.906-1.5-.094-.297-.094-.5 0-.891 1.391-2.297L35.906-25 16.094-44.906q-1.391-1.391-1.391-2.188 0-1.5 1.594-1.906.203-.094.406-.094.797 0 2.203 1.391zM41.797-25L59-7.797v-34.5z"/></g><g clip-path="url(#clip100)" transform="matrix(.25 0 0 .25 385.11 468.42)"><path d="M59.594-64.906L22-3.5h14.203Q49-3.5 56-12.797q3-4 3.906-8.5.391-2.609 1.391-2.906.203-.094.609-.094 1.391 0 1.688 1.797L60.906-2.797Q60.5-.5 59.797-.203h0-.094Q59.203 0 57.5 0H6.203q-3 0-3.297-1.203-.109-.297-.109-.594 0-.5.906-1.797L41.297-65h-8.094q-9.906 0-16.109 4-6.297 3.906-7.391 10.594-.406 1.5-1.703 1.5-1.5-.391-1.797-1.891l.203-1.297 1.5-13.5q.297-2.312 1-2.609.391-.203 1.391-.297h1.109 45.797q2.703 0 3.203 1v.094q.094.312.094.703 0 .5-.906 1.797zM11.297-65l-.5 4.5q3.297-3 5.797-4.406V-65zm34.109 0L7.703-3.5h10.203L55.594-65zm5.297 61.406h0v.094H57.5q.797-5.906.906-6.703Q55-6.094 50.703-3.594z"/></g><g clip-path="url(#clip101)" transform="matrix(.175 0 0 .175 401.78 457.95)"><path d="M76-69.5L69.703-44q-.5 1.797-1 1.906l-.109.094h-.688q-1.5 0-1.5-1l.297-4.906v-.188q0-12.406-7.797-17.109l-.109-.094q-3.5-2.109-8.203-2.109Q40-67.406 30.5-59.5q-2.406 1.906-4.297 4.203-9.5 11.094-11.703 28.203-.406 3.094-.406 5.391 0 14 10.609 18.906 4.094 1.891 9 1.891 9.391 0 18.391-7.297 7-5.891 10.109-15.797.203-1 1.297-1 1.203 0 1.203 1 0 1.797-2.297 6.406-3.109 6.297-8.703 11.188-9.906 8.609-21.609 8.609-12.797 0-20.5-8.797Q5-14.094 5-25.203q0-14.891 10.906-27.891 10.094-12.109 23.891-16 5.109-1.406 10-1.406 10.906 0 16.609 8.906l7-7.703q1.188-1.203 1.5-1.203 1.094 0 1.094 1z"/></g><g clip-path="url(#clip102)" transform="matrix(.175 0 0 .175 401.78 474.6)"><path d="M75.594-57.797l-14 55.703q-.5 1.891-1 2L60.5 0H60q-1 0-1.594-1.203-.109-.297-.312-.703L33.203-60.797l-.906-1.797L19.094-9.797q-.391 1.5-.391 2.297 0 3.406 4.297 4.203 1 .203 2.297.203 2 0 2 1.094 0 2-1.797 2l-10-.297h-.297L5.297 0h-.094Q3.906 0 3.906-1.094q0-2 1.688-2 7.906-.312 10-5 .406-1 .812-2.5l13.391-53.703q0-.906-6.797-.906-2.594 0-2.797-1.094 0-1.797 1.5-2h1.391H36.5q2.094 0 2.594.703.203.297.609 1.188l22.094 52.203L73-58.703q.297-.891.297-2.094 0-4.297-6.797-4.406-1.797 0-1.797-1.094 0-2 1.797-2L76.594-68h.109l10-.297h.094q1.297 0 1.297 1.094 0 2-1.688 2-7.812.297-10 4.906h0q-.406 1-.812 2.5z"/></g><g clip-path="url(#clip103)" transform="matrix(.25 0 0 .25 425.19 468.42)"><path d="M85.797-23H8.906q-3-.5-3.312-2 0-2 3.312-2h76.891Q79-32 75.594-39.906L75.5-40q-.5-1.297-.5-1.594 0-1.203 1.5-1.203 1.094 0 1.703 1.391 4.391 9.906 13.594 14.609h.109l.094.094h.094q.703.406 1.406.703.406 0 .703 1 0 .703-.906 1.203-.203 0-.5.203-9.891 4.688-14.5 15h0q-.094.094-.203.391-.5 1-1.594 1-1.5 0-1.5-1.203 0-1.5 2.906-6 3.297-5.188 7.891-8.594z"/></g><g clip-path="url(#clip104)" transform="matrix(.25 0 0 .25 457.13 468.42)"><path d="M19.594-63.797q-4.688 2.391-5.891 2.391-1.109 0-1.109-.594 0-2.297 9.703-6.703 1.906-.891 3.297-1.391h.203q1-.406 1.297-.406 1 .797 1.109 1.594 0 18.312-12.109 53.609-4.391 12.891-5.188 13.703-3.5 3.688-6.812 3.797Q3 2.203 3 1.5l1.203-3.594q14.094-37.312 15.391-61.703zm53.109 51.094h0q0 3.5-5 8.109-7.609 6.797-17.5 6.797-5.703 0-11.797-8.406-1.906-2.5-3.906-5.891-6.703-11.312-9.5-22.109-.906-3.5-.906-5.797 0-6.406 15.312-17.203Q50.797-65.297 60.703-69q4.203-1.5 6.703-1.5 4.5 0 5.594 4h0q.297.906.297 2 0 4.203-4.203 5.094h-.188-.109l-.203.109h-.297q-1.203 0-1.203-1.109l.203-1.5V-62q0-3-2.297-4-.5-.203-1.203-.203-4.094 0-15.297 6.797-3.797 2.312-7.5 4.906-8.906 6.594-10.5 10.203v.094q-.406.906-.406 1.703 0 6.406 6.312 19.703Q43.594-7.703 50.094-3.406q2.203 1.109 3.609 1.312 7 0 10.797-4.312 1.406-1.5 2.094-3.594 1.703-3.297 4.906-3.594 1.203 0 1.203.891z"/></g><g clip-path="url(#clip105)" transform="matrix(.175 0 0 .175 476.53 458.1)"><path d="M63.5-57.797l-8.906 35.5Q51.906-11.406 42.797-4.094q-7.891 6.297-16.5 6.297-9.891 0-15.5-6.906-4.094-5-4.094-12.297 0-3 .703-5.797L13.5-47.5l2.203-8.797q1.703-6.5 1.703-7.109 0-1.188-1.609-1.5h-.094-.109q-.297 0-.891-.094-1.703-.203-3.797-.203-2.609 0-2.812-1.094 0-2 1.906-2L22.797-68h.109l12.688-.297h.109q1.391 0 1.391 1.094 0 1.703-1.391 1.906h-.109 0 0l-.094.094h-1.797q-6.109 0-7.297 1.609-.5.688-1.109 3l-9.703 38.891Q14.5-17.297 14.5-13.906 14.5-5 21.297-2q2.5 1.094 5.406 1.094 8.797 0 16.391-7.297 6.312-6.094 8.5-14.797l9-35.703q.312-.891.312-2.094 0-4.297-6.812-4.406-1.797 0-1.797-1.094 0-2 1.797-2L64.406-68h.094l9.906-.297h.297q1.297 0 1.297 1.094 0 2-1.703 2-7.891.297-10 4.797-.391 1.109-.797 2.609z"/></g><g clip-path="url(#clip106)" transform="matrix(.175 0 0 .175 476.53 474.6)"><path d="M76-69.5L69.703-44q-.5 1.797-1 1.906l-.109.094h-.688q-1.5 0-1.5-1l.297-4.906v-.188q0-12.406-7.797-17.109l-.109-.094q-3.5-2.109-8.203-2.109-10.688 0-20.297 8.109-2.703 2.203-4.703 4.797Q16-42.703 14.297-25.5q-.203 2.094-.203 3.594 0 13.703 10.406 18.812 4.406 2.188 9.703 2.188 8.5 0 14.094-4.297 4-3 5.203-7.797 2.094-7.797 2.094-9.094 0-1.312-1.5-1.703-.5-.109-1.594-.203-2.297-.203-5.297-.203-2.703 0-2.906-.594-.094-.109-.094-.5 0-2 2.094-2L60.203-27h.094l10.406-.297h.094q1.297 0 1.297 1.094 0 2-1.594 2-4.594.109-5.5 1-.594.703-1.406 3.797 0-.188-1 3.906-.188.703-.297 1.203l-1.891 7.703Q59-.797 58.703-.5q0 .406-.703.406-1.094 0-3.406-3.812-.688-1.297-1.094-2.391Q50.094-2.5 45.797-.594l-1 .391Q39 2.203 32.297 2.203q-13.5 0-21.203-9.406Q5-14.594 5-25.203q0-14.891 10.906-27.891 10.094-12.109 23.891-16 5.109-1.406 10-1.406 10.906 0 16.609 8.906l7-7.703q1.188-1.203 1.5-1.203 1.094 0 1.094 1z"/></g><g clip-path="url(#clip107)" transform="matrix(.25 0 0 .25 490.89 468.42)"><use href="#Y"/></g><g clip-path="url(#clip108)" transform="matrix(.25 0 0 .25 497.84 468.42)"><use href="#Z"/></g><g clip-path="url(#clip109)" transform="matrix(.175 0 0 .175 518.54 472.17)"><use href="#a"/></g><g clip-path="url(#clip110)" transform="matrix(.25 0 0 .25 527.29 468.42)"><use href="#b"/></g><g clip-path="url(#clip111)" transform="matrix(.25 0 0 .25 538.4 468.42)"><use href="#Z"/></g><g clip-path="url(#clip112)" transform="matrix(.175 0 0 .175 559.1 472.17)"><path d="M29.406-64v56.094q0 3 1.188 3.812 1.703 1 8.109 1h3.203V0q-3.5-.297-16.203-.297Q13-.297 9.5 0v-3.094h3.203q7.703 0 8.797-1.812L21.594-5Q22-5.797 22-7.906v-51.797q-5.203 2.609-13.094 2.609v-3.109q12 0 18.188-6.391 1.906 0 2.203.688h0v.109q.109.297.109 1.797z"/></g><g clip-path="url(#clip113)" transform="matrix(.25 0 0 .25 567.85 468.42)"><use href="#b"/></g><g clip-path="url(#clip114)" transform="matrix(.25 0 0 .25 580.36 468.42)"><use href="#c"/></g><g clip-path="url(#clip115)" transform="matrix(.25 0 0 .25 592.87 468.42)"><use href="#c"/></g><g clip-path="url(#clip116)" transform="matrix(.25 0 0 .25 605.37 468.42)"><use href="#c"/></g><g clip-path="url(#clip117)" transform="matrix(.25 0 0 .25 617.88 468.42)"><use href="#b"/></g><g clip-path="url(#clip118)" transform="matrix(.25 0 0 .25 628.99 468.42)"><use href="#Z"/></g><g clip-path="url(#clip119)" transform="matrix(.175 0 0 .175 649.69 472.17)"><path d="M51.594-68.297L37.203-10.5q-.609 2.5-.609 4.797 0 4.609 3 4.609 3.812 0 6.406-8 .5-1.703 1.203-4.406.797-1.703 1.391-1.797 1.203 0 1.203 1 0 1.5-1.797 7-.594 1.703-1.203 2.891-2.797 5.5-7.391 5.5-5.609 0-8.109-4.797-.703-1.203-1-2.703-6.297 7.5-13 7.5-7.5 0-11.094-6.797Q4-9.703 4-14.906q0-10.797 7.5-20 7-8.391 15.203-9.188.703-.109 1.391-.109 6.109 0 9.203 6.406l6-23.703.297-2q0-1.094-1.391-1.406-1.203-.297-3.609-.297-2.188 0-2.391-1.203 0-1.688 1.391-1.891Q47-69.406 50.297-69.406q1.297 0 1.297 1.109zM30.797-11.906h0l5-19.594q.297-1.5.297-1.703 0-2.094-1.797-5.094Q32.094-42 28.203-42 23-42 18.297-35.203q-.891 1.297-1.703 2.797-2.891 5.812-4.891 16.5-.609 3.406-.609 5.406 0 6.797 3.812 8.797 1.094.609 2.594.609 5.594 0 11.297-7.109 1.406-1.594 1.906-3.297v-.094q.094-.203.094-.312z"/></g><g clip-path="url(#clip120)" transform="matrix(.25 0 0 .25 658.79 468.42)"><use href="#d"/></g><g clip-path="url(#clip121)" transform="matrix(.25 0 0 .25 105 212.08)"><use href="#X"/></g><g clip-path="url(#clip122)" transform="matrix(.25 0 0 .25 383 102.75)"><use href="#U"/></g><g clip-path="url(#clip123)" transform="matrix(.25 0 0 .25 400.03 102.75)"><use href="#V"/></g><g clip-path="url(#clip124)" transform="matrix(.25 0 0 .25 509 236.07)"><use href="#W"/></g><g clip-path="url(#clip125)" transform="matrix(.25 0 0 .25 41 56.75)"><path d="M17 17L22.297.203Q10.906-2.5 6.703-11.094 5-14.797 5-19q0-7.906 5.297-17.797 3.297-6.297 5.203-6.297 1.203 0 1.203 1 0 .391-.797 1.297Q10.094-34.094 8-23.203q-.406 2-.406 3.109 0 8.797 9.906 12.891Q20.406-6 24-5.297q5.906-19.297 10-26.609 6.797-12.297 16.5-12.297 7.703 0 10.406 7.406 1 2.891 1 6.391 0 11.109-8.703 20.5Q44.5-.406 33.094.906q-1.594.188-3.188.188-1.5 0-3.312-.188-3.5 18.188-3.5 18.297-1.094 2.5-3.688 2.594-2.312 0-2.812-2v-.094h0Q16.5 19.406 16.5 19q0-.406.5-2zM30.797-4.703q11.609 0 20.406-7.891 7.703-7 7.891-15.609 0-6.203-4.391-8.891-2.203-1.312-5.203-1.312-8.297 0-14.5 9.703-3.5 5.5-5.297 12.703-2 10-2 10.797 0 .406 1.297.406.797.094 1.797.094z"/></g><g clip-path="url(#clip126)" transform="matrix(.175 0 0 .175 57.35 62.475)"><path d="M42.703-60.703L29.406-7.594Q29-6.094 29-5.5q0 1.5 1.594 1.906h.109q.703.188 2 .297 2.594.203 6.391.203 3.109 0 3.312.594.094.203.094.5-.406 1.906-2.203 2l-8.594-.203h-.109L23.5-.297h-.203L15-.203h-.203L6.703 0h-.109Q4.906 0 4.906-1.203 4.906-2.703 6-3q.703-.094 3.094-.094 8.906 0 10.609-1.703.594-.609 1-1.797 0-.203.094-.5v-.203h.109v-.109q0-.094.094-.5l13.406-53.391q.391-1.203.391-2.094 0-.906-.891-1.109-.609-.094-1.906-.094h-3.906q-10.297 0-14.094 2.297-2.094 1.203-3.703 3.703l-.094.094v.094h-.109Q8-55.094 5.297-47.297q-.703 1.891-1.203 2-.188.094-.5.094-1.188 0-1.188-1.094 0-.609.594-1.797l6-17.609q.594-1.703 1.406-1.891.5-.109 1.797-.109h55.5q2.5 0 2.703 1.109 0 .891-.203 1.688L67.5-47.5q-.297 2.094-1.5 2.297-1.203 0-1.203-1.297 0-.703.297-1.906.812-5.188.812-8 0-5.797-4.109-7.297-2.594-.891-10.5-.891-5.391 0-6.297.188-1.297.312-1.906 2.203v.109q-.188.5-.391 1.391z"/></g><g clip-path="url(#clip127)" transform="matrix(.25 0 0 .25 70.002 56.75)"><path d="M33.094 24h0q0 1-1 1-1.188 0-5.297-4.094Q20.594 14.703 16.5 6.203 9.906-7.406 9.906-25q0-16.906 6.297-30.5 5.203-11.094 13.203-17.797Q31.5-75 32.094-75q1 0 1 1 0 .5-1.297 1.703Q15.703-55.906 15.703-25q0 30.797 15.703 46.797Q33.094 23.5 33.094 24z"/></g><g clip-path="url(#clip128)" transform="matrix(.25 0 0 .25 79.727 56.75)"><use href="#a"/></g><g clip-path="url(#clip129)" transform="matrix(.25 0 0 .25 92.227 56.75)"><path d="M28.906-25h0q0 16.906-6.312 30.5-5.188 11.094-13.188 17.797Q7.297 25 6.703 25q-1 0-1-1 0-.5 1.297-1.703Q23.094 5.906 23.094-25q0-30.5-15-46.203l-.5-.5Q5.703-73.5 5.703-74q0-1 1-1Q7.906-75 12-70.906q6.203 6.203 10.297 14.703Q28.906-42.594 28.906-25z"/></g><g clip-path="url(#clip130)" transform="matrix(.25 0 0 .25 108.9 56.75)"><path d="M9.594-23v13.297q0 3.203-2 3.297-2 0-2-3.297v-30.594q0-3.203 2-3.297 2 0 2 3.297V-27q2.812 0 2.812 2 0 2-2.812 2z"/></g><g clip-path="url(#clip131)" transform="matrix(25 0 0 25 108.9 56.75)"><path d="M1.337-.428q-.015 0-.015.012 0 .003.005.016l.001.001q.034.079.102.129H.661q0 0 0 0h0q0 0 0 0H.116q-.033 0-.033.02.001.02.033.02h.545q0 0 0 0h0q0 0 0 0h.769q-.046.034-.079.086-.029.045-.029.06 0 .012.015.012.011 0 .016-.01.001-.003.002-.004.046-.103.145-.15.003-.002.005-.002.009-.005.009-.012-.003-.01-.007-.01-.007-.003-.014-.007h-.001l-.001-.001H1.49q-.092-.047-.136-.146-.006-.014-.017-.014z"/></g><g clip-path="url(#clip132)" transform="matrix(.25 0 0 .25 162.09 56.75)"><use href="#Y"/></g><g clip-path="url(#clip133)" transform="matrix(.25 0 0 .25 169.04 56.75)"><use href="#a"/></g><g clip-path="url(#clip134)" transform="matrix(.25 0 0 .25 181.54 56.75)"><use href="#b"/></g><g clip-path="url(#clip135)" transform="matrix(.25 0 0 .25 192.65 56.75)"><path d="M44.906-17.406h0L42.094 0H5q0-2.5.594-3.203l.5-.5 19.203-21.391q10.5-11.812 10.5-22.109 0-8.891-5.391-13.5l-.109-.094h-.094Q27-63.5 22.406-63.5q-7.203 0-11.5 6.203-1.203 1.797-2 4 .297-.109 1.297-.109 4 0 5.094 3.609v.094q.203.703.203 1.5 0 4-3.797 5.109-.797.188-1.406.188-3.703 0-4.891-3.094Q5-47.094 5-48.5q0-7.703 5.906-13.203 5.297-4.891 12.797-4.891 11 0 17.094 7.391 3.5 4.297 4 10.203.109.906.109 1.797 0 7.297-5.5 13.906-2.906 3.391-9 9l-6.109 5.391-1 .906L12.703-7.703h18q8.797 0 9.5-.797 1-1.406 2.203-8.906z"/></g><g clip-path="url(#clip136)" transform="matrix(.25 0 0 .25 205.15 56.75)"><use href="#b"/></g><g clip-path="url(#clip137)" transform="matrix(.25 0 0 .25 216.27 56.75)"><path d="M44.906-20.094h0q0 10.297-7.703 17Q31 2.203 23.094 2.203 13.906 2.203 8.5-5.5 5-10.406 5-16.094q0-4.609 4.094-5.203.406-.109.812-.109 3.688 0 4.797 3.312.203.797.203 1.594 0 3.203-2.812 4.406-1 .5-2.188.5-1.109 0-1.703-.203Q10-5.5 15.906-2.406q3.297 1.812 7 1.812 6.688 0 10.688-6.5Q36-11.297 36-20.797q0-8.406-1.797-12.609-2.797-6.391-8.5-6.391-8.109 0-12.906 7-.594.891-1.297.891-1.297 0-1.406-1.391V-34.5-64.094q0-2.312 1-2.406.406 0 1.203.297 6.297 2.797 13.297 2.797 7.203 0 13.609-2.891.5-.297.797-.297 1 0 1 1.094 0 1.297-3.203 4.203Q31-55.094 21.703-55.094q-4.203 0-8.5-1.312v19.5Q18.406-42 25.906-42q8.797 0 14.5 7.703 4.5 6.094 4.5 14.203z"/></g><g clip-path="url(#clip138)" transform="matrix(.25 0 0 .25 228.77 56.75)"><use href="#d"/></g><g clip-path="url(#clip139)" transform="matrix(.25 0 0 .25 725 150.1)"><use href="#a"/></g></g><defs ><path id="B" d="M60.475 41.343h30.891"/><path id="C" d="M76.858 50.806c-.196 0-.329-.056-.42-.231a2.84 2.84 0 0 1-.224-.813c-.014-.189.056-.301.224-.357.084-.028.196-.043.301-.043.196 0 .323.043.42.232s.224.636.224.811c0 .343-.238.399-.525.399m-.056-1.666c-.966 0-1.309.49-1.309.945s.343.945 1.309.945 1.301-.49 1.301-.945-.336-.945-1.301-.945"/><path id="D" d="M69.373 43.982v.517h-.581c-.049 0-.098.043-.098.098v.133a.1.1 0 0 0 .098.097h2.121c.057 0 .098-.042.098-.097v-.133c0-.056-.042-.098-.098-.098h-.63v-.517h.63c.057 0 .098-.049.098-.105v-.133c0-.049-.042-.097-.098-.097h-.63v-1.113c0-.042-.021-.077-.048-.091l-.084-.043c-.014-.007-.021-.007-.035-.007-.028 0-.056 0-.078.021l-.636.581c-.021.022-.028.049-.028.078v.574h-.811s.784-.84 1.61-1.947a.15.15 0 0 0 .035-.097c0-.035-.014-.063-.021-.07l-.154-.154c-.021-.014-.042-.028-.07-.028h-1.043c-.049 0-.084.043-.091.084 0 0-.035.518-.217 1.085a4.15 4.15 0 0 1-.574 1.176s-.021.035-.021.078c0 .014 0 .027.007.042.021.049.07.126.07.126s.014.043.077.043h1.204"/><path id="E" d="M360.84 357.69l-65.56-196.67"/><path id="F" d="M170.17 292.13c0 3.32-2.68 6-6 6a6 6 0 0 1-6-6c0-3.31 2.69-6 6-6a6 6 0 0 1 6 6z"/><path id="G" d="M366.84 357.69c0 3.31-2.69 6-6 6s-6-2.69-6-6 2.69-6 6-6 6 2.69 6 6z"/><path id="H" d="M301.28 161.02a6 6 0 0 1-6 6c-3.31 0-6-2.69-6-6s2.69-6 6-6a6 6 0 0 1 6 6z"/><path id="I" d="M366.84 226.58c0 3.31-2.69 6-6 6s-6-2.69-6-6a6 6 0 1 1 12 0z"/><path id="J" d="M629.07 161.02c0 3.31-2.69 6-6 6a6 6 0 1 1 0-12c3.31 0 6 2.69 6 6z"/><path id="K" d="M760.18 292.13a6 6 0 1 1-12 0c0-3.31 2.69-6 6-6s6 2.69 6 6z"/><path id="L" d="M759.52 31.008c0 3.314-2.68 6-6 6-3.31 0-6-2.686-6-6s2.69-6 6-6c3.32 0 6 2.686 6 6z"/><path id="M" d="M891.29 423.25a6 6 0 0 1-6 6c-3.31 0-6-2.69-6-6a6 6 0 0 1 6-6c3.32 0 6 2.68 6 6z"/><path id="N" d="M104.62 226.58c0 3.31-2.69 6-6.005 6s-6-2.69-6-6c0-3.32 2.686-6 6-6a6 6 0 0 1 6.005 6z"/><path id="O" d="M432.4 95.464a6 6 0 0 1-6 5.996c-3.32 0-6-2.682-6-5.996a6 6 0 0 1 6-6c3.31 0 6 2.687 6 6z"/><path id="P" d="M432.4 292.13a6 6 0 0 1-6 6c-3.32 0-6-2.68-6-6a6 6 0 0 1 6-6c3.31 0 6 2.69 6 6z"/><path id="Q" d="M563.51 95.464a6 6 0 1 1-12 0c0-3.313 2.69-6 6-6s6 2.687 6 6z"/><path id="R" d="M629.07 29.908c0 3.314-2.69 6-6 6-3.32 0-6-2.686-6-6s2.68-6 6-6c3.31 0 6 2.686 6 6z"/><path id="S" d="M39.059 357.69c0 3.31-2.687 6-6 6s-6-2.69-6-6 2.686-6 6-6 6 2.69 6 6z"/><path id="T" d="M104.62 488.8a6 6 0 0 1-6.005 6c-3.314 0-6-2.68-6-6 0-3.31 2.686-6 6-6s6.005 2.69 6.005 6z"/><path id="U" d="M65.203-25.797L61 0H3.297v-3.094h2.406q6.5 0 7.5-1.703.391-.703.391-3v-52.406q0-3-1.188-3.797-1.406-.906-6.703-.906H3.297V-68h56.297l2.812 22.5h-2.5q-1.312-11-4.609-14.797-4-4.609-15-4.609H27.406q-3.906 0-4.609 1.203v.109h0v.094q-.297.594-.297 2.594v24h9q7.703 0 9.594-3.391h0q.5-.906.703-2.203.5-2 .5-6.094h2.5v26.5h-2.5q0-7.312-2.094-9.406-2.297-2.297-8.703-2.297h-9v26.703q0 3 1.094 3.5h.109q.891.5 3.703.5h13.297q12.203 0 16.703-5.812Q60.297-12.703 62-22l.703-3.797z"/><path id="V" d="M8-72.203v30.406Q12.406-46 19.594-46q7.5 0 11.5 6.094 2.203 3.5 2.203 7.812 0 10.891-9.594 21.188-5.609 6-14.297 11.703-2.203 1.406-2.609 1.406-1.203 0-1.297-1.406V-.594-72.203q0-2.5.703-2.703h.094Q6.5-75 6.797-75 7.906-75 8-73.297v.094zm0 37.906v32.703q10-8.312 14.5-18.609 2.703-6.094 2.703-11.891 0-7.203-3.703-9.609-1.203-.703-2.703-.703-4.391 0-7.5 1.812Q8.094-37.797 8-34.297z"/><path id="W" d="M58.203-68L61-45.5h-2.5q-1.297-11-4.406-14.797-3.891-4.609-14.688-4.609h-12q-3.906 0-4.609 1.203v.109h0v.094q-.297.594-.297 2.594v25.312h8.594q7.609 0 9.5-3.609 1.109-2.203 1.109-8.094h2.5v26.5h-2.5q0-7.297-2.109-9.406v-.094l-.094-.109Q37.297-32.5 31.094-32.5H22.5v24.594q0 2.906 1.203 3.703Q25.297-3.094 32-3.094h3.297V0Q31.703-.297 18.5-.297 6.797-.297 3.297 0v-3.094h2.406q6.5 0 7.5-1.703.391-.703.391-3v-52.406q0-3-1.188-3.797-1.406-.906-6.703-.906H3.297V-68z"/><path id="X" d="M3.5-68.297h36.594q12.609 0 21.5 10 9 10.094 9.109 24.703 0 14.188-9.203 24.094Q52.594 0 40.094 0H3.5v-3.094h2.406q6.5 0 7.5-1.703.391-.703.391-3V-60.5q0-3-1.203-3.797-1.391-.906-6.688-.906H3.5zM27.297-3.094h10.109Q48-3.094 54.5-10.703l.703-.891q5.203-7.109 5.5-19.906v-2.094q0-15.203-5.203-22.312-6.703-9.297-18.203-9.297h-10q-3.891 0-4.594 1.203v.094h0v.109q-.297.594-.297 2.594v54.109q0 3 1.094 3.5h.094q.906.5 3.703.5z"/><path id="Y" d="M25.5 25H11.797V-75H25.5v4h-9.703v92H25.5z"/><path id="Z" d="M48.5-41.094L64.703-58.5q1.891-2.094 1.891-3.594 0-2.703-4-3.109-1.188-.203-1.188-1.094 0-2 1.891-2l11 .297h.109l9.297-.297h.094q1.297 0 1.297 1.094 0 1.703-1.391 1.906-.203.094-.797.094-7 .297-12.703 5.109-1.297 1.094-15 15.891-3.297 3.609-5.5 5.797.594 1.609 12.891 30.906Q63.906-4.406 65-3.797h.094 0 0 0 .109v.094q1.297.5 6 .609Q73-3.094 73-1.906 73 0 71.094 0l-11-.297H60L47.5 0h-.094q-1.5 0-1.5-1.203 0-1.594 1.5-1.797.188-.094.5-.094 4.5-.5 5.688-2.5.109-.203.109-.406l-.5-1.406-10.109-23.891-9 9.797-10.188 10.797q-2.703 2.906-2.703 4.5 0 2.703 4 3.109 1.203 0 1.203 1.094 0 2-1.812 2L13.5-.297h-.094L4.094 0H4Q2.703 0 2.703-1.094q0-1.703 1.391-1.906.203-.094.812-.094 8.5-.5 14.688-7.203l1.312-1.109L42-34.094 30.203-62q-.906-2.094-2.406-2.703h-.094 0 0q-1.5-.5-5-.5-2.203 0-2.297-1.094 0-2 1.797-2L33.297-68h.109l12.5-.297H46q1.5 0 1.5 1.203 0 1.688-2 1.891-4.594.406-5.906 2.906l.5 1.297z"/><path id="a" d="M46-32q0 14.594-3.703 22.594Q36.406 1.797 24.906 2.203q-9.109 0-14.609-7.203-1.094-1.297-1.891-2.906-4.5-8.297-4.5-24.094 0-14.703 3.688-22.703 5-11.203 16.203-11.891H25q8.906 0 14.5 7.094v.094q1.406 1.812 2.5 4 4 8.5 4 23.406zM24.906 0h0q6.297 0 9.688-6.094 1.406-2.703 2-6.406 1.109-6.406 1.109-20.703 0-13.891-1-19.5-1.797-9.5-9.203-11.391-1.297-.312-2.594-.312-7 0-10.203 7Q13.594-55 13-51.594q-.797 5.391-.797 18.391 0 15.109 1.094 21.109Q15.094-2.5 22.094-.406 23.5 0 24.906 0z"/><path id="b" d="M20.297-.094h0q0 9.688-6.297 17-1.703 2-2.797 2.391-1 0-1-1.094 0-.5 1.094-1.609 6-6 6.703-14.688.094-1 .094-2 0-1.5-.188-1.5-.109 0-.5.297Q16 0 13.906 0 10.203 0 9-3.406q-.406-.891-.406-1.891 0-3.609 3.109-4.906 1-.391 2.203-.391 4.391 0 5.891 5.797.5 2.094.5 4.703z"/><path id="c" d="M19.203-25q0 3.297-3 4.797-1.109.5-2.297.5-3.312 0-4.812-3-.5-1.094-.5-2.297 0-3.297 3-4.797 1.109-.5 2.312-.5 3.297 0 4.797 3 .5 1.094.5 2.297z"/><path id="d" d="M15.906-75V25H2.203v-4h9.703v-92H2.203v-4z"/></defs></svg>